<svg width="40" height="44" viewBox="0 0 40 44" fill="none" xmlns="http://www.w3.org/2000/svg">
<path d="M38.6989 38.8902V19.8109C38.6989 18.815 37.8905 18.0077 36.8931 18.0077H28.3176V12.8166C28.3176 12.3263 28.0515 11.8744 27.6229 11.6357L20.6599 7.7587C20.6216 7.73727 20.5819 7.71848 20.542 7.70117V5.48872H24.2915C24.5906 5.48872 24.8333 5.24647 24.8333 4.94775V2.21533C24.8333 1.91661 24.5906 1.67436 24.2915 1.67436H20.542V1.42989C20.542 1.13117 20.2996 0.888916 20.0003 0.888916C19.701 0.888916 19.4586 1.13117 19.4586 1.42989V7.70117C19.4187 7.71859 19.3791 7.73738 19.3406 7.7587L12.3776 11.6358C11.9486 11.8744 11.6827 12.3264 11.6827 12.8167V18.0077H3.10701C2.10961 18.0077 1.30125 18.815 1.30125 19.8109V38.8901C0.534011 39.2367 0 40.0072 0 40.9024C0 42.1224 0.990421 43.1111 2.21217 43.1111H37.7878C39.0096 43.1111 40 42.1224 40 40.9024C39.9999 40.0072 39.466 39.2367 38.6989 38.8902ZM31.7185 24.2923C31.7185 23.7123 32.1895 23.2421 32.7709 23.2421H34.7379C35.3188 23.2421 35.7899 23.7123 35.7899 24.2923V26.2564C35.7899 26.8364 35.3188 27.3067 34.7379 27.3067H32.771C32.1896 27.3067 31.7186 26.8364 31.7186 26.2564V24.2923H31.7185ZM31.7185 30.6029C31.7185 30.0229 32.1895 29.5526 32.7709 29.5526H34.7379C35.3188 29.5526 35.7899 30.0229 35.7899 30.6029V32.5668C35.7899 33.1468 35.3188 33.617 34.7379 33.617H32.771C32.1896 33.617 31.7186 33.1468 31.7186 32.5668V30.6029H31.7185ZM25.3983 24.2923C25.3983 23.7123 25.8691 23.2421 26.45 23.2421H28.4172C28.9978 23.2421 29.4691 23.7123 29.4691 24.2923V26.2564C29.4691 26.8364 28.9978 27.3067 28.4172 27.3067H26.45C25.8691 27.3067 25.3983 26.8364 25.3983 26.2564V24.2923ZM25.3983 30.6029C25.3983 30.0229 25.8691 29.5526 26.45 29.5526H28.4172C28.9978 29.5526 29.4691 30.0229 29.4691 30.6029V32.5668C29.4691 33.1468 28.9978 33.617 28.4172 33.617H26.45C25.8691 33.617 25.3983 33.1468 25.3983 32.5668V30.6029ZM20 12.8208C21.6457 12.8208 22.9798 14.1527 22.9798 15.7958C22.9798 17.4389 21.6458 18.7707 20 18.7707C18.3543 18.7707 17.0203 17.4388 17.0203 15.7957C17.0203 14.1526 18.3543 12.8208 20 12.8208ZM17.0162 29.8995C17.0162 29.3194 17.487 28.8492 18.0684 28.8492H21.9317C22.5127 28.8492 22.9836 29.3194 22.9836 29.8995V38.174C22.9836 38.3633 22.933 38.5408 22.8449 38.6943H17.1555C17.0674 38.5408 17.0165 38.3633 17.0165 38.174L17.0162 29.8995ZM10.5307 24.2923C10.5307 23.7123 11.0016 23.2421 11.5826 23.2421H13.5497C14.1306 23.2421 14.6015 23.7123 14.6015 24.2923V26.2564C14.6015 26.8364 14.1306 27.3067 13.5497 27.3067H11.5826C11.0016 27.3067 10.5307 26.8364 10.5307 26.2564V24.2923ZM10.5307 30.6029C10.5307 30.0229 11.0016 29.5526 11.5826 29.5526H13.5497C14.1306 29.5526 14.6015 30.0229 14.6015 30.6029V32.5668C14.6015 33.1468 14.1306 33.617 13.5497 33.617H11.5826C11.0016 33.617 10.5307 33.1468 10.5307 32.5668V30.6029ZM4.20982 24.2923C4.20982 23.7123 4.68071 23.2421 5.26198 23.2421H7.22887C7.81004 23.2421 8.28104 23.7123 8.28104 24.2923V26.2564C8.28104 26.8364 7.81004 27.3067 7.22887 27.3067H5.26209C4.68082 27.3067 4.20993 26.8364 4.20993 26.2564V24.2923H4.20982ZM4.20982 30.6029C4.20982 30.0229 4.68071 29.5526 5.26198 29.5526H7.22887C7.81004 29.5526 8.28104 30.0229 8.28104 30.6029V32.5668C8.28104 33.1468 7.81004 33.617 7.22887 33.617H5.26209C4.68082 33.617 4.20993 33.1468 4.20993 32.5668V30.6029H4.20982Z" fill="#5387EC"/>
</svg>
