<svg width="26" height="26" viewBox="0 0 26 26" fill="none" xmlns="http://www.w3.org/2000/svg">
    <path d="M0 25.9857L13 26V0H0V25.9857ZM4.8469 19.5H1.64345C1.64345 18.5401 1.625 17.5928 1.66526 16.6484C1.67071 16.5196 1.9651 16.3087 2.13368 16.2999C2.8621 16.2609 3.59597 16.25 4.32187 16.3058C4.50723 16.32 4.8121 16.606 4.82258 16.7826C4.875 17.6544 4.8469 18.5313 4.8469 19.5ZM8.125 3.2739C9.07693 3.2739 9.9819 3.25 10.8831 3.29571C11.0458 3.3041 11.315 3.58968 11.3259 3.76035C11.3746 4.51268 11.3695 5.27087 11.328 6.02361C11.3192 6.18255 11.0802 6.45429 10.938 6.46058C10.0108 6.50042 9.08029 6.48071 8.125 6.48071V3.2739ZM11.3213 12.4909C11.3108 12.6612 10.9896 12.9379 10.7984 12.9493C9.958 13 9.11258 12.9711 8.13632 12.9711C8.13632 11.9688 8.12458 11.0072 8.15394 10.0469C8.15687 9.94794 8.40303 9.77852 8.54016 9.77474C9.43129 9.75 10.3241 9.76174 11.3456 9.76174C11.3461 10.7598 11.375 11.6279 11.3213 12.4909ZM8.125 16.2752C9.09748 16.2752 9.984 16.25 10.8667 16.297C11.0357 16.3062 11.3196 16.593 11.3285 16.7633C11.3754 17.6502 11.3503 18.5409 11.3503 19.5H8.125V16.2752ZM1.65645 3.705C1.66148 3.55487 1.86906 3.28942 1.99026 3.28481C2.9401 3.24958 3.89161 3.2651 4.875 3.2651V6.5H1.64094C1.64094 5.52752 1.625 4.61584 1.65645 3.705ZM1.65226 10.1295C1.65603 10.0041 1.86068 9.78229 1.97726 9.77894C2.92835 9.75 3.88071 9.763 4.875 9.763V13H1.63758C1.63758 12.0581 1.625 11.0932 1.65226 10.1295ZM14.625 26H17.875V19.5H22.75V26L25.9954 25.9916L26 11.375H14.625V26ZM14.625 8.125V9.75H26V8.125H14.625Z" fill="white"/>
</svg>
