<svg width="26" height="26" viewBox="0 0 26 26" fill="none" xmlns="http://www.w3.org/2000/svg">
    <path fill-rule="evenodd" clip-rule="evenodd" d="M12.9998 0.786133C12.4601 0.786133 12.0226 1.22361 12.0226 1.76327V12.023H1.7623C1.22264 12.023 0.785156 12.4605 0.785156 13.0002C0.785156 13.5398 1.22264 13.9773 1.7623 13.9773H12.0226V24.2376C12.0226 24.7772 12.4601 25.2147 12.9998 25.2147C13.5394 25.2147 13.9769 24.7772 13.9769 24.2376V13.9773H24.2366C24.7762 13.9773 25.2137 13.5398 25.2137 13.0002C25.2137 12.4605 24.7762 12.023 24.2366 12.023H13.9769V1.76328C13.9769 1.22361 13.5394 0.786133 12.9998 0.786133Z" fill="#343434"/>
</svg>
