<svg width="13" height="13" viewBox="0 0 13 13" fill="none" xmlns="http://www.w3.org/2000/svg">
<path fill-rule="evenodd" clip-rule="evenodd" d="M5.57343 11.1184C5.57343 11.7075 6.02118 12.1851 6.57343 12.1851C7.12568 12.1851 7.57343 11.7075 7.57343 11.1184V7.18506H11.5068C12.0958 7.18506 12.5734 6.73731 12.5734 6.18506C12.5734 5.63281 12.0958 5.18506 11.5068 5.18506H7.57343V1.25173C7.57343 0.662659 7.12568 0.185059 6.57343 0.185059C6.02118 0.185059 5.57343 0.662659 5.57343 1.25173V5.18506H1.64009C1.05103 5.18506 0.573425 5.63281 0.573425 6.18506C0.573425 6.73731 1.05103 7.18506 1.64009 7.18506H5.57343V11.1184Z" fill="#3068D3"/>
</svg>
