<svg width="14" height="14" viewBox="0 0 14 14" fill="none" xmlns="http://www.w3.org/2000/svg">
    <path fill-rule="evenodd" clip-rule="evenodd" d="M5.78766 12.6059C5.78766 13.2753 6.33039 13.818 6.99979 13.818C7.66918 13.818 8.21191 13.2753 8.21191 12.6059V8.21195H12.6059C13.2753 8.21195 13.818 7.66922 13.818 6.99983C13.818 6.33043 13.2753 5.78771 12.6059 5.78771H8.21191V1.39376C8.21191 0.724368 7.66918 0.181641 6.99979 0.181641C6.33039 0.181641 5.78766 0.724368 5.78766 1.39376V5.78771H1.39376C0.724368 5.78771 0.181641 6.33043 0.181641 6.99983C0.181641 7.66922 0.724368 8.21195 1.39376 8.21195H5.78766V12.6059Z" fill="white"/>
</svg>
