<svg width="90" height="90" viewBox="0 0 90 90" fill="none" xmlns="http://www.w3.org/2000/svg">
    <path fill-rule="evenodd" clip-rule="evenodd" d="M44.9996 32.7871C44.4599 32.7871 44.0224 33.2246 44.0224 33.7643V44.024H33.7623C33.2226 44.024 32.7852 44.4615 32.7852 45.0011C32.7852 45.5408 33.2226 45.9783 33.7623 45.9783H44.0224V56.2385C44.0224 56.7782 44.4599 57.2157 44.9996 57.2157C45.5392 57.2157 45.9767 56.7782 45.9767 56.2385V45.9783H56.2366C56.7762 45.9783 57.2137 45.5408 57.2137 45.0011C57.2137 44.4615 56.7762 44.024 56.2366 44.024H45.9767V33.7643C45.9767 33.2246 45.5392 32.7871 44.9996 32.7871Z" fill="#343434"/>
    <rect x="0.642857" y="0.642857" width="88.7143" height="88.7143" rx="44.3571" stroke="#343434" stroke-width="1.28571" stroke-dasharray="6.43 6.43"/>
</svg>
