<svg width="22" height="22" viewBox="0 0 22 22" fill="none" xmlns="http://www.w3.org/2000/svg">
<path d="M10.9998 4.125C6.4165 4.125 2.50234 6.97583 0.916504 11C2.50234 15.0242 6.4165 17.875 10.9998 17.875C15.5832 17.875 19.4973 15.0242 21.0832 11C19.4973 6.97583 15.5832 4.125 10.9998 4.125ZM10.9998 15.5833C8.46984 15.5833 6.4165 13.53 6.4165 11C6.4165 8.47 8.46984 6.41667 10.9998 6.41667C13.5298 6.41667 15.5832 8.47 15.5832 11C15.5832 13.53 13.5298 15.5833 10.9998 15.5833ZM10.9998 8.25C9.47817 8.25 8.24984 9.47833 8.24984 11C8.24984 12.5217 9.47817 13.75 10.9998 13.75C12.5215 13.75 13.7498 12.5217 13.7498 11C13.7498 9.47833 12.5215 8.25 10.9998 8.25Z" fill="#B6B6B6"/>
</svg>
