<svg width="22" height="22" viewBox="0 0 22 22" fill="none" xmlns="http://www.w3.org/2000/svg">
<path fill-rule="evenodd" clip-rule="evenodd" d="M4.98981 15.7141L2.56004 18.1439L3.8564 19.4402L19.4397 3.85691L18.1434 2.56055L15.3394 5.36456C14.0476 4.80917 12.5698 4.49403 10.9999 4.49403C6.28155 4.49403 2.39583 7.3406 1.88917 11.0004H1.88916C2.14892 12.8767 3.29685 14.5393 4.98981 15.7141ZM7.44019 13.2637L8.79474 11.9092C8.67919 11.6291 8.61544 11.3222 8.61544 11.0004C8.61544 9.6835 9.68299 8.61595 10.9999 8.61595C11.3217 8.61595 11.6286 8.6797 11.9087 8.79525L13.2632 7.4407C12.6093 7.02403 11.8328 6.78261 10.9999 6.78261C8.67047 6.78261 6.78211 8.67097 6.78211 11.0004C6.78211 11.8333 7.02352 12.6098 7.44019 13.2637ZM8.45108 17.2201C9.25417 17.4053 10.1026 17.5052 10.9801 17.5067L10.9999 17.5068L11.0197 17.5067C15.729 17.4988 19.6046 14.655 20.1106 11.0004C19.9233 9.64775 19.2745 8.40625 18.2927 7.37846L15.1865 10.4848C15.207 10.6537 15.2176 10.8258 15.2176 11.0004C15.2176 13.3298 13.3293 15.2181 10.9999 15.2181C10.8253 15.2181 10.6532 15.2075 10.4842 15.187L8.45108 17.2201Z" fill="#B6B6B6"/>
</svg>
