<svg width="20" height="20" viewBox="0 0 20 20" fill="none" xmlns="http://www.w3.org/2000/svg">
<path d="M17.892 18.8013C17.9512 18.8632 18.0222 18.9127 18.1008 18.9468C18.1794 18.9809 18.264 18.999 18.3497 19C18.4353 19.0009 18.5203 18.9848 18.5997 18.9524C18.679 18.9201 18.7511 18.8723 18.8116 18.8117C18.8722 18.7511 18.9201 18.6791 18.9524 18.5998C18.9848 18.5205 19.0009 18.4355 19 18.3498C18.999 18.2642 18.9809 18.1796 18.9468 18.101C18.9127 18.0225 18.8632 17.9515 18.8013 17.8923L13.4632 12.5558L13.2327 12.3254L13.0156 12.137C12.8929 12.0315 12.7348 11.9762 12.573 11.9821C12.4113 11.9881 12.2577 12.0548 12.1429 12.1689C11.14 13.1642 9.8072 13.7579 8.39629 13.8379C6.98538 13.9179 5.59399 13.4787 4.48486 12.6033C3.37573 11.7278 2.62562 10.4766 2.37618 9.08605C2.12673 7.69547 2.39522 6.26171 3.13094 5.0555C3.86666 3.84929 5.01869 2.95413 6.3695 2.53904C7.7203 2.12395 9.17638 2.21767 10.4628 2.8025C11.7492 3.38733 12.7769 4.42279 13.3518 5.71335C13.9267 7.00392 14.0091 8.46026 13.5834 9.80739C13.558 9.88784 13.5488 9.9725 13.5561 10.0565C13.5635 10.1406 13.5874 10.2223 13.6263 10.2971C13.6653 10.3719 13.7187 10.4383 13.7833 10.4925C13.848 10.5467 13.9227 10.5877 14.0031 10.613C14.0836 10.6384 14.1683 10.6476 14.2524 10.6402C14.3364 10.6329 14.4182 10.609 14.493 10.5701C14.5679 10.5311 14.6343 10.4778 14.6885 10.4131C14.7427 10.3485 14.7837 10.2738 14.809 10.1934C15.3209 8.57227 15.231 6.82105 14.5559 5.26085C13.8808 3.70064 12.6657 2.43602 11.1334 1.6989C9.60118 0.961774 7.85448 0.801557 6.21364 1.24762C4.57281 1.69369 3.14781 2.71615 2.19998 4.12749C1.25214 5.53883 0.844994 7.24446 1.0532 8.9316C1.26141 10.6187 2.07102 12.1743 3.33356 13.313C4.5961 14.4517 6.22695 15.0973 7.92703 15.1313C9.62711 15.1653 11.2825 14.5855 12.5896 13.4981L17.892 18.8013Z" fill="#B6B6B6"/>
<path d="M17.892 18.8013L18.0005 18.6976L17.9981 18.6953L17.892 18.8013ZM18.8013 17.8923L18.6952 17.9985L18.6976 18.0008L18.8013 17.8923ZM13.2327 12.3254L13.339 12.219L13.331 12.2121L13.2327 12.3254ZM13.0156 12.137L13.114 12.0237L13.1134 12.0232L13.0156 12.137ZM12.5896 13.4981L12.6956 13.3921L12.5989 13.2953L12.4936 13.3828L12.5896 13.4981ZM12.573 11.8452L12.4412 11.7737L12.3737 11.8981L12.494 11.9726L12.573 11.8452ZM13.4632 12.3972L13.3841 12.5246L13.519 12.6083L13.5949 12.4689L13.4632 12.3972ZM14.809 9.92556L14.9408 9.99729L15.0287 9.83578L14.8528 9.78209L14.809 9.92556ZM13.7833 9.61249L13.8271 9.46902L13.7099 9.43324L13.6514 9.541L13.7833 9.61249ZM13.2049 11.1809L13.0642 11.1291L13.0549 11.1542V11.1809H13.2049ZM12.6892 11.6308L12.8211 11.7023L12.6892 11.6308ZM12.9414 11.9821L12.8889 12.1227L12.9414 11.9821ZM13.2049 12.0807L13.1524 12.2212L13.2913 12.2731L13.3448 12.1348L13.2049 12.0807ZM13.358 11.8452L13.477 11.7538L13.432 11.6952H13.358V11.8452ZM13.4256 12.137L13.2798 12.1016L13.2756 12.119V12.137H13.4256ZM13.313 12.1689V12.0189H13.0014L13.1957 12.2625L13.313 12.1689ZM13.5834 12.1765L13.4516 12.1047L13.5834 12.1765ZM14.2524 10.731L14.3706 10.8234L14.5599 10.581H14.2524V10.731ZM13.4875 10.731L13.3452 10.6837L13.2796 10.881H13.4875V10.731ZM13.5561 10.5247L13.6985 10.572L13.7061 10.549V10.5247H13.5561ZM13.5561 10.3277L13.6843 10.2498L13.4061 9.79233V10.3277H13.5561ZM13.7296 10.613L13.8426 10.7118L13.9149 10.629L13.8578 10.5351L13.7296 10.613ZM12.8963 11.566L12.7834 11.4673L12.7115 11.5495L12.7677 11.6432L12.8963 11.566ZM13.6549 11.1809L13.7027 11.3231L13.7635 11.3027L13.7907 11.2447L13.6549 11.1809ZM13.7833 10.9075L13.7112 10.7759L13.6683 10.7995L13.6475 10.8437L13.7833 10.9075ZM13.4256 11.3634L13.3484 11.492L13.3644 11.5016L13.3823 11.507L13.4256 11.3634ZM13.313 11.2958L13.2652 11.1537L12.957 11.2572L13.2358 11.4245L13.313 11.2958ZM13.4632 11.0425L13.3675 10.927L13.3039 10.9797L13.3144 11.0616L13.4632 11.0425ZM13.5834 11.9821L13.4346 12.0012L13.4936 12.4625L13.7152 12.0536L13.5834 11.9821ZM13.7296 11.7124L13.6978 11.5658L13.6306 11.5804L13.5978 11.6409L13.7296 11.7124ZM14.1049 11.6308L14.1368 11.7774L14.1349 11.4838L14.1049 11.6308ZM13.313 11.4591L13.3494 11.3135L13.2439 11.2872L13.186 11.3792L13.313 11.4591ZM13.4256 11.4872L13.4864 11.6243L13.8853 11.4475L13.462 11.3417L13.4256 11.4872ZM17.7836 18.905C17.8566 18.9814 17.9442 19.0424 18.0411 19.0844L18.1605 18.8092C18.1002 18.7831 18.0458 18.7451 18.0004 18.6977L17.7836 18.905ZM18.0411 19.0844C18.138 19.1265 18.2423 19.1488 18.348 19.15L18.3513 18.85C18.2856 18.8492 18.2208 18.8354 18.1605 18.8092L18.0411 19.0844ZM18.348 19.15C18.4536 19.1511 18.5584 19.1312 18.6563 19.0913L18.543 18.8135C18.4822 18.8383 18.417 18.8507 18.3513 18.85L18.348 19.15ZM18.6563 19.0913C18.7541 19.0515 18.843 18.9925 18.9177 18.9178L18.7056 18.7056C18.6591 18.752 18.6039 18.7887 18.543 18.8135L18.6563 19.0913ZM18.9177 18.9178C18.9924 18.8431 19.0514 18.7542 19.0913 18.6564L18.8135 18.5431C18.7887 18.6039 18.752 18.6592 18.7056 18.7056L18.9177 18.9178ZM19.0913 18.6564C19.1312 18.5586 19.1511 18.4538 19.1499 18.3482L18.85 18.3515C18.8507 18.4172 18.8383 18.4823 18.8135 18.5431L19.0913 18.6564ZM19.1499 18.3482C19.1488 18.2425 19.1265 18.1382 19.0844 18.0413L18.8092 18.1608C18.8354 18.221 18.8492 18.2859 18.85 18.3515L19.1499 18.3482ZM19.0844 18.0413C19.0423 17.9444 18.9813 17.8569 18.9049 17.7839L18.6976 18.0008C18.7451 18.0462 18.7831 18.1006 18.8092 18.1608L19.0844 18.0413ZM13.331 12.2121L13.114 12.0237L12.9173 12.2502L13.1343 12.4386L13.331 12.2121ZM13.1134 12.0232C12.9619 11.8931 12.767 11.8249 12.5675 11.8322L12.5785 12.132C12.7026 12.1275 12.8238 12.1699 12.9179 12.2507L13.1134 12.0232ZM12.5675 11.8322C12.3681 11.8396 12.1787 11.9218 12.0372 12.0626L12.2487 12.2753C12.3367 12.1877 12.4545 12.1366 12.5785 12.132L12.5675 11.8322ZM12.0373 12.0625C11.0603 13.0319 9.76212 13.6102 8.3878 13.6881L8.40478 13.9877C9.85227 13.9056 11.2196 13.2965 12.2486 12.2754L12.0373 12.0625ZM8.3878 13.6881C7.01347 13.7661 5.65816 13.3383 4.5778 12.4855L4.39193 12.721C5.52982 13.6192 6.95729 14.0698 8.40478 13.9877L8.3878 13.6881ZM4.5778 12.4855C3.49743 11.6328 2.76679 10.4141 2.52382 9.05957L2.22853 9.11254C2.48445 10.5392 3.25402 11.8228 4.39193 12.721L4.5778 12.4855ZM2.52382 9.05957C2.28085 7.70508 2.54237 6.30852 3.259 5.13361L3.00288 4.97739C2.24807 6.21489 1.97262 7.68587 2.22853 9.11254L2.52382 9.05957ZM3.259 5.13361C3.97563 3.9587 5.09778 3.08675 6.41356 2.68243L6.32544 2.39566C4.93961 2.82151 3.75769 3.73989 3.00288 4.97739L3.259 5.13361ZM6.41356 2.68243C7.72934 2.2781 9.14766 2.36939 10.4007 2.93905L10.5249 2.66595C9.2051 2.06596 7.71127 1.96981 6.32544 2.39566L6.41356 2.68243ZM10.4007 2.93905C11.6538 3.50871 12.6548 4.51732 13.2148 5.77439L13.4888 5.65231C12.899 4.32826 11.8446 3.26594 10.5249 2.66595L10.4007 2.93905ZM13.2148 5.77439C13.7748 7.03147 13.855 8.45002 13.4403 9.76218L13.7264 9.85259C14.1632 8.47051 14.0787 6.97637 13.4888 5.65231L13.2148 5.77439ZM13.4403 9.76231C13.409 9.86155 13.3976 9.96599 13.4067 10.0696L13.7056 10.0434C13.6999 9.97901 13.707 9.91413 13.7264 9.85247L13.4403 9.76231ZM13.4067 10.0696C13.4158 10.1733 13.4452 10.2742 13.4933 10.3664L13.7594 10.2278C13.7295 10.1705 13.7112 10.1078 13.7056 10.0434L13.4067 10.0696ZM13.4933 10.3664C13.5414 10.4587 13.6072 10.5406 13.6869 10.6075L13.8797 10.3776C13.8301 10.336 13.7892 10.2851 13.7594 10.2278L13.4933 10.3664ZM13.6869 10.6075C13.7667 10.6743 13.8588 10.7248 13.9581 10.7561L14.0482 10.47C13.9865 10.4505 13.9292 10.4191 13.8797 10.3776L13.6869 10.6075ZM13.9581 10.7561C14.0573 10.7874 14.1618 10.7988 14.2655 10.7897L14.2392 10.4908C14.1748 10.4965 14.1099 10.4894 14.0482 10.47L13.9581 10.7561ZM14.2655 10.7897C14.3691 10.7806 14.47 10.7512 14.5623 10.7031L14.4237 10.437C14.3664 10.4669 14.3037 10.4852 14.2392 10.4908L14.2655 10.7897ZM14.5623 10.7031C14.6546 10.655 14.7365 10.5893 14.8034 10.5095L14.5736 10.3167C14.532 10.3663 14.4811 10.4071 14.4237 10.437L14.5623 10.7031ZM14.8034 10.5095C14.8703 10.4298 14.9208 10.3377 14.9521 10.2384L14.666 10.1483C14.6465 10.2099 14.6151 10.2672 14.5736 10.3167L14.8034 10.5095ZM14.9521 10.2385C15.4748 8.58302 15.383 6.79461 14.6935 5.20128L14.4182 5.32041C15.079 6.8475 15.1669 8.56153 14.666 10.1482L14.9521 10.2385ZM14.6935 5.20128C14.0041 3.60794 12.7632 2.31649 11.1985 1.56373L11.0684 1.83407C12.5681 2.55555 13.7574 3.79333 14.4182 5.32041L14.6935 5.20128ZM11.1985 1.56373C9.6337 0.810963 7.84994 0.647347 6.1743 1.10288L6.253 1.39237C7.85902 0.955767 9.56866 1.11259 11.0684 1.83407L11.1985 1.56373ZM6.1743 1.10288C4.49865 1.55841 3.04341 2.60256 2.07545 4.04386L2.3245 4.21112C3.25222 2.82974 4.64697 1.82898 6.253 1.39237L6.1743 1.10288ZM2.07545 4.04386C1.10749 5.48516 0.691703 7.22701 0.904334 8.94997L1.20207 8.91323C0.998286 7.26191 1.39678 5.5925 2.3245 4.21112L2.07545 4.04386ZM0.904334 8.94997C1.11696 10.6729 1.94376 12.2615 3.2331 13.4244L3.43402 13.2016C2.19828 12.0871 1.40586 10.5645 1.20207 8.91323L0.904334 8.94997ZM3.2331 13.4244C4.52243 14.5873 6.18788 15.2465 7.92403 15.2813L7.93003 14.9813C6.26601 14.948 4.66977 14.3162 3.43402 13.2016L3.2331 13.4244ZM7.92403 15.2813C9.66018 15.316 11.3507 14.7239 12.6855 13.6135L12.4936 13.3828C11.2143 14.4471 9.59405 15.0146 7.93003 14.9813L7.92403 15.2813ZM12.4835 13.6042L17.7859 18.9074L17.9981 18.6953L12.6956 13.3921L12.4835 13.6042ZM12.2607 12.2618C12.6029 11.8283 13.3787 10.7382 13.723 9.86225L13.4437 9.75252C13.1163 10.5857 12.3634 11.6474 12.0252 12.076L12.2607 12.2618ZM18.9073 17.7863L13.5692 12.4497L13.3571 12.6619L18.6952 17.9984L18.9073 17.7863ZM13.5692 12.4497L13.3387 12.2193L13.1266 12.4315L13.3571 12.6619L13.5692 12.4497ZM14.6711 10.1343C14.4598 10.6276 13.8997 11.7786 13.3466 12.4614L13.5798 12.6502C14.16 11.9339 14.7332 10.7512 14.9469 10.2524L14.6711 10.1343ZM13.5054 12.4119L12.1851 12.025L12.1008 12.3129L13.421 12.6998L13.5054 12.4119ZM14.7606 10.2816L13.6555 9.67585L13.5113 9.93892L14.6164 10.5447L14.7606 10.2816ZM12.494 11.9726L13.3841 12.5246L13.5422 12.2697L12.6521 11.7177L12.494 11.9726ZM14.8528 9.78209L13.8271 9.46902L13.7395 9.75595L14.7652 10.069L14.8528 9.78209ZM13.3468 10.3613L13.0642 11.1291L13.3457 11.2327L13.6283 10.4649L13.3468 10.3613ZM13.0549 11.1809V11.6308H13.3549V11.1809H13.0549ZM13.6514 9.541L12.5574 11.5593L12.8211 11.7023L13.9152 9.68397L13.6514 9.541ZM12.5574 11.5593L12.4412 11.7737L12.7049 11.9166L12.8211 11.7023L12.5574 11.5593ZM13.2049 11.4808C12.9829 11.4808 12.8592 11.4754 12.7886 11.4726C12.7571 11.4714 12.7247 11.4701 12.7003 11.4719C12.688 11.4728 12.6634 11.4753 12.6369 11.4867C12.6036 11.5011 12.5754 11.526 12.5574 11.5593L12.8211 11.7023C12.8061 11.73 12.7822 11.7508 12.7558 11.7622C12.7452 11.7668 12.7364 11.7688 12.7315 11.7698C12.7265 11.7708 12.7233 11.771 12.7228 11.7711C12.7225 11.7711 12.7257 11.7709 12.7362 11.7711C12.7461 11.7712 12.7591 11.7717 12.777 11.7724C12.8488 11.7752 12.977 11.7808 13.2049 11.7808V11.4808ZM12.6049 11.8452C12.6049 11.8952 12.6009 11.9175 12.5997 11.9238C12.5991 11.9269 12.5991 11.9266 12.5981 11.9315C12.5978 11.9329 12.597 11.9371 12.5962 11.9419C12.5958 11.9447 12.5936 11.9587 12.5948 11.9763C12.5956 11.9876 12.6004 12.0506 12.6611 12.0913C12.7199 12.1308 12.7784 12.1135 12.7872 12.111C12.8026 12.1066 12.8141 12.1004 12.8156 12.0997C12.8175 12.0987 12.819 12.0979 12.8198 12.0974C12.8205 12.0971 12.8214 12.0966 12.8215 12.0965C12.8223 12.0961 12.8207 12.097 12.8183 12.0981C12.816 12.0991 12.8135 12.1001 12.8111 12.1009C12.806 12.1024 12.8038 12.1023 12.8058 12.1022C12.8106 12.1021 12.8353 12.1026 12.8889 12.1227L12.9939 11.8416C12.9157 11.8124 12.8512 11.8007 12.7964 11.8024C12.7685 11.8033 12.7438 11.8076 12.7221 11.8144C12.6997 11.8213 12.6841 11.8297 12.6772 11.8335C12.6751 11.8347 12.6769 11.8337 12.6787 11.8328C12.6789 11.8326 12.6895 11.8269 12.7041 11.8227C12.712 11.8205 12.7274 11.8167 12.7474 11.817C12.7687 11.8173 12.7988 11.8224 12.8284 11.8423C12.8583 11.8624 12.875 11.889 12.8836 11.9103C12.8916 11.93 12.8935 11.9469 12.8941 11.9558C12.8952 11.9725 12.8931 11.9853 12.8929 11.9866C12.8924 11.9899 12.8919 11.9922 12.8921 11.9914C12.8923 11.9904 12.8923 11.9906 12.8928 11.9879C12.8932 11.9859 12.8937 11.9833 12.8943 11.9804C12.8993 11.9542 12.9049 11.9129 12.9049 11.8452H12.6049ZM12.8889 12.1227C12.9943 12.1621 13.0602 12.1867 13.0997 12.2015C13.1195 12.2088 13.1326 12.2138 13.1409 12.2168C13.145 12.2184 13.1479 12.2195 13.1497 12.2202C13.1507 12.2205 13.1513 12.2208 13.1518 12.2209C13.152 12.221 13.1522 12.2211 13.1523 12.2211C13.1523 12.2211 13.1524 12.2211 13.1524 12.2211C13.1524 12.2211 13.1524 12.2212 13.1524 12.2212C13.1524 12.2212 13.1524 12.2212 13.1524 12.2212C13.1524 12.2212 13.1524 12.2212 13.1524 12.2212C13.1524 12.2212 13.1524 12.2212 13.1524 12.2212C13.1524 12.2212 13.1524 12.2212 13.2049 12.0807C13.2574 11.9401 13.2574 11.9401 13.2574 11.9401C13.2574 11.9401 13.2574 11.9401 13.2574 11.9401C13.2574 11.9401 13.2575 11.9402 13.2574 11.9401C13.2574 11.9401 13.2574 11.9401 13.2574 11.9401C13.2574 11.9401 13.2573 11.9401 13.2573 11.9401C13.2572 11.94 13.257 11.94 13.2568 11.9399C13.2564 11.9397 13.2557 11.9395 13.2548 11.9391C13.2529 11.9385 13.25 11.9374 13.2459 11.9358C13.2377 11.9328 13.2245 11.9278 13.2047 11.9204C13.1652 11.9057 13.0993 11.881 12.9939 11.8416L12.8889 12.1227ZM13.3448 12.1348C13.3583 12.1001 13.381 12.0487 13.4043 12.0084C13.4162 11.9876 13.4249 11.9758 13.4291 11.9711C13.4312 11.9687 13.4285 11.9724 13.4205 11.9776C13.4133 11.9824 13.3913 11.9952 13.358 11.9952V11.6952C13.3124 11.6952 13.2773 11.7129 13.2564 11.7265C13.2349 11.7406 13.218 11.7571 13.2058 11.7708C13.1814 11.798 13.1607 11.8303 13.1443 11.8586C13.111 11.9164 13.082 11.9828 13.065 12.0265L13.3448 12.1348ZM13.2391 11.9365C13.2626 11.9672 13.2748 12.002 13.2797 12.0351C13.285 12.0698 13.2812 12.0957 13.2798 12.1016L13.5714 12.1724C13.5913 12.0901 13.5963 11.9092 13.477 11.7538L13.2391 11.9365ZM13.2756 12.137C13.2756 12.1586 13.2796 12.176 13.2825 12.1861C13.2838 12.1909 13.2852 12.195 13.2855 12.1961C13.2863 12.1984 13.2855 12.196 13.2847 12.1933C13.2842 12.1915 13.2739 12.1594 13.2847 12.1193C13.2908 12.0967 13.3022 12.0763 13.3174 12.0595C13.3318 12.0438 13.3468 12.0344 13.3573 12.029C13.3677 12.0237 13.3764 12.0209 13.3811 12.0196C13.3861 12.0183 13.3896 12.0176 13.3908 12.0175C13.393 12.0171 13.392 12.0174 13.3854 12.0178C13.3725 12.0185 13.3505 12.0189 13.313 12.0189V12.3189C13.3506 12.3189 13.3802 12.3185 13.4025 12.3173C13.4135 12.3167 13.426 12.3156 13.4384 12.3137C13.4486 12.312 13.4706 12.308 13.4939 12.2961C13.5218 12.2818 13.5598 12.2514 13.5744 12.1973C13.5861 12.154 13.5752 12.1182 13.5735 12.1122C13.565 12.0817 13.5756 12.1158 13.5756 12.137H13.2756ZM13.5949 12.4689L13.7151 12.2482L13.4516 12.1047L13.3315 12.3254L13.5949 12.4689ZM13.7151 12.2482L14.9408 9.99729L14.6773 9.85382L13.4516 12.1047L13.7151 12.2482ZM13.1957 12.2625C13.2222 12.2957 13.2559 12.3331 13.2927 12.3663C13.3271 12.3974 13.3749 12.4347 13.4298 12.4551C13.4582 12.4656 13.4972 12.4749 13.5412 12.4691C13.5889 12.4628 13.6327 12.44 13.6658 12.4028C13.7232 12.3383 13.7334 12.249 13.7334 12.1765H13.4334C13.4334 12.202 13.4311 12.2157 13.4298 12.2211C13.4283 12.227 13.4295 12.217 13.4418 12.2032C13.4566 12.1866 13.4785 12.1747 13.502 12.1716C13.5217 12.169 13.5339 12.1737 13.5342 12.1738C13.535 12.1741 13.5312 12.1727 13.5227 12.1669C13.5146 12.1614 13.5049 12.1537 13.4938 12.1437C13.4715 12.1236 13.4488 12.0987 13.4302 12.0754L13.1957 12.2625ZM13.7763 11.566C13.7763 11.5868 13.7719 11.6023 13.7703 11.6076C13.7682 11.6145 13.7661 11.6196 13.765 11.622C13.7629 11.6268 13.7613 11.6295 13.7617 11.6288C13.7623 11.6278 13.7646 11.6239 13.7699 11.616C13.7799 11.6008 13.7956 11.5784 13.8164 11.5495C13.8578 11.4923 13.9156 11.4149 13.9806 11.3292C14.1104 11.158 14.2665 10.9566 14.3706 10.8234L14.1342 10.6387C14.0296 10.7725 13.8726 10.9752 13.7416 11.1479C13.6762 11.2342 13.6166 11.3138 13.5732 11.3739C13.5517 11.4037 13.5331 11.4301 13.5195 11.4507C13.5129 11.4607 13.5061 11.4714 13.5004 11.4814C13.4977 11.4863 13.4938 11.4935 13.4901 11.502C13.4895 11.5033 13.4763 11.5306 13.4763 11.566H13.7763ZM13.6299 10.7784L13.6985 10.572L13.4138 10.4774L13.3452 10.6837L13.6299 10.7784ZM13.7061 10.5247V10.3277H13.4061V10.5247H13.7061ZM13.428 10.4056L13.6015 10.691L13.8578 10.5351L13.6843 10.2498L13.428 10.4056ZM13.6167 10.5143L12.7834 11.4673L13.0093 11.6648L13.8426 10.7118L13.6167 10.5143ZM12.7677 11.6432L13.0763 12.1578L13.3336 12.0035L13.025 11.4889L12.7677 11.6432ZM13.574 11.524L13.2228 11.4819L13.187 11.7797L13.5382 11.8219L13.574 11.524ZM13.0549 11.6308V12.0807H13.3549V11.6308H13.0549ZM13.7907 11.2447L13.9191 10.9712L13.6475 10.8437L13.5192 11.1172L13.7907 11.2447ZM14.2524 10.581H14.1049V10.881H14.2524V10.581ZM14.1049 10.581H13.4875V10.881H14.1049V10.581ZM13.8555 11.039L14.1771 10.8626L14.0328 10.5995L13.7112 10.7759L13.8555 11.039ZM13.5995 11.2592L13.4689 11.2198L13.3823 11.507L13.5128 11.5464L13.5995 11.2592ZM13.5028 11.2348L13.3901 11.1672L13.2358 11.4245L13.3484 11.492L13.5028 11.2348ZM13.3608 11.438L13.7027 11.3231L13.6071 11.0387L13.2652 11.1537L13.3608 11.438ZM13.5307 10.7919L13.3675 10.927L13.5589 11.1581L13.722 11.023L13.5307 10.7919ZM13.7152 12.0536L13.8615 11.7839L13.5978 11.6409L13.4515 11.9107L13.7152 12.0536ZM13.7615 11.8589L14.1368 11.7774L14.0731 11.4842L13.6978 11.5658L13.7615 11.8589ZM13.3144 11.0616L13.3745 11.5314L13.6721 11.4933L13.612 11.0235L13.3144 11.0616ZM13.3745 11.5314L13.4346 12.0012L13.7321 11.9631L13.6721 11.4933L13.3745 11.5314ZM14.1349 11.4838L13.5532 11.3654L13.4933 11.6593L14.075 11.7778L14.1349 11.4838ZM13.3319 11.7107L13.4399 11.539L13.186 11.3792L13.078 11.5509L13.3319 11.7107ZM13.2766 11.6046L13.3892 11.6327L13.462 11.3417L13.3494 11.3135L13.2766 11.6046ZM13.3648 11.3501L12.6284 11.6766L12.75 11.9508L13.4864 11.6243L13.3648 11.3501Z" fill="#B6B6B6"/>
</svg>
