<svg width="1330" height="930" viewBox="0 0 1330 930" fill="none" xmlns="http://www.w3.org/2000/svg">
<g filter="url(#filter0_d_4819_135)">
<g clip-path="url(#clip0_4819_135)">
<rect x="15" y="11" width="1300" height="900" rx="5" fill="#F9F9F9"/>
<g filter="url(#filter1_d_4819_135)">
<path fill-rule="evenodd" clip-rule="evenodd" d="M682 911C806.563 801.058 885.126 640.204 885.126 461C885.126 281.796 806.563 120.942 682 11H1315.11V911H682Z" fill="url(#paint0_linear_4819_135)"/>
</g>
<path d="M178.84 254V251.975H171.615C171.298 251.975 170.957 252 170.59 252.05C170.24 252.1 169.89 252.175 169.54 252.275L174.665 247.2C175.182 246.683 175.673 246.175 176.14 245.675C176.607 245.158 177.015 244.633 177.365 244.1C177.715 243.55 177.99 242.983 178.19 242.4C178.39 241.817 178.49 241.183 178.49 240.5C178.49 239.683 178.348 238.958 178.065 238.325C177.782 237.692 177.39 237.158 176.89 236.725C176.39 236.275 175.798 235.933 175.115 235.7C174.448 235.467 173.723 235.35 172.94 235.35C172.157 235.35 171.423 235.467 170.74 235.7C170.057 235.917 169.448 236.25 168.915 236.7C168.398 237.133 167.965 237.675 167.615 238.325C167.265 238.958 167.032 239.7 166.915 240.55L169.165 240.925C169.165 240.392 169.257 239.908 169.44 239.475C169.623 239.042 169.873 238.667 170.19 238.35C170.523 238.017 170.915 237.767 171.365 237.6C171.815 237.417 172.298 237.325 172.815 237.325C173.765 237.325 174.557 237.592 175.19 238.125C175.823 238.642 176.157 239.45 176.19 240.55C176.19 241.083 176.107 241.592 175.94 242.075C175.773 242.542 175.54 243.008 175.24 243.475C174.957 243.942 174.607 244.408 174.19 244.875C173.79 245.325 173.348 245.808 172.865 246.325L166.54 252.4V254H178.84ZM194.332 244.875C194.332 243.242 194.157 241.833 193.807 240.65C193.457 239.45 192.982 238.458 192.382 237.675C191.782 236.892 191.074 236.317 190.257 235.95C189.441 235.567 188.557 235.375 187.607 235.375C186.657 235.375 185.774 235.567 184.957 235.95C184.141 236.317 183.424 236.892 182.807 237.675C182.207 238.458 181.732 239.45 181.382 240.65C181.049 241.833 180.882 243.242 180.882 244.875C180.882 246.492 181.049 247.9 181.382 249.1C181.732 250.283 182.207 251.267 182.807 252.05C183.424 252.833 184.141 253.417 184.957 253.8C185.774 254.167 186.657 254.35 187.607 254.35C188.557 254.35 189.441 254.167 190.257 253.8C191.074 253.417 191.782 252.833 192.382 252.05C192.982 251.267 193.457 250.283 193.807 249.1C194.157 247.9 194.332 246.492 194.332 244.875ZM192.032 244.875C192.032 246.292 191.907 247.492 191.657 248.475C191.424 249.442 191.099 250.225 190.682 250.825C190.282 251.425 189.816 251.858 189.282 252.125C188.749 252.375 188.191 252.5 187.607 252.5C187.024 252.5 186.466 252.375 185.932 252.125C185.399 251.858 184.932 251.425 184.532 250.825C184.132 250.225 183.807 249.442 183.557 248.475C183.324 247.492 183.207 246.292 183.207 244.875C183.207 243.442 183.324 242.242 183.557 241.275C183.807 240.292 184.132 239.508 184.532 238.925C184.932 238.325 185.399 237.9 185.932 237.65C186.466 237.383 187.024 237.25 187.607 237.25C188.191 237.25 188.749 237.383 189.282 237.65C189.816 237.9 190.282 238.325 190.682 238.925C191.099 239.508 191.424 240.292 191.657 241.275C191.907 242.242 192.032 243.442 192.032 244.875ZM208.625 254V251.975H201.4C201.083 251.975 200.742 252 200.375 252.05C200.025 252.1 199.675 252.175 199.325 252.275L204.45 247.2C204.967 246.683 205.458 246.175 205.925 245.675C206.392 245.158 206.8 244.633 207.15 244.1C207.5 243.55 207.775 242.983 207.975 242.4C208.175 241.817 208.275 241.183 208.275 240.5C208.275 239.683 208.133 238.958 207.85 238.325C207.567 237.692 207.175 237.158 206.675 236.725C206.175 236.275 205.583 235.933 204.9 235.7C204.233 235.467 203.508 235.35 202.725 235.35C201.942 235.35 201.208 235.467 200.525 235.7C199.842 235.917 199.233 236.25 198.7 236.7C198.183 237.133 197.75 237.675 197.4 238.325C197.05 238.958 196.817 239.7 196.7 240.55L198.95 240.925C198.95 240.392 199.042 239.908 199.225 239.475C199.408 239.042 199.658 238.667 199.975 238.35C200.308 238.017 200.7 237.767 201.15 237.6C201.6 237.417 202.083 237.325 202.6 237.325C203.55 237.325 204.342 237.592 204.975 238.125C205.608 238.642 205.942 239.45 205.975 240.55C205.975 241.083 205.892 241.592 205.725 242.075C205.558 242.542 205.325 243.008 205.025 243.475C204.742 243.942 204.392 244.408 203.975 244.875C203.575 245.325 203.133 245.808 202.65 246.325L196.325 252.4V254H208.625ZM223.518 254V251.975H216.293C215.976 251.975 215.634 252 215.268 252.05C214.918 252.1 214.568 252.175 214.218 252.275L219.343 247.2C219.859 246.683 220.351 246.175 220.818 245.675C221.284 245.158 221.693 244.633 222.043 244.1C222.393 243.55 222.668 242.983 222.868 242.4C223.068 241.817 223.168 241.183 223.168 240.5C223.168 239.683 223.026 238.958 222.743 238.325C222.459 237.692 222.068 237.158 221.568 236.725C221.068 236.275 220.476 235.933 219.793 235.7C219.126 235.467 218.401 235.35 217.618 235.35C216.834 235.35 216.101 235.467 215.418 235.7C214.734 235.917 214.126 236.25 213.593 236.7C213.076 237.133 212.643 237.675 212.293 238.325C211.943 238.958 211.709 239.7 211.593 240.55L213.843 240.925C213.843 240.392 213.934 239.908 214.118 239.475C214.301 239.042 214.551 238.667 214.868 238.35C215.201 238.017 215.593 237.767 216.043 237.6C216.493 237.417 216.976 237.325 217.493 237.325C218.443 237.325 219.234 237.592 219.868 238.125C220.501 238.642 220.834 239.45 220.868 240.55C220.868 241.083 220.784 241.592 220.618 242.075C220.451 242.542 220.218 243.008 219.918 243.475C219.634 243.942 219.284 244.408 218.868 244.875C218.468 245.325 218.026 245.808 217.543 246.325L211.218 252.4V254H223.518Z" fill="#3068D3"/>
<rect x="240" y="242.5" width="6" height="6" rx="3" fill="#3068D3"/>
<path d="M274.206 254V252.15H270.606V235.575H268.781L263.856 239.825L265.081 241.3L268.406 238.325C268.389 238.408 268.381 238.5 268.381 238.6V252.15H264.306V254H274.206ZM277.348 237.45H290.573V235.8H284.973V233.3H282.923V235.8H277.348V237.45ZM294.673 241.325H297.998V239.625H294.673V233.45H292.623V247.45H294.673V241.325ZM289.323 242.675C289.323 242.058 289.19 241.5 288.923 241C288.673 240.5 288.307 240.075 287.823 239.725C287.357 239.358 286.79 239.083 286.123 238.9C285.473 238.7 284.748 238.6 283.948 238.6C283.148 238.6 282.423 238.7 281.773 238.9C281.123 239.083 280.557 239.35 280.073 239.7C279.607 240.05 279.24 240.475 278.973 240.975C278.723 241.475 278.598 242.033 278.598 242.65C278.598 243.267 278.723 243.825 278.973 244.325C279.24 244.825 279.607 245.25 280.073 245.6C280.557 245.95 281.123 246.225 281.773 246.425C282.423 246.608 283.148 246.7 283.948 246.7C284.748 246.7 285.473 246.608 286.123 246.425C286.79 246.225 287.357 245.95 287.823 245.6C288.307 245.25 288.673 244.833 288.923 244.35C289.19 243.85 289.323 243.292 289.323 242.675ZM280.548 242.675C280.548 241.925 280.848 241.325 281.448 240.875C282.065 240.425 282.898 240.2 283.948 240.2C284.998 240.2 285.832 240.425 286.448 240.875C287.065 241.308 287.373 241.9 287.373 242.65C287.373 243.4 287.065 244 286.448 244.45C285.832 244.9 284.998 245.125 283.948 245.125C282.898 245.125 282.065 244.908 281.448 244.475C280.848 244.025 280.548 243.425 280.548 242.675ZM294.673 248.675H280.123V250.35H292.623V255.875H294.673V248.675ZM310.346 242.275H316.671V250.05H318.746V233.45H316.671V236.35H310.346V238H316.671V240.65H310.346V242.275ZM313.196 245.9L312.971 244.2C311.288 244.5 309.696 244.708 308.196 244.825C306.696 244.925 305.171 244.983 303.621 245V235.05H301.571V246.725H303.271C304.921 246.725 306.538 246.675 308.121 246.575C309.705 246.458 311.396 246.233 313.196 245.9ZM319.321 255.35V253.675H306.421V248.625H304.371V255.35H319.321Z" fill="#3068D3"/>
<path d="M187.455 346H193.35L185.25 331.96C187.35 331.3 189.03 330.205 190.29 328.675C191.55 327.145 192.18 325.075 192.18 322.465C192.18 320.665 191.88 319.165 191.28 317.965C190.68 316.735 189.84 315.745 188.76 314.995C187.68 314.245 186.405 313.705 184.935 313.375C183.495 313.045 181.92 312.88 180.21 312.88H169.365V346H174.585V332.635H179.94L187.455 346ZM174.585 328.45V317.065H179.58C182.01 317.065 183.855 317.47 185.115 318.28C186.375 319.06 187.005 320.455 187.005 322.465C187.005 324.475 186.375 325.975 185.115 326.965C183.855 327.955 182.01 328.45 179.58 328.45H174.585ZM198.852 312.88V346H218.922V341.59H204.072V330.88H216.222V326.47H204.072V317.245H218.427V312.88H198.852ZM235.24 346.585C237.04 346.585 238.66 346.33 240.1 345.82C241.54 345.31 242.755 344.62 243.745 343.75C244.765 342.88 245.545 341.86 246.085 340.69C246.625 339.52 246.895 338.275 246.895 336.955C246.895 335.725 246.73 334.66 246.4 333.76C246.07 332.83 245.605 332.005 245.005 331.285C244.405 330.565 243.685 329.95 242.845 329.44C242.035 328.9 241.135 328.42 240.145 328L235.6 326.065C234.94 325.795 234.28 325.525 233.62 325.255C232.99 324.955 232.42 324.61 231.91 324.22C231.43 323.83 231.025 323.395 230.695 322.915C230.395 322.405 230.245 321.79 230.245 321.07C230.245 319.72 230.74 318.67 231.73 317.92C232.75 317.17 234.115 316.795 235.825 316.795C237.295 316.795 238.615 317.065 239.785 317.605C240.955 318.115 242.065 318.835 243.115 319.765L245.86 316.435C244.6 315.145 243.1 314.125 241.36 313.375C239.65 312.625 237.805 312.25 235.825 312.25C234.265 312.25 232.81 312.49 231.46 312.97C230.14 313.42 228.985 314.05 227.995 314.86C227.035 315.67 226.285 316.63 225.745 317.74C225.205 318.85 224.935 320.065 224.935 321.385C224.935 322.585 225.13 323.65 225.52 324.58C225.94 325.51 226.465 326.335 227.095 327.055C227.755 327.745 228.475 328.345 229.255 328.855C230.065 329.335 230.875 329.74 231.685 330.07L236.275 332.05C237.055 332.38 237.76 332.71 238.39 333.04C239.05 333.34 239.62 333.685 240.1 334.075C240.58 334.465 240.94 334.93 241.18 335.47C241.45 335.98 241.585 336.61 241.585 337.36C241.585 338.8 241.045 339.94 239.965 340.78C238.885 341.62 237.34 342.04 235.33 342.04C233.71 342.04 232.135 341.695 230.605 341.005C229.075 340.285 227.71 339.325 226.51 338.125L223.45 341.725C224.98 343.255 226.75 344.455 228.76 345.325C230.8 346.165 232.96 346.585 235.24 346.585ZM265.363 346.585C267.223 346.585 268.903 346.33 270.403 345.82C271.903 345.28 273.193 344.425 274.273 343.255C275.353 342.055 276.178 340.525 276.748 338.665C277.348 336.775 277.648 334.48 277.648 331.78V312.88H272.608V332.14C272.608 334 272.428 335.575 272.068 336.865C271.708 338.125 271.198 339.145 270.538 339.925C269.908 340.675 269.143 341.215 268.243 341.545C267.373 341.875 266.413 342.04 265.363 342.04C264.343 342.04 263.398 341.875 262.528 341.545C261.658 341.215 260.908 340.675 260.278 339.925C259.648 339.145 259.153 338.125 258.793 336.865C258.433 335.575 258.253 334 258.253 332.14V312.88H253.033V331.78C253.033 334.48 253.333 336.775 253.933 338.665C254.533 340.525 255.373 342.055 256.453 343.255C257.533 344.425 258.823 345.28 260.323 345.82C261.853 346.33 263.533 346.585 265.363 346.585ZM286.216 312.88V346H290.896V329.62C290.896 328.87 290.866 328.06 290.806 327.19C290.776 326.32 290.731 325.435 290.671 324.535C290.611 323.605 290.536 322.705 290.446 321.835C290.386 320.935 290.326 320.11 290.266 319.36H290.446L293.056 327.01L298.861 342.805H302.101L307.861 327.01L310.516 319.36H310.696C310.636 320.11 310.561 320.935 310.471 321.835C310.411 322.705 310.336 323.605 310.246 324.535C310.186 325.435 310.126 326.32 310.066 327.19C310.036 328.06 310.021 328.87 310.021 329.62V346H314.881V312.88H308.851L302.866 329.62C302.476 330.73 302.116 331.84 301.786 332.95C301.456 334.06 301.096 335.185 300.706 336.325H300.481C300.091 335.185 299.716 334.06 299.356 332.95C299.026 331.84 298.666 330.73 298.276 329.62L292.201 312.88H286.216ZM323.569 312.88V346H343.639V341.59H328.789V330.88H340.939V326.47H328.789V317.245H343.144V312.88H323.569ZM360.615 312.88V346H371.685C373.545 346 375.24 345.805 376.77 345.415C378.33 345.025 379.665 344.425 380.775 343.615C381.915 342.805 382.8 341.8 383.43 340.6C384.06 339.37 384.375 337.93 384.375 336.28C384.375 334.03 383.76 332.26 382.53 330.97C381.3 329.68 379.74 328.825 377.85 328.405V328.18C379.35 327.67 380.505 326.755 381.315 325.435C382.155 324.085 382.575 322.615 382.575 321.025C382.575 319.525 382.275 318.265 381.675 317.245C381.105 316.195 380.295 315.355 379.245 314.725C378.225 314.065 376.995 313.6 375.555 313.33C374.145 313.03 372.585 312.88 370.875 312.88H360.615ZM370.29 326.695H365.835V316.93H370.425C372.765 316.93 374.52 317.29 375.69 318.01C376.86 318.73 377.445 319.96 377.445 321.7C377.445 323.26 376.875 324.49 375.735 325.39C374.625 326.26 372.81 326.695 370.29 326.695ZM371.1 341.905H365.835V330.655H371.1C373.74 330.655 375.75 331.075 377.13 331.915C378.54 332.755 379.245 334.12 379.245 336.01C379.245 338.08 378.54 339.58 377.13 340.51C375.75 341.44 373.74 341.905 371.1 341.905ZM403.23 346.585C405.36 346.585 407.31 346.195 409.08 345.415C410.85 344.605 412.365 343.45 413.625 341.95C414.915 340.45 415.905 338.635 416.595 336.505C417.315 334.375 417.675 331.975 417.675 329.305C417.675 326.635 417.315 324.25 416.595 322.15C415.905 320.02 414.915 318.235 413.625 316.795C412.365 315.325 410.85 314.2 409.08 313.42C407.31 312.64 405.36 312.25 403.23 312.25C401.1 312.25 399.15 312.64 397.38 313.42C395.61 314.2 394.095 315.325 392.835 316.795C391.575 318.235 390.585 320.02 389.865 322.15C389.175 324.25 388.83 326.635 388.83 329.305C388.83 331.975 389.175 334.375 389.865 336.505C390.585 338.635 391.575 340.45 392.835 341.95C394.095 343.45 395.61 344.605 397.38 345.415C399.15 346.195 401.1 346.585 403.23 346.585ZM403.23 342.04C401.85 342.04 400.605 341.74 399.495 341.14C398.385 340.54 397.44 339.7 396.66 338.62C395.88 337.51 395.265 336.175 394.815 334.615C394.395 333.025 394.185 331.255 394.185 329.305C394.185 327.355 394.395 325.615 394.815 324.085C395.265 322.525 395.88 321.205 396.66 320.125C397.44 319.045 398.385 318.22 399.495 317.65C400.605 317.08 401.85 316.795 403.23 316.795C404.61 316.795 405.855 317.08 406.965 317.65C408.075 318.22 409.02 319.045 409.8 320.125C410.61 321.205 411.225 322.525 411.645 324.085C412.095 325.615 412.32 327.355 412.32 329.305C412.32 331.255 412.095 333.025 411.645 334.615C411.225 336.175 410.61 337.51 409.8 338.62C409.02 339.7 408.075 340.54 406.965 341.14C405.855 341.74 404.61 342.04 403.23 342.04ZM437.155 346.585C439.285 346.585 441.235 346.195 443.005 345.415C444.775 344.605 446.29 343.45 447.55 341.95C448.84 340.45 449.83 338.635 450.52 336.505C451.24 334.375 451.6 331.975 451.6 329.305C451.6 326.635 451.24 324.25 450.52 322.15C449.83 320.02 448.84 318.235 447.55 316.795C446.29 315.325 444.775 314.2 443.005 313.42C441.235 312.64 439.285 312.25 437.155 312.25C435.025 312.25 433.075 312.64 431.305 313.42C429.535 314.2 428.02 315.325 426.76 316.795C425.5 318.235 424.51 320.02 423.79 322.15C423.1 324.25 422.755 326.635 422.755 329.305C422.755 331.975 423.1 334.375 423.79 336.505C424.51 338.635 425.5 340.45 426.76 341.95C428.02 343.45 429.535 344.605 431.305 345.415C433.075 346.195 435.025 346.585 437.155 346.585ZM437.155 342.04C435.775 342.04 434.53 341.74 433.42 341.14C432.31 340.54 431.365 339.7 430.585 338.62C429.805 337.51 429.19 336.175 428.74 334.615C428.32 333.025 428.11 331.255 428.11 329.305C428.11 327.355 428.32 325.615 428.74 324.085C429.19 322.525 429.805 321.205 430.585 320.125C431.365 319.045 432.31 318.22 433.42 317.65C434.53 317.08 435.775 316.795 437.155 316.795C438.535 316.795 439.78 317.08 440.89 317.65C442 318.22 442.945 319.045 443.725 320.125C444.535 321.205 445.15 322.525 445.57 324.085C446.02 325.615 446.245 327.355 446.245 329.305C446.245 331.255 446.02 333.025 445.57 334.615C445.15 336.175 444.535 337.51 443.725 338.62C442.945 339.7 442 340.54 440.89 341.14C439.78 341.74 438.535 342.04 437.155 342.04ZM458.436 312.88V346H463.656V336.01L468.741 329.8L478.101 346H483.906L471.936 325.66L482.196 312.88H476.391L463.791 328.54H463.656V312.88H458.436Z" fill="#3068D3"/>
<rect x="165" y="281" width="200" height="2" rx="1" fill="#A1B5DC"/>
<g clip-path="url(#clip1_4819_135)">
<path d="M599.495 621.968C599.384 621.827 599.273 621.685 599.164 621.543C599.054 621.402 598.945 621.26 598.836 621.117C598.728 620.975 598.62 620.832 598.512 620.689C598.404 620.545 598.297 620.401 598.191 620.257C598.012 616.104 598.009 611.989 598.183 607.91C598.353 603.86 598.695 599.859 599.211 595.906C599.721 591.983 600.396 588.121 601.237 584.319C602.071 580.546 603.065 576.845 604.219 573.215C604.35 572.796 604.484 572.379 604.62 571.964C604.757 571.549 604.896 571.136 605.037 570.726C605.178 570.315 605.321 569.905 605.466 569.497C605.612 569.089 605.76 568.682 605.909 568.277C607.021 565.246 608.244 562.289 609.58 559.406C610.906 556.543 612.338 553.759 613.877 551.055C615.403 548.369 617.031 545.766 618.76 543.246C620.476 540.745 622.288 538.331 624.195 536.005L624.496 535.64L624.797 535.277L625.1 534.916L625.403 534.557L625.622 534.299L625.843 534.042C625.917 533.957 625.991 533.872 626.066 533.788C626.14 533.703 626.216 533.619 626.293 533.537L626.474 533.437L626.654 533.339L626.834 533.241L627.012 533.143L627.023 533.14L627.035 533.134L627.046 533.129L627.057 533.125L627.129 533.085L627.201 533.045L627.27 533.006L627.338 532.966L627.65 532.799L627.96 532.634L628.271 532.47L628.579 532.304L628.344 532.187L627.754 531.893L627.758 531.891C627.808 531.912 627.859 531.935 627.908 531.959C627.958 531.983 628.008 532.007 628.059 532.029C628.109 532.053 628.159 532.076 628.209 532.1C628.258 532.123 628.308 532.147 628.358 532.172L628.415 532.196L628.473 532.221L628.531 532.246C628.551 532.253 628.569 532.263 628.588 532.273C628.604 532.282 628.621 532.289 628.638 532.295L628.689 532.317L628.74 532.339L628.791 532.36C630.94 533.345 633.096 534.346 635.223 535.394C637.35 536.443 639.445 537.536 641.483 538.713C643.515 539.88 645.485 541.153 647.383 542.527C649.277 543.895 651.069 545.397 652.746 547.023C654.515 548.752 656.097 550.662 657.467 552.721C658.821 554.745 659.935 556.92 660.786 559.202C661.604 561.374 662.092 563.656 662.232 565.973C662.368 568.201 662.054 570.434 661.31 572.539C661.21 572.814 661.102 573.084 660.985 573.351C660.869 573.618 660.745 573.881 660.613 574.14C660.481 574.398 660.342 574.652 660.194 574.902C660.047 575.152 659.892 575.397 659.73 575.637C659.662 575.737 659.593 575.837 659.523 575.935C659.452 576.034 659.381 576.131 659.309 576.228C659.236 576.325 659.163 576.421 659.089 576.517C659.014 576.613 658.939 576.708 658.863 576.802C657.456 578.572 655.667 580.001 653.629 580.983C651.581 581.962 649.355 582.514 647.087 582.606C644.704 582.705 642.322 582.359 640.065 581.586C637.645 580.76 635.395 579.498 633.428 577.863C632.748 577.301 632.104 576.698 631.499 576.056C630.899 575.42 630.34 574.748 629.824 574.042C629.312 573.343 628.845 572.613 628.425 571.855C628.009 571.102 627.642 570.324 627.326 569.524C627.178 572.008 627.563 574.496 628.457 576.819C629.4 579.261 630.682 581.559 632.265 583.644C633.936 585.864 635.792 587.94 637.81 589.85C639.842 591.799 642.002 593.625 644.134 595.308C646.266 596.99 648.473 598.711 650.611 600.506C652.746 602.27 654.779 604.155 656.699 606.151C658.561 608.079 660.208 610.205 661.611 612.489C662.99 614.744 663.986 617.211 664.561 619.791C665.176 622.601 665.144 625.514 664.47 628.31C664.142 629.671 663.675 630.994 663.076 632.259C662.472 633.534 661.748 634.749 660.915 635.887L660.837 635.991L660.759 636.095L660.679 636.198L660.598 636.301C658.564 638.959 656.011 641.176 653.094 642.817C651.625 643.642 650.077 644.318 648.474 644.834C646.832 645.363 645.142 645.726 643.428 645.92C640.168 646.221 636.881 646.032 633.676 645.362C630.376 644.671 627.168 643.597 624.116 642.163C620.961 640.687 617.946 638.929 615.106 636.913C612.24 634.885 609.528 632.65 606.989 630.225C606.315 629.583 605.653 628.928 605.003 628.262C604.353 627.595 603.715 626.918 603.09 626.229C602.464 625.54 601.852 624.841 601.253 624.131C600.655 623.421 600.069 622.7 599.495 621.968Z" fill="#F2F2F2"/>
<path d="M651.914 573.858C649.899 572.812 647.961 571.623 646.116 570.301C642.431 567.659 639.138 564.508 636.337 560.943C634.948 559.173 633.69 557.305 632.573 555.353C631.641 553.703 630.813 551.997 630.096 550.244C629.395 548.533 628.805 546.779 628.332 544.992C627.869 543.247 627.524 541.473 627.299 539.681C627.079 537.927 626.982 536.158 627.01 534.39C627.012 534.29 627.015 534.191 627.017 534.093C627.019 533.994 627.021 533.895 627.023 533.796C627.026 533.696 627.03 533.597 627.035 533.5L627.05 533.206C626.965 533.273 626.881 533.341 626.796 533.409L626.544 533.614L626.293 533.82L626.043 534.028L625.882 534.161L625.721 534.295L625.561 534.43L625.402 534.565L625.621 534.308L625.845 534.042C625.919 533.957 625.994 533.872 626.068 533.787C626.143 533.703 626.219 533.619 626.296 533.536L626.477 533.437L626.657 533.339L626.832 533.241L627.011 533.143L627.022 533.14L627.034 533.134L627.045 533.129L627.056 533.125L627.128 533.085L627.2 533.046L627.27 533.006L627.338 532.966L627.649 532.799L627.96 532.634L628.27 532.47L628.58 532.306L628.338 532.185L627.748 531.891L627.752 531.889C627.803 531.91 627.853 531.933 627.903 531.957C627.952 531.981 628.002 532.005 628.053 532.027C628.104 532.051 628.154 532.074 628.203 532.098C628.252 532.121 628.302 532.145 628.352 532.17L628.409 532.194L628.467 532.219L628.525 532.244C628.545 532.251 628.563 532.261 628.581 532.271L628.576 532.365L628.569 532.453L628.564 532.54L628.559 532.629C628.342 535.607 628.497 538.602 629.021 541.542C629.561 544.568 630.446 547.523 631.66 550.347C632.914 553.271 634.481 556.049 636.335 558.635C638.251 561.309 640.445 563.771 642.882 565.981C645.335 568.174 648.01 570.105 650.865 571.742C652.274 572.549 653.726 573.282 655.213 573.936C656.688 574.583 658.197 575.15 659.733 575.634C659.666 575.735 659.597 575.834 659.526 575.932C659.456 576.031 659.385 576.128 659.312 576.225C659.24 576.322 659.166 576.418 659.092 576.514C659.018 576.61 658.943 576.705 658.867 576.8C658.274 576.603 657.685 576.395 657.099 576.173C656.513 575.952 655.929 575.719 655.349 575.473C654.769 575.228 654.193 574.97 653.62 574.7C653.048 574.43 652.479 574.15 651.914 573.858Z" fill="white"/>
<path d="M612.027 596.119C611.368 595.134 610.745 594.131 610.159 593.109C609.574 592.088 609.026 591.052 608.517 590.001C608.008 588.951 607.538 587.888 607.107 586.811C606.676 585.734 606.285 584.648 605.935 583.552C605.757 582.971 605.592 582.388 605.441 581.803C605.29 581.218 605.153 580.632 605.03 580.045C604.908 579.457 604.799 578.869 604.704 578.279C604.609 577.69 604.529 577.1 604.463 576.512C604.43 576.237 604.4 575.963 604.374 575.687C604.347 575.412 604.324 575.137 604.303 574.862C604.283 574.586 604.266 574.311 604.251 574.037C604.237 573.762 604.225 573.488 604.217 573.214C604.348 572.795 604.482 572.379 604.618 571.963C604.755 571.548 604.893 571.135 605.034 570.723C605.175 570.311 605.318 569.901 605.463 569.493C605.609 569.085 605.757 568.679 605.908 568.273C605.875 568.613 605.846 568.953 605.823 569.294C605.8 569.635 605.781 569.977 605.768 570.32C605.754 570.663 605.745 571.007 605.741 571.352C605.737 571.697 605.738 572.043 605.743 572.389C605.742 572.577 605.744 572.766 605.748 572.954C605.752 573.143 605.757 573.332 605.763 573.52C605.77 573.709 605.778 573.898 605.788 574.086C605.798 574.275 605.809 574.464 605.822 574.652C605.967 576.769 606.299 578.869 606.814 580.927C607.336 583.01 608.016 585.051 608.85 587.03C609.699 589.047 610.679 591.007 611.783 592.897C612.905 594.82 614.132 596.68 615.459 598.469C616.886 600.4 618.396 602.279 619.986 604.108C621.577 605.938 623.228 607.717 624.939 609.446C626.652 611.173 628.415 612.847 630.229 614.467C632.042 616.088 633.886 617.652 635.76 619.16C637.679 620.709 639.637 622.199 641.633 623.63C643.63 625.061 645.659 626.429 647.721 627.735C649.782 629.04 651.874 630.282 653.997 631.46C656.12 632.638 658.266 633.748 660.437 634.792C660.537 634.84 660.627 634.907 660.703 634.988C660.777 635.067 660.837 635.159 660.88 635.258C660.923 635.357 660.949 635.462 660.955 635.569C660.962 635.677 660.948 635.785 660.914 635.887C660.902 635.931 660.887 635.975 660.867 636.016C660.848 636.056 660.825 636.094 660.798 636.129C660.771 636.164 660.741 636.196 660.708 636.225C660.674 636.253 660.638 636.278 660.599 636.299C660.559 636.317 660.516 636.331 660.472 636.338C660.428 636.346 660.383 636.349 660.338 636.345C660.292 636.342 660.247 636.334 660.203 636.32C660.158 636.307 660.114 636.288 660.073 636.265C659.805 636.136 659.537 636.007 659.269 635.877C659.001 635.748 658.733 635.617 658.466 635.486C658.199 635.354 657.933 635.222 657.666 635.088C657.4 634.954 657.134 634.819 656.868 634.681C654.656 633.544 652.473 632.34 650.319 631.067C648.165 629.794 646.044 628.455 643.955 627.049C641.867 625.644 639.817 624.175 637.804 622.644C635.791 621.112 633.821 619.52 631.893 617.867C630.031 616.275 628.193 614.629 626.398 612.928C624.604 611.226 622.855 609.47 621.171 607.658C619.486 605.846 617.869 603.979 616.337 602.055C614.805 600.132 613.363 598.154 612.027 596.119Z" fill="white"/>
<path d="M653.709 438.006L652.125 438.212L662.751 398.327C663.535 395.664 663.662 392.85 663.123 390.127C662.655 387.902 661.499 385.881 659.818 384.35C658.057 382.82 655.899 381.818 653.594 381.461C650.785 381.026 647.919 381.155 645.16 381.839V381.839L572.937 398.287C570.416 398.898 568.004 399.891 565.782 401.23C563.366 402.667 561.119 404.37 559.084 406.309C556.989 408.286 555.11 410.478 553.475 412.849C551.879 415.144 550.578 417.631 549.602 420.251V420.251L474.035 628.096C472.779 631.514 471.963 635.077 471.606 638.701C471.275 641.918 471.432 645.166 472.069 648.337C472.602 651.092 473.713 653.702 475.331 655.994C476.814 658.079 478.904 659.655 481.316 660.509V660.509L557.625 686.779C561.014 687.933 564.653 688.15 568.156 687.406C571.9 686.59 575.422 684.968 578.476 682.653C581.906 680.076 584.855 676.916 587.189 673.317C589.774 669.362 591.705 665.017 592.909 660.448V660.448L644.068 468.442L645.673 468.313L653.709 438.006Z" fill="#2F2E41"/>
<path d="M648.19 435.797L646.605 436.003L657.232 396.118C658.015 393.455 658.142 390.641 657.603 387.918C657.136 385.693 655.979 383.672 654.298 382.141C652.537 380.611 650.38 379.609 648.074 379.252C645.266 378.817 642.399 378.946 639.641 379.63L567.418 396.078C564.897 396.689 562.484 397.682 560.263 399.021C557.847 400.458 555.6 402.161 553.564 404.1C551.47 406.077 549.59 408.269 547.956 410.64C546.36 412.935 545.058 415.422 544.083 418.042V418.042L468.516 625.887C467.259 629.305 466.443 632.868 466.087 636.492C465.756 639.709 465.912 642.957 466.55 646.128C467.082 648.883 468.194 651.493 469.811 653.785C471.295 655.87 473.385 657.446 475.797 658.3V658.3L552.105 684.57C555.495 685.724 559.134 685.941 562.636 685.197C566.381 684.381 569.903 682.759 572.957 680.444C576.386 677.867 579.336 674.707 581.669 671.108C584.254 667.153 586.185 662.808 587.389 658.239V658.239L638.548 466.233L640.154 466.104L648.19 435.797Z" fill="#3F3D56"/>
<path d="M639.002 384.834L628.385 387.16C628.501 388.078 628.41 389.011 628.118 389.889C627.787 390.917 627.307 391.89 626.694 392.779C625.313 394.796 623.471 396.453 621.32 397.614C621.063 397.751 620.806 397.878 620.55 397.993C620.294 398.109 620.039 398.215 619.783 398.309C619.528 398.404 619.275 398.487 619.024 398.56C618.772 398.632 618.524 398.693 618.279 398.743L576.77 407.148C576 407.327 575.198 407.318 574.432 407.122C573.815 406.956 573.272 406.59 572.886 406.08C572.498 405.534 572.279 404.885 572.256 404.214C572.224 403.359 572.359 402.506 572.654 401.703C572.728 401.486 572.812 401.268 572.906 401.048C573 400.829 573.103 400.609 573.214 400.389C573.324 400.169 573.445 399.949 573.575 399.73C573.706 399.512 573.844 399.293 573.989 399.075L566.129 400.797C564.236 401.241 562.424 401.974 560.755 402.972C558.931 404.046 557.235 405.324 555.7 406.781C554.118 408.269 552.698 409.922 551.466 411.712C550.264 413.441 549.288 415.316 548.559 417.291L473.134 626.943C472.196 629.519 471.594 632.205 471.342 634.935C471.11 637.345 471.247 639.777 471.749 642.145C472.167 644.192 473.022 646.125 474.254 647.813C475.383 649.343 476.958 650.487 478.762 651.089V651.089L555.632 676.062C558.168 676.876 560.876 676.997 563.475 676.414C566.242 675.78 568.842 674.561 571.098 672.837C573.622 670.926 575.795 668.591 577.52 665.937C579.429 663.021 580.861 659.82 581.763 656.454V656.454L651.998 397.277C652.587 395.299 652.697 393.209 652.317 391.18C651.987 389.517 651.146 387.998 649.911 386.837C648.618 385.675 647.02 384.905 645.306 384.617C643.211 384.265 641.067 384.339 639.002 384.834V384.834Z" fill="white"/>
<path d="M597.778 484.127H444.863V432.309H597.778V484.127Z" fill="white"/>
<path d="M553.072 502.416H403.205V575.063H553.072V502.416Z" fill="white"/>
<path d="M427.551 537.302C433.538 537.302 438.392 532.449 438.392 526.462C438.392 520.475 433.538 515.621 427.551 515.621C421.564 515.621 416.711 520.475 416.711 526.462C416.711 532.449 421.564 537.302 427.551 537.302Z" fill="#5387EC"/>
<path d="M452.588 519.234C452.109 519.234 451.649 519.425 451.31 519.764C450.972 520.102 450.781 520.562 450.781 521.041C450.781 521.52 450.972 521.98 451.31 522.319C451.649 522.657 452.109 522.848 452.588 522.848H537.763C538.241 522.847 538.699 522.656 539.037 522.317C539.375 521.978 539.565 521.52 539.565 521.041C539.565 520.563 539.375 520.104 539.037 519.765C538.699 519.426 538.241 519.236 537.763 519.234H452.588Z" fill="#E6E6E6"/>
<path d="M452.588 530.074C452.351 530.073 452.115 530.119 451.896 530.21C451.676 530.3 451.476 530.432 451.308 530.6C451.14 530.767 451.006 530.966 450.915 531.185C450.823 531.405 450.776 531.64 450.775 531.877C450.775 532.115 450.821 532.35 450.912 532.569C451.002 532.789 451.135 532.988 451.303 533.157C451.47 533.325 451.67 533.458 451.889 533.549C452.108 533.64 452.343 533.687 452.581 533.688H489.239C489.476 533.688 489.711 533.641 489.931 533.55C490.15 533.459 490.349 533.326 490.517 533.159C490.685 532.991 490.818 532.792 490.908 532.572C490.999 532.353 491.046 532.118 491.046 531.881C491.046 531.644 490.999 531.409 490.908 531.19C490.818 530.97 490.685 530.771 490.517 530.603C490.349 530.436 490.15 530.303 489.931 530.212C489.711 530.121 489.476 530.074 489.239 530.074H452.588Z" fill="#E6E6E6"/>
<path d="M419.237 547.406C417.863 547.406 416.744 548.217 416.744 549.213C416.744 550.209 417.863 551.02 419.237 551.02H536.752C538.126 551.02 539.245 550.209 539.245 549.213C539.245 548.217 538.126 547.406 536.752 547.406H419.237Z" fill="#E6E6E6"/>
<path d="M419.237 558.246C417.863 558.246 416.744 559.057 416.744 560.053C416.744 561.049 417.863 561.86 419.237 561.86H509.701C511.076 561.86 512.194 561.049 512.194 560.053C512.194 559.057 511.076 558.246 509.701 558.246H419.237Z" fill="#E6E6E6"/>
<path d="M554.596 576.588H401.682V500.893H554.596V576.588ZM404.73 573.54H551.548V503.941H404.73V573.54Z" fill="#E6E6E6"/>
<path d="M470.735 468.718C476.722 468.718 481.575 463.865 481.575 457.878C481.575 451.891 476.722 447.037 470.735 447.037C464.748 447.037 459.895 451.891 459.895 457.878C459.895 463.865 464.748 468.718 470.735 468.718Z" fill="#5387EC"/>
<path d="M495.77 450.65C495.29 450.65 494.831 450.841 494.492 451.18C494.153 451.518 493.963 451.978 493.963 452.457C493.963 452.936 494.153 453.396 494.492 453.735C494.831 454.074 495.29 454.264 495.77 454.264H580.944C581.423 454.263 581.881 454.072 582.219 453.733C582.557 453.394 582.747 452.936 582.747 452.457C582.747 451.979 582.557 451.52 582.219 451.181C581.881 450.842 581.423 450.652 580.944 450.65H495.77Z" fill="#E6E6E6"/>
<path d="M495.77 461.492C495.532 461.491 495.297 461.537 495.078 461.628C494.858 461.718 494.658 461.85 494.49 462.018C494.321 462.185 494.188 462.384 494.096 462.603C494.005 462.823 493.958 463.058 493.957 463.295C493.957 463.533 494.003 463.768 494.093 463.987C494.184 464.207 494.317 464.406 494.484 464.575C494.652 464.743 494.851 464.876 495.07 464.967C495.29 465.058 495.525 465.105 495.762 465.106H562.783C563.263 465.106 563.722 464.915 564.061 464.576C564.4 464.238 564.59 463.778 564.59 463.299C564.59 462.82 564.4 462.36 564.061 462.021C563.722 461.683 563.263 461.492 562.783 461.492H495.77Z" fill="#E6E6E6"/>
<path d="M597.778 484.127H444.863V432.309H597.778V484.127ZM447.911 481.079H594.73V435.357H447.911V481.079Z" fill="#E6E6E6"/>
<path d="M297.318 681.516H305.026L308.694 651.783L297.316 651.784L297.318 681.516Z" fill="#FFB6B6"/>
<path d="M319.893 688.672L295.666 688.673L295.666 679.313L311.674 679.312C313.854 679.312 315.944 680.178 317.485 681.719C319.026 683.26 319.892 685.35 319.893 687.53L319.893 688.672V688.672Z" fill="#2F2E41"/>
<path d="M220.238 671.525L226.993 675.239L244.532 650.951L234.562 645.471L220.238 671.525Z" fill="#FFB6B6"/>
<path d="M236.572 688.674L215.343 677.002L219.852 668.8L233.88 676.512C235.79 677.562 237.205 679.328 237.813 681.421C238.421 683.514 238.172 685.763 237.122 687.673L236.572 688.674V688.674Z" fill="#2F2E41"/>
<path d="M296.957 665.013C296.27 665.013 295.607 664.762 295.091 664.309C294.576 663.855 294.243 663.229 294.154 662.548L284.514 588.262C284.471 587.933 284.326 587.627 284.099 587.386C283.871 587.145 283.574 586.982 283.248 586.92C282.923 586.858 282.586 586.901 282.286 587.042C281.986 587.183 281.739 587.415 281.579 587.705L241.402 660.597C241.071 661.192 240.537 661.648 239.897 661.883C239.258 662.118 238.555 662.115 237.917 661.876L229.16 658.539C228.808 658.405 228.486 658.202 228.213 657.941C227.941 657.681 227.723 657.369 227.573 657.023C227.422 656.678 227.343 656.306 227.338 655.929C227.334 655.552 227.405 655.178 227.547 654.829L255.378 586.46C255.448 586.286 255.496 586.104 255.52 585.918C259.29 556.742 268.881 541.905 271.73 538.053C271.938 537.769 272.075 537.44 272.13 537.093C272.184 536.746 272.154 536.391 272.042 536.058L271.65 534.882C271.494 534.416 271.462 533.917 271.557 533.434C271.653 532.952 271.873 532.502 272.195 532.13C282.463 520.435 300.361 526.817 300.54 526.882L300.63 526.916L300.686 526.992C320.754 554.514 313.334 643.905 311.643 661.545C311.58 662.208 311.284 662.827 310.809 663.293C310.333 663.759 309.708 664.042 309.044 664.092L297.177 665.005C297.103 665.011 297.03 665.013 296.957 665.013Z" fill="#2F2E41"/>
<path d="M291.516 458.599C300.99 458.599 308.671 450.918 308.671 441.444C308.671 431.97 300.99 424.289 291.516 424.289C282.042 424.289 274.361 431.97 274.361 441.444C274.361 450.918 282.042 458.599 291.516 458.599Z" fill="#FFB8B8"/>
<path d="M264.994 550.603L315.473 555.197C311.072 539.894 307.04 524.645 310.327 509.451C314.5 495.886 314.888 488.372 303.878 481.984L296.445 465.401L282.991 464.911L276.431 463.113C271.131 471.635 268.963 481.736 270.299 491.682C273.151 513.31 272.38 533.38 264.994 550.603Z" fill="#5387EC"/>
<path d="M272.657 474.053L267.58 450.748C266.521 445.231 266.786 439.542 268.356 434.149C268.526 433.596 268.732 433.055 268.972 432.528C270.378 429.465 272.587 426.84 275.366 424.934C278.145 423.027 281.389 421.909 284.753 421.7C296.292 420.903 297.986 422.119 298.403 422.719C304.924 422.456 309.98 424.975 312.287 429.637C312.513 430.1 312.635 430.607 312.644 431.122C312.653 431.636 312.549 432.147 312.339 432.617C312.13 433.088 311.819 433.506 311.43 433.844C311.041 434.181 310.583 434.429 310.088 434.57C306.865 435.5 302.336 436.532 298.939 436.228C292.129 444.396 294.913 459.36 301.821 468.276L302.093 468.626L295.248 470.029L287.294 458.952C287.137 458.733 286.909 458.575 286.648 458.503C286.388 458.432 286.111 458.452 285.864 458.56C285.617 458.669 285.415 458.859 285.291 459.098C285.167 459.338 285.129 459.613 285.183 459.877L287.598 471.609L272.657 474.053Z" fill="#2F2E41"/>
<path d="M643.67 688.854H165V687.65H643.888L643.67 688.854Z" fill="#CACACA"/>
<path d="M370.71 536.805L245.858 625.094L215.939 582.786L340.791 494.496L370.71 536.805Z" fill="white"/>
<path d="M258.086 597.576C262.974 594.119 264.134 587.354 260.678 582.466C257.221 577.577 250.456 576.417 245.568 579.874C240.68 583.331 239.519 590.096 242.976 594.984C246.433 599.872 253.198 601.032 258.086 597.576Z" fill="#5387EC"/>
<path d="M268.096 568.368C267.704 568.645 267.439 569.066 267.358 569.538C267.277 570.01 267.387 570.495 267.664 570.887C267.94 571.278 268.361 571.543 268.833 571.624C269.306 571.705 269.791 571.595 270.182 571.319L339.725 522.141C340.115 521.863 340.379 521.443 340.459 520.971C340.54 520.5 340.43 520.016 340.153 519.625C339.877 519.234 339.457 518.969 338.986 518.888C338.515 518.806 338.03 518.915 337.639 519.19L268.096 568.368Z" fill="#E6E6E6"/>
<path d="M274.353 577.219C273.962 577.495 273.696 577.915 273.614 578.387C273.533 578.859 273.642 579.344 273.917 579.735C274.193 580.127 274.613 580.393 275.084 580.475C275.556 580.557 276.041 580.449 276.433 580.174L276.439 580.169L331.154 541.477C331.546 541.201 331.811 540.78 331.892 540.308C331.973 539.835 331.863 539.35 331.586 538.959C331.449 538.765 331.276 538.6 331.075 538.474C330.874 538.347 330.651 538.261 330.417 538.221C329.944 538.14 329.459 538.25 329.068 538.527L274.353 577.219Z" fill="#E6E6E6"/>
<path d="M370.71 536.805L245.858 625.094L215.939 582.786L340.791 494.496L370.71 536.805ZM246.587 620.846L366.461 536.076L340.062 498.745L220.188 583.515L246.587 620.846Z" fill="#E6E6E6"/>
<path d="M655.795 521.129C656.238 521.112 656.679 521.187 657.091 521.35C657.483 521.507 657.837 521.743 658.133 522.043C658.43 522.345 658.662 522.705 658.814 523.1C658.975 523.519 659.048 523.967 659.03 524.415C659.012 524.875 658.905 525.327 658.715 525.747C658.529 526.158 658.27 526.532 657.95 526.851C657.633 527.168 657.261 527.425 656.852 527.608C656.436 527.795 655.988 527.897 655.533 527.91C655.09 527.923 654.649 527.844 654.238 527.677C653.849 527.518 653.496 527.28 653.203 526.979C652.909 526.676 652.679 526.316 652.529 525.921C652.371 525.504 652.3 525.058 652.32 524.612C652.338 524.154 652.445 523.705 652.634 523.287C652.819 522.88 653.075 522.509 653.391 522.193C653.706 521.877 654.076 521.62 654.482 521.435C654.895 521.248 655.342 521.144 655.795 521.129V521.129Z" fill="#F2F2F2"/>
<path d="M304.781 564.167L296.662 519.783L297.234 492.335L278.936 491.764L282.367 522.642L294.198 565.461C293.216 566.655 292.614 568.115 292.47 569.654C292.327 571.193 292.647 572.74 293.391 574.095C294.135 575.45 295.268 576.551 296.643 577.256C298.019 577.961 299.574 578.237 301.108 578.049C302.643 577.862 304.085 577.219 305.251 576.203C306.416 575.187 307.25 573.846 307.645 572.352C308.04 570.857 307.979 569.279 307.468 567.82C306.958 566.361 306.022 565.088 304.781 564.167H304.781Z" fill="#FFB8B8"/>
<path d="M277.793 494.624C284.423 492.099 291.749 492.099 298.379 494.624L297.235 471.751C297.235 470.549 296.998 469.36 296.539 468.25C296.079 467.139 295.405 466.131 294.555 465.281C293.706 464.432 292.697 463.758 291.587 463.298C290.477 462.838 289.287 462.602 288.086 462.602V462.602C286.884 462.602 285.695 462.838 284.585 463.298C283.475 463.758 282.466 464.432 281.616 465.281C280.767 466.131 280.093 467.139 279.633 468.25C279.173 469.36 278.937 470.549 278.937 471.751L277.793 494.624Z" fill="#5387EC"/>
</g>
</g>
</g>
<defs>
<filter id="filter0_d_4819_135" x="0" y="0" width="1330" height="930" filterUnits="userSpaceOnUse" color-interpolation-filters="sRGB">
<feFlood flood-opacity="0" result="BackgroundImageFix"/>
<feColorMatrix in="SourceAlpha" type="matrix" values="0 0 0 0 0 0 0 0 0 0 0 0 0 0 0 0 0 0 127 0" result="hardAlpha"/>
<feOffset dy="4"/>
<feGaussianBlur stdDeviation="7.5"/>
<feComposite in2="hardAlpha" operator="out"/>
<feColorMatrix type="matrix" values="0 0 0 0 0 0 0 0 0 0 0 0 0 0 0 0 0 0 0.25 0"/>
<feBlend mode="normal" in2="BackgroundImageFix" result="effect1_dropShadow_4819_135"/>
<feBlend mode="normal" in="SourceGraphic" in2="effect1_dropShadow_4819_135" result="shape"/>
</filter>
<filter id="filter1_d_4819_135" x="664.9" y="-2.5" width="660.113" height="927" filterUnits="userSpaceOnUse" color-interpolation-filters="sRGB">
<feFlood flood-opacity="0" result="BackgroundImageFix"/>
<feColorMatrix in="SourceAlpha" type="matrix" values="0 0 0 0 0 0 0 0 0 0 0 0 0 0 0 0 0 0 127 0" result="hardAlpha"/>
<feOffset dx="-3.6"/>
<feGaussianBlur stdDeviation="6.75"/>
<feComposite in2="hardAlpha" operator="out"/>
<feColorMatrix type="matrix" values="0 0 0 0 0 0 0 0 0 0 0 0 0 0 0 0 0 0 0.25 0"/>
<feBlend mode="normal" in2="BackgroundImageFix" result="effect1_dropShadow_4819_135"/>
<feBlend mode="normal" in="SourceGraphic" in2="effect1_dropShadow_4819_135" result="shape"/>
</filter>
<linearGradient id="paint0_linear_4819_135" x1="682" y1="11" x2="1315" y2="911" gradientUnits="userSpaceOnUse">
<stop stop-color="#9ABDFF"/>
<stop offset="1" stop-color="#3068D3"/>
</linearGradient>
<clipPath id="clip0_4819_135">
<rect x="15" y="11" width="1300" height="900" rx="5" fill="white"/>
</clipPath>
<clipPath id="clip1_4819_135">
<rect width="500" height="309.854" fill="white" transform="translate(165 379)"/>
</clipPath>
</defs>
</svg>
