<svg width="1330" height="930" viewBox="0 0 1330 930" fill="none" xmlns="http://www.w3.org/2000/svg">
<g filter="url(#filter0_d_4815_125)">
<g clip-path="url(#clip0_4815_125)">
<rect x="15" y="11" width="1300" height="900" rx="5" fill="#F9F9F9"/>
<g filter="url(#filter1_d_4815_125)">
<path fill-rule="evenodd" clip-rule="evenodd" d="M682 911C806.563 801.058 885.126 640.204 885.126 461C885.126 281.796 806.563 120.942 682 11H1315.11V911H682Z" fill="#5387EC"/>
</g>
<path d="M176.32 470.56V445.08H171.6L162.96 452.52L166.12 456.12L171 451.68L170.84 454.28V470.56H165V475H181.48V470.56H176.32ZM185.548 449H207.228V444.84H199.028V441.4H193.708V444.84H185.548V449ZM214.548 455.44H219.428V451.08H214.548V441.6H209.268V464.68H214.548V455.44ZM205.428 456.92C205.428 455.907 205.201 454.987 204.748 454.16C204.321 453.333 203.708 452.627 202.908 452.04C202.108 451.453 201.148 451 200.028 450.68C198.935 450.333 197.721 450.16 196.388 450.16C195.055 450.16 193.828 450.333 192.708 450.68C191.615 451 190.668 451.453 189.868 452.04C189.068 452.627 188.441 453.333 187.988 454.16C187.561 454.987 187.348 455.907 187.348 456.92C187.348 457.907 187.561 458.827 187.988 459.68C188.441 460.507 189.068 461.227 189.868 461.84C190.668 462.427 191.615 462.893 192.708 463.24C193.828 463.56 195.055 463.72 196.388 463.72C197.721 463.72 198.935 463.56 200.028 463.24C201.148 462.893 202.108 462.427 202.908 461.84C203.708 461.227 204.321 460.507 204.748 459.68C205.201 458.827 205.428 457.907 205.428 456.92ZM192.388 456.92C192.388 455.987 192.748 455.293 193.468 454.84C194.215 454.387 195.188 454.16 196.388 454.16C197.588 454.16 198.548 454.387 199.268 454.84C200.015 455.293 200.388 455.987 200.388 456.92C200.388 457.853 200.015 458.56 199.268 459.04C198.548 459.493 197.588 459.72 196.388 459.72C195.188 459.72 194.215 459.493 193.468 459.04C192.748 458.56 192.388 457.853 192.388 456.92ZM214.548 466.2H189.988V470.44H209.268V478.48H214.548V466.2ZM238.945 456.72H247.865V468.68H253.145V441.6H247.865V445.68H238.945V449.84H247.865V452.56H238.945V456.72ZM243.145 462.76L242.625 458.48C240.358 458.88 238.172 459.16 236.065 459.32C233.985 459.48 231.825 459.587 229.585 459.64V443.92H224.345V463.96H227.305C230.052 463.96 232.692 463.893 235.225 463.76C237.785 463.6 240.425 463.267 243.145 462.76ZM253.985 477.8V473.6H234.145V466.28H228.865V477.8H253.985ZM279.044 444.6C276.298 444.6 273.991 445.333 272.124 446.8C270.284 448.267 269.124 450.533 268.644 453.6L273.884 454.48C273.911 454.08 273.938 453.72 273.964 453.4C274.018 453.08 274.098 452.773 274.204 452.48C274.524 451.6 275.071 450.84 275.844 450.2C276.618 449.533 277.564 449.2 278.684 449.2C279.991 449.2 281.018 449.56 281.764 450.28C282.538 450.973 282.924 452.013 282.924 453.4C282.924 454.947 282.484 456.373 281.604 457.68C280.724 458.987 279.524 460.4 278.004 461.92L267.964 471.8V475H288.804V469.96H279.204C278.751 469.96 278.271 469.987 277.764 470.04C277.284 470.067 276.778 470.147 276.244 470.28L282.444 464.04C283.191 463.267 283.911 462.467 284.604 461.64C285.324 460.813 285.964 459.96 286.524 459.08C287.084 458.2 287.538 457.28 287.884 456.32C288.258 455.333 288.458 454.32 288.484 453.28C288.484 452 288.244 450.827 287.764 449.76C287.311 448.693 286.671 447.787 285.844 447.04C285.018 446.267 284.018 445.667 282.844 445.24C281.698 444.813 280.431 444.6 279.044 444.6ZM325.913 456.32V452H321.033V441.6H315.753V468.72H321.033V456.32H325.913ZM293.113 462.96H310.753V444.24H305.553V449.48H298.313V444.24H293.113V462.96ZM298.313 453.56H305.553V458.8H298.313V453.56ZM322.353 473.6H302.553V466.04H297.273V477.8H322.353V473.6Z" fill="#5387EC"/>
</g>
</g>
<defs>
<filter id="filter0_d_4815_125" x="0" y="0" width="1330" height="930" filterUnits="userSpaceOnUse" color-interpolation-filters="sRGB">
<feFlood flood-opacity="0" result="BackgroundImageFix"/>
<feColorMatrix in="SourceAlpha" type="matrix" values="0 0 0 0 0 0 0 0 0 0 0 0 0 0 0 0 0 0 127 0" result="hardAlpha"/>
<feOffset dy="4"/>
<feGaussianBlur stdDeviation="7.5"/>
<feComposite in2="hardAlpha" operator="out"/>
<feColorMatrix type="matrix" values="0 0 0 0 0 0 0 0 0 0 0 0 0 0 0 0 0 0 0.25 0"/>
<feBlend mode="normal" in2="BackgroundImageFix" result="effect1_dropShadow_4815_125"/>
<feBlend mode="normal" in="SourceGraphic" in2="effect1_dropShadow_4815_125" result="shape"/>
</filter>
<filter id="filter1_d_4815_125" x="664.9" y="-2.5" width="660.113" height="927" filterUnits="userSpaceOnUse" color-interpolation-filters="sRGB">
<feFlood flood-opacity="0" result="BackgroundImageFix"/>
<feColorMatrix in="SourceAlpha" type="matrix" values="0 0 0 0 0 0 0 0 0 0 0 0 0 0 0 0 0 0 127 0" result="hardAlpha"/>
<feOffset dx="-3.6"/>
<feGaussianBlur stdDeviation="6.75"/>
<feComposite in2="hardAlpha" operator="out"/>
<feColorMatrix type="matrix" values="0 0 0 0 0 0 0 0 0 0 0 0 0 0 0 0 0 0 0.25 0"/>
<feBlend mode="normal" in2="BackgroundImageFix" result="effect1_dropShadow_4815_125"/>
<feBlend mode="normal" in="SourceGraphic" in2="effect1_dropShadow_4815_125" result="shape"/>
</filter>
<clipPath id="clip0_4815_125">
<rect x="15" y="11" width="1300" height="900" rx="5" fill="white"/>
</clipPath>
</defs>
</svg>
