<svg width="1330" height="930" viewBox="0 0 1330 930" fill="none" xmlns="http://www.w3.org/2000/svg">
<g filter="url(#filter0_d_4815_104)">
<g clip-path="url(#clip0_4815_104)">
<rect x="15" y="11" width="1300" height="900" rx="5" fill="#F9F9F9"/>
<g filter="url(#filter1_d_4815_104)">
<path fill-rule="evenodd" clip-rule="evenodd" d="M682 911C806.563 801.058 885.126 640.204 885.126 461C885.126 281.796 806.563 120.942 682 11H1315.11V911H682Z" fill="#A1B5DC"/>
</g>
<path d="M181.32 470.56V445.08H176.6L167.96 452.52L171.12 456.12L176 451.68L175.84 454.28V470.56H170V475H186.48V470.56H181.32ZM190.548 449H212.228V444.84H204.028V441.4H198.708V444.84H190.548V449ZM219.548 455.44H224.428V451.08H219.548V441.6H214.268V464.68H219.548V455.44ZM210.428 456.92C210.428 455.907 210.201 454.987 209.748 454.16C209.321 453.333 208.708 452.627 207.908 452.04C207.108 451.453 206.148 451 205.028 450.68C203.935 450.333 202.721 450.16 201.388 450.16C200.055 450.16 198.828 450.333 197.708 450.68C196.615 451 195.668 451.453 194.868 452.04C194.068 452.627 193.441 453.333 192.988 454.16C192.561 454.987 192.348 455.907 192.348 456.92C192.348 457.907 192.561 458.827 192.988 459.68C193.441 460.507 194.068 461.227 194.868 461.84C195.668 462.427 196.615 462.893 197.708 463.24C198.828 463.56 200.055 463.72 201.388 463.72C202.721 463.72 203.935 463.56 205.028 463.24C206.148 462.893 207.108 462.427 207.908 461.84C208.708 461.227 209.321 460.507 209.748 459.68C210.201 458.827 210.428 457.907 210.428 456.92ZM197.388 456.92C197.388 455.987 197.748 455.293 198.468 454.84C199.215 454.387 200.188 454.16 201.388 454.16C202.588 454.16 203.548 454.387 204.268 454.84C205.015 455.293 205.388 455.987 205.388 456.92C205.388 457.853 205.015 458.56 204.268 459.04C203.548 459.493 202.588 459.72 201.388 459.72C200.188 459.72 199.215 459.493 198.468 459.04C197.748 458.56 197.388 457.853 197.388 456.92ZM219.548 466.2H194.988V470.44H214.268V478.48H219.548V466.2ZM243.945 456.72H252.865V468.68H258.145V441.6H252.865V445.68H243.945V449.84H252.865V452.56H243.945V456.72ZM248.145 462.76L247.625 458.48C245.358 458.88 243.172 459.16 241.065 459.32C238.985 459.48 236.825 459.587 234.585 459.64V443.92H229.345V463.96H232.305C235.052 463.96 237.692 463.893 240.225 463.76C242.785 463.6 245.425 463.267 248.145 462.76ZM258.985 477.8V473.6H239.145V466.28H233.865V477.8H258.985ZM287.804 470.56V445.08H283.084L274.444 452.52L277.604 456.12L282.484 451.68L282.324 454.28V470.56H276.484V475H292.964V470.56H287.804ZM330.913 456.32V452H326.033V441.6H320.753V468.72H326.033V456.32H330.913ZM298.113 462.96H315.753V444.24H310.553V449.48H303.313V444.24H298.113V462.96ZM303.313 453.56H310.553V458.8H303.313V453.56ZM327.353 473.6H307.553V466.04H302.273V477.8H327.353V473.6Z" fill="#5387EC"/>
</g>
</g>
<defs>
<filter id="filter0_d_4815_104" x="0" y="0" width="1330" height="930" filterUnits="userSpaceOnUse" color-interpolation-filters="sRGB">
<feFlood flood-opacity="0" result="BackgroundImageFix"/>
<feColorMatrix in="SourceAlpha" type="matrix" values="0 0 0 0 0 0 0 0 0 0 0 0 0 0 0 0 0 0 127 0" result="hardAlpha"/>
<feOffset dy="4"/>
<feGaussianBlur stdDeviation="7.5"/>
<feComposite in2="hardAlpha" operator="out"/>
<feColorMatrix type="matrix" values="0 0 0 0 0 0 0 0 0 0 0 0 0 0 0 0 0 0 0.25 0"/>
<feBlend mode="normal" in2="BackgroundImageFix" result="effect1_dropShadow_4815_104"/>
<feBlend mode="normal" in="SourceGraphic" in2="effect1_dropShadow_4815_104" result="shape"/>
</filter>
<filter id="filter1_d_4815_104" x="664.9" y="-2.5" width="660.113" height="927" filterUnits="userSpaceOnUse" color-interpolation-filters="sRGB">
<feFlood flood-opacity="0" result="BackgroundImageFix"/>
<feColorMatrix in="SourceAlpha" type="matrix" values="0 0 0 0 0 0 0 0 0 0 0 0 0 0 0 0 0 0 127 0" result="hardAlpha"/>
<feOffset dx="-3.6"/>
<feGaussianBlur stdDeviation="6.75"/>
<feComposite in2="hardAlpha" operator="out"/>
<feColorMatrix type="matrix" values="0 0 0 0 0 0 0 0 0 0 0 0 0 0 0 0 0 0 0.25 0"/>
<feBlend mode="normal" in2="BackgroundImageFix" result="effect1_dropShadow_4815_104"/>
<feBlend mode="normal" in="SourceGraphic" in2="effect1_dropShadow_4815_104" result="shape"/>
</filter>
<clipPath id="clip0_4815_104">
<rect x="15" y="11" width="1300" height="900" rx="5" fill="white"/>
</clipPath>
</defs>
</svg>
