<svg width="1330" height="930" viewBox="0 0 1330 930" fill="none" xmlns="http://www.w3.org/2000/svg">
<g filter="url(#filter0_d_4815_118)">
<g clip-path="url(#clip0_4815_118)">
<rect x="15" y="11" width="1300" height="900" rx="5" fill="#F9F9F9"/>
<g filter="url(#filter1_d_4815_118)">
<path fill-rule="evenodd" clip-rule="evenodd" d="M682 911C806.563 801.058 885.126 640.204 885.126 461C885.126 281.796 806.563 120.942 682 11H1315.11V911H682Z" fill="#3068D3"/>
</g>
<path d="M176.32 470.56V445.08H171.6L162.96 452.52L166.12 456.12L171 451.68L170.84 454.28V470.56H165V475H181.48V470.56H176.32ZM185.548 449H207.228V444.84H199.028V441.4H193.708V444.84H185.548V449ZM214.548 455.44H219.428V451.08H214.548V441.6H209.268V464.68H214.548V455.44ZM205.428 456.92C205.428 455.907 205.201 454.987 204.748 454.16C204.321 453.333 203.708 452.627 202.908 452.04C202.108 451.453 201.148 451 200.028 450.68C198.935 450.333 197.721 450.16 196.388 450.16C195.055 450.16 193.828 450.333 192.708 450.68C191.615 451 190.668 451.453 189.868 452.04C189.068 452.627 188.441 453.333 187.988 454.16C187.561 454.987 187.348 455.907 187.348 456.92C187.348 457.907 187.561 458.827 187.988 459.68C188.441 460.507 189.068 461.227 189.868 461.84C190.668 462.427 191.615 462.893 192.708 463.24C193.828 463.56 195.055 463.72 196.388 463.72C197.721 463.72 198.935 463.56 200.028 463.24C201.148 462.893 202.108 462.427 202.908 461.84C203.708 461.227 204.321 460.507 204.748 459.68C205.201 458.827 205.428 457.907 205.428 456.92ZM192.388 456.92C192.388 455.987 192.748 455.293 193.468 454.84C194.215 454.387 195.188 454.16 196.388 454.16C197.588 454.16 198.548 454.387 199.268 454.84C200.015 455.293 200.388 455.987 200.388 456.92C200.388 457.853 200.015 458.56 199.268 459.04C198.548 459.493 197.588 459.72 196.388 459.72C195.188 459.72 194.215 459.493 193.468 459.04C192.748 458.56 192.388 457.853 192.388 456.92ZM214.548 466.2H189.988V470.44H209.268V478.48H214.548V466.2ZM238.945 456.72H247.865V468.68H253.145V441.6H247.865V445.68H238.945V449.84H247.865V452.56H238.945V456.72ZM243.145 462.76L242.625 458.48C240.358 458.88 238.172 459.16 236.065 459.32C233.985 459.48 231.825 459.587 229.585 459.64V443.92H224.345V463.96H227.305C230.052 463.96 232.692 463.893 235.225 463.76C237.785 463.6 240.425 463.267 243.145 462.76ZM253.985 477.8V473.6H234.145V466.28H228.865V477.8H253.985ZM279.244 444.6C276.418 444.6 274.084 445.32 272.244 446.76C270.431 448.2 269.231 450.453 268.644 453.52C269.524 453.653 270.391 453.813 271.244 454C272.124 454.16 272.991 454.307 273.844 454.44C273.978 453.72 274.151 453.053 274.364 452.44C274.604 451.8 274.911 451.253 275.284 450.8C275.684 450.347 276.178 449.987 276.764 449.72C277.351 449.453 278.071 449.32 278.924 449.32C280.231 449.32 281.244 449.667 281.964 450.36C282.711 451.027 283.071 452.053 283.044 453.44C283.044 454.08 282.951 454.667 282.764 455.2C282.578 455.707 282.244 456.16 281.764 456.56C281.284 456.933 280.618 457.227 279.764 457.44C278.938 457.653 277.858 457.773 276.524 457.8V461.8C278.098 461.8 279.338 461.92 280.244 462.16C281.178 462.373 281.884 462.693 282.364 463.12C282.844 463.52 283.151 464.013 283.284 464.6C283.444 465.187 283.524 465.827 283.524 466.52C283.524 467.08 283.418 467.627 283.204 468.16C282.991 468.693 282.658 469.173 282.204 469.6C281.778 470 281.231 470.333 280.564 470.6C279.924 470.84 279.164 470.96 278.284 470.96C277.564 470.96 276.898 470.8 276.284 470.48C275.671 470.16 275.111 469.747 274.604 469.24C274.098 468.707 273.671 468.12 273.324 467.48C272.978 466.84 272.724 466.2 272.564 465.56L267.684 467.48C268.084 468.787 268.578 469.96 269.164 471C269.751 472.013 270.471 472.88 271.324 473.6C272.204 474.293 273.218 474.827 274.364 475.2C275.511 475.573 276.844 475.76 278.364 475.76C279.778 475.76 281.111 475.56 282.364 475.16C283.644 474.76 284.764 474.173 285.724 473.4C286.684 472.6 287.458 471.613 288.044 470.44C288.631 469.267 288.938 467.92 288.964 466.4C288.964 464.64 288.564 463.187 287.764 462.04C286.991 460.867 285.724 459.947 283.964 459.28C285.218 458.667 286.271 457.84 287.124 456.8C288.004 455.733 288.444 454.347 288.444 452.64C288.471 451.52 288.271 450.48 287.844 449.52C287.418 448.56 286.791 447.72 285.964 447C285.164 446.28 284.191 445.707 283.044 445.28C281.924 444.853 280.658 444.627 279.244 444.6ZM325.913 456.32V452H321.033V441.6H315.753V468.72H321.033V456.32H325.913ZM293.113 462.96H310.753V444.24H305.553V449.48H298.313V444.24H293.113V462.96ZM298.313 453.56H305.553V458.8H298.313V453.56ZM322.353 473.6H302.553V466.04H297.273V477.8H322.353V473.6Z" fill="#5387EC"/>
</g>
</g>
<defs>
<filter id="filter0_d_4815_118" x="0" y="0" width="1330" height="930" filterUnits="userSpaceOnUse" color-interpolation-filters="sRGB">
<feFlood flood-opacity="0" result="BackgroundImageFix"/>
<feColorMatrix in="SourceAlpha" type="matrix" values="0 0 0 0 0 0 0 0 0 0 0 0 0 0 0 0 0 0 127 0" result="hardAlpha"/>
<feOffset dy="4"/>
<feGaussianBlur stdDeviation="7.5"/>
<feComposite in2="hardAlpha" operator="out"/>
<feColorMatrix type="matrix" values="0 0 0 0 0 0 0 0 0 0 0 0 0 0 0 0 0 0 0.25 0"/>
<feBlend mode="normal" in2="BackgroundImageFix" result="effect1_dropShadow_4815_118"/>
<feBlend mode="normal" in="SourceGraphic" in2="effect1_dropShadow_4815_118" result="shape"/>
</filter>
<filter id="filter1_d_4815_118" x="664.9" y="-2.5" width="660.113" height="927" filterUnits="userSpaceOnUse" color-interpolation-filters="sRGB">
<feFlood flood-opacity="0" result="BackgroundImageFix"/>
<feColorMatrix in="SourceAlpha" type="matrix" values="0 0 0 0 0 0 0 0 0 0 0 0 0 0 0 0 0 0 127 0" result="hardAlpha"/>
<feOffset dx="-3.6"/>
<feGaussianBlur stdDeviation="6.75"/>
<feComposite in2="hardAlpha" operator="out"/>
<feColorMatrix type="matrix" values="0 0 0 0 0 0 0 0 0 0 0 0 0 0 0 0 0 0 0.25 0"/>
<feBlend mode="normal" in2="BackgroundImageFix" result="effect1_dropShadow_4815_118"/>
<feBlend mode="normal" in="SourceGraphic" in2="effect1_dropShadow_4815_118" result="shape"/>
</filter>
<clipPath id="clip0_4815_118">
<rect x="15" y="11" width="1300" height="900" rx="5" fill="white"/>
</clipPath>
</defs>
</svg>
