<svg width="15" height="17" viewBox="0 0 15 17" fill="none" xmlns="http://www.w3.org/2000/svg">
<rect x="0.969727" y="0.759766" width="6.14099" height="7.29114" rx="0.315701" fill="#5387EC"/>
<g filter="url(#filter0_d_4621_113)">
<path d="M5.006 6.65938C4.962 6.65938 4.93 6.65538 4.91 6.64738C4.894 6.64338 4.876 6.62738 4.856 6.59938L3.938 4.82337H3.254V6.58138C3.254 6.63338 3.228 6.65938 3.176 6.65938H2.642C2.594 6.65938 2.57 6.63338 2.57 6.58138V2.20737C2.57 2.18737 2.576 2.17137 2.588 2.15937C2.604 2.14337 2.622 2.13537 2.642 2.13537H3.854C4.298 2.13537 4.65 2.24337 4.91 2.45937C5.17 2.67537 5.3 3.01137 5.3 3.46737C5.3 3.75937 5.236 4.00737 5.108 4.21137C4.98 4.41137 4.804 4.56337 4.58 4.66737L5.582 6.57538C5.614 6.63138 5.59 6.65938 5.51 6.65938H5.006ZM3.254 2.76537V4.19937H3.746C4.01 4.19937 4.22 4.14337 4.376 4.03137C4.532 3.91537 4.61 3.72537 4.61 3.46137C4.61 3.23337 4.548 3.06137 4.424 2.94537C4.304 2.82537 4.142 2.76537 3.938 2.76537H3.254Z" fill="white"/>
</g>
<rect x="8.8291" y="0.759766" width="6.14099" height="7.29114" rx="0.315701" fill="#5387EC"/>
<g filter="url(#filter1_d_4621_113)">
<path d="M10.75 6.66538C10.67 6.66538 10.622 6.65738 10.606 6.64138C10.59 6.62938 10.582 6.57938 10.582 6.49138V2.29737C10.582 2.21737 10.588 2.17137 10.6 2.15937C10.616 2.14337 10.662 2.13537 10.738 2.13537H12.868C12.912 2.13537 12.938 2.14337 12.946 2.15937C12.954 2.17137 12.958 2.19537 12.958 2.23137V2.67537C12.958 2.71537 12.952 2.74337 12.94 2.75937C12.928 2.77137 12.904 2.77737 12.868 2.77737H11.242V4.00137H12.79C12.85 4.00137 12.88 4.03337 12.88 4.09737V4.54737C12.88 4.61537 12.85 4.64937 12.79 4.64937H11.242V6.01737H12.94C12.996 6.01737 13.024 6.05137 13.024 6.11937V6.56938C13.024 6.63338 12.996 6.66538 12.94 6.66538H10.75Z" fill="white"/>
</g>
<rect x="0.969727" y="9.46875" width="6.14099" height="7.29114" rx="0.315701" fill="#5387EC"/>
<g filter="url(#filter2_d_4621_113)">
<path d="M3.34008 13.5324V15.2904C3.34008 15.3424 3.31408 15.3684 3.26208 15.3684H2.72808C2.68008 15.3684 2.65608 15.3424 2.65608 15.2904V10.9164C2.65608 10.8964 2.66208 10.8804 2.67408 10.8684C2.69008 10.8524 2.70808 10.8444 2.72808 10.8444H3.94008C4.38408 10.8444 4.73408 10.9524 4.99008 11.1684C5.25008 11.3844 5.38008 11.7204 5.38008 12.1764C5.38008 12.3964 5.34208 12.5924 5.26608 12.7644C5.19408 12.9324 5.09008 13.0744 4.95408 13.1904C4.82208 13.3024 4.66408 13.3884 4.48008 13.4484C4.30008 13.5044 4.10208 13.5324 3.88608 13.5324H3.34008ZM3.34008 11.4744V12.9084H3.82608C4.09408 12.9084 4.30608 12.8524 4.46208 12.7404C4.61808 12.6244 4.69608 12.4344 4.69608 12.1704C4.69608 11.9424 4.63408 11.7704 4.51008 11.6544C4.38608 11.5344 4.22408 11.4744 4.02408 11.4744H3.34008Z" fill="white"/>
</g>
<g clip-path="url(#clip0_4621_113)">
<rect x="8.8291" y="9.46875" width="6.14099" height="7.29114" rx="0.315701" fill="#5387EC"/>
<g filter="url(#filter3_d_4621_113)">
<path d="M13.3273 14.7984C13.1473 15.0264 12.9293 15.1944 12.6733 15.3024C12.4213 15.4144 12.1373 15.4704 11.8213 15.4704C11.4693 15.4704 11.1653 15.4064 10.9093 15.2784C10.6573 15.1544 10.4493 14.9844 10.2853 14.7684C10.1253 14.5524 10.0053 14.3024 9.92531 14.0184C9.84931 13.7304 9.81131 13.4264 9.81131 13.1064C9.81131 12.7944 9.85131 12.4964 9.93131 12.2124C10.0113 11.9244 10.1333 11.6724 10.2973 11.4564C10.4613 11.2404 10.6693 11.0684 10.9213 10.9404C11.1733 10.8124 11.4733 10.7484 11.8213 10.7484C12.1613 10.7484 12.4573 10.8144 12.7093 10.9464C12.9613 11.0744 13.1693 11.2464 13.3333 11.4624C13.5013 11.6784 13.6253 11.9284 13.7053 12.2124C13.7893 12.4964 13.8293 12.7944 13.8253 13.1064C13.8213 13.4584 13.7793 13.7764 13.6993 14.0604C13.6193 14.3404 13.4953 14.5864 13.3273 14.7984ZM11.8213 11.3904C11.5893 11.3904 11.3893 11.4424 11.2213 11.5464C11.0573 11.6464 10.9213 11.7784 10.8133 11.9424C10.7093 12.1024 10.6313 12.2864 10.5793 12.4944C10.5313 12.6984 10.5073 12.9024 10.5073 13.1064C10.5073 13.3104 10.5313 13.5164 10.5793 13.7244C10.6313 13.9284 10.7093 14.1124 10.8133 14.2764C10.9213 14.4404 11.0573 14.5744 11.2213 14.6784C11.3893 14.7784 11.5893 14.8284 11.8213 14.8284C12.0533 14.8284 12.2513 14.7784 12.4153 14.6784C12.5833 14.5744 12.7193 14.4404 12.8233 14.2764C12.9273 14.1124 13.0033 13.9284 13.0513 13.7244C13.1033 13.5164 13.1293 13.3104 13.1293 13.1064C13.1293 12.9064 13.1053 12.7044 13.0573 12.5004C13.0093 12.2964 12.9313 12.1124 12.8233 11.9484C12.7193 11.7844 12.5833 11.6504 12.4153 11.5464C12.2513 11.4424 12.0533 11.3904 11.8213 11.3904Z" fill="white"/>
</g>
</g>
<defs>
<filter id="filter0_d_4621_113" x="2.44697" y="2.01142" width="3.79963" height="5.26545" filterUnits="userSpaceOnUse" color-interpolation-filters="sRGB">
<feFlood flood-opacity="0" result="BackgroundImageFix"/>
<feColorMatrix in="SourceAlpha" type="matrix" values="0 0 0 0 0 0 0 0 0 0 0 0 0 0 0 0 0 0 127 0" result="hardAlpha"/>
<feOffset dx="0.246687" dy="0.246687"/>
<feGaussianBlur stdDeviation="0.185015"/>
<feComposite in2="hardAlpha" operator="out"/>
<feColorMatrix type="matrix" values="0 0 0 0 0 0 0 0 0 0 0 0 0 0 0 0 0 0 0.1 0"/>
<feBlend mode="normal" in2="BackgroundImageFix" result="effect1_dropShadow_4621_113"/>
<feBlend mode="normal" in="SourceGraphic" in2="effect1_dropShadow_4621_113" result="shape"/>
</filter>
<filter id="filter1_d_4621_113" x="10.4587" y="2.01142" width="3.18244" height="5.27131" filterUnits="userSpaceOnUse" color-interpolation-filters="sRGB">
<feFlood flood-opacity="0" result="BackgroundImageFix"/>
<feColorMatrix in="SourceAlpha" type="matrix" values="0 0 0 0 0 0 0 0 0 0 0 0 0 0 0 0 0 0 127 0" result="hardAlpha"/>
<feOffset dx="0.246687" dy="0.246687"/>
<feGaussianBlur stdDeviation="0.185015"/>
<feComposite in2="hardAlpha" operator="out"/>
<feColorMatrix type="matrix" values="0 0 0 0 0 0 0 0 0 0 0 0 0 0 0 0 0 0 0.1 0"/>
<feBlend mode="normal" in2="BackgroundImageFix" result="effect1_dropShadow_4621_113"/>
<feBlend mode="normal" in="SourceGraphic" in2="effect1_dropShadow_4621_113" result="shape"/>
</filter>
<filter id="filter2_d_4621_113" x="2.53291" y="10.7204" width="3.46369" height="5.26545" filterUnits="userSpaceOnUse" color-interpolation-filters="sRGB">
<feFlood flood-opacity="0" result="BackgroundImageFix"/>
<feColorMatrix in="SourceAlpha" type="matrix" values="0 0 0 0 0 0 0 0 0 0 0 0 0 0 0 0 0 0 127 0" result="hardAlpha"/>
<feOffset dx="0.246687" dy="0.246687"/>
<feGaussianBlur stdDeviation="0.185015"/>
<feComposite in2="hardAlpha" operator="out"/>
<feColorMatrix type="matrix" values="0 0 0 0 0 0 0 0 0 0 0 0 0 0 0 0 0 0 0.1 0"/>
<feBlend mode="normal" in2="BackgroundImageFix" result="effect1_dropShadow_4621_113"/>
<feBlend mode="normal" in="SourceGraphic" in2="effect1_dropShadow_4621_113" result="shape"/>
</filter>
<filter id="filter3_d_4621_113" x="9.68818" y="10.6247" width="4.75959" height="5.46272" filterUnits="userSpaceOnUse" color-interpolation-filters="sRGB">
<feFlood flood-opacity="0" result="BackgroundImageFix"/>
<feColorMatrix in="SourceAlpha" type="matrix" values="0 0 0 0 0 0 0 0 0 0 0 0 0 0 0 0 0 0 127 0" result="hardAlpha"/>
<feOffset dx="0.246687" dy="0.246687"/>
<feGaussianBlur stdDeviation="0.185015"/>
<feComposite in2="hardAlpha" operator="out"/>
<feColorMatrix type="matrix" values="0 0 0 0 0 0 0 0 0 0 0 0 0 0 0 0 0 0 0.1 0"/>
<feBlend mode="normal" in2="BackgroundImageFix" result="effect1_dropShadow_4621_113"/>
<feBlend mode="normal" in="SourceGraphic" in2="effect1_dropShadow_4621_113" result="shape"/>
</filter>
<clipPath id="clip0_4621_113">
<rect x="8.8291" y="9.46875" width="6.14099" height="7.29114" rx="0.315701" fill="white"/>
</clipPath>
</defs>
</svg>
