<svg width="394" height="250" viewBox="0 0 394 250" fill="none" xmlns="http://www.w3.org/2000/svg">
<path d="M177.133 0.144531H0.108398V93.3039H177.133V0.144531Z" fill="#F2F2F2"/>
<path d="M177.024 0H0V10.7996H177.024V0Z" fill="#E6E6E6"/>
<path d="M173.819 15.1777H4.11133V88.392H173.819V15.1777Z" fill="white"/>
<path d="M16.7753 7.15915C17.7598 7.15915 18.5579 6.35926 18.5579 5.37254C18.5579 4.38583 17.7598 3.58594 16.7753 3.58594C15.7908 3.58594 14.9927 4.38583 14.9927 5.37254C14.9927 6.35926 15.7908 7.15915 16.7753 7.15915Z" fill="white"/>
<path d="M23.5411 7.15915C24.5256 7.15915 25.3237 6.35926 25.3237 5.37254C25.3237 4.38583 24.5256 3.58594 23.5411 3.58594C22.5566 3.58594 21.7585 4.38583 21.7585 5.37254C21.7585 6.35926 22.5566 7.15915 23.5411 7.15915Z" fill="white"/>
<path d="M9.99134 7.15915C10.9758 7.15915 11.7739 6.35926 11.7739 5.37254C11.7739 4.38583 10.9758 3.58594 9.99134 3.58594C9.00684 3.58594 8.20874 4.38583 8.20874 5.37254C8.20874 6.35926 9.00684 7.15915 9.99134 7.15915Z" fill="white"/>
<path d="M139.754 36.6348H42.1667V40.9937H139.754V36.6348Z" fill="#F2F2F2"/>
<path d="M76.9613 47.5312H42.1667V51.8902H76.9613V47.5312Z" fill="#F2F2F2"/>
<path d="M111.484 58.4297H42.1667V62.7886H111.484V58.4297Z" fill="#F2F2F2"/>
<path d="M206.781 122.152H40.1904V209.821H206.781V122.152Z" fill="#F2F2F2"/>
<path d="M206.679 122.018H40.0884V132.181H206.679V122.018Z" fill="#E6E6E6"/>
<path d="M203.663 135.715H43.7031V205.358H203.663V135.715Z" fill="white"/>
<path d="M55.8747 128.753C56.8012 128.753 57.5522 128 57.5522 127.072C57.5522 126.143 56.8012 125.391 55.8747 125.391C54.9483 125.391 54.1973 126.143 54.1973 127.072C54.1973 128 54.9483 128.753 55.8747 128.753Z" fill="white"/>
<path d="M62.2422 128.753C63.1686 128.753 63.9196 128 63.9196 127.072C63.9196 126.143 63.1686 125.391 62.2422 125.391C61.3157 125.391 60.5647 126.143 60.5647 127.072C60.5647 128 61.3157 128.753 62.2422 128.753Z" fill="white"/>
<path d="M49.491 128.753C50.4174 128.753 51.1684 128 51.1684 127.072C51.1684 126.143 50.4174 125.391 49.491 125.391C48.5645 125.391 47.8135 126.143 47.8135 127.072C47.8135 128 48.5645 128.753 49.491 128.753Z" fill="white"/>
<path d="M317.991 38.4199H120.386V142.41H317.991V38.4199Z" fill="#E6E6E6"/>
<path d="M317.87 38.2598H120.265V50.3151H317.87V38.2598Z" fill="#3068D3"/>
<path d="M313.238 54.0176H124.822V136.607H313.238V54.0176Z" fill="white"/>
<path d="M138.99 46.2501C140.089 46.2501 140.98 45.3573 140.98 44.2559C140.98 43.1546 140.089 42.2617 138.99 42.2617C137.892 42.2617 137.001 43.1546 137.001 44.2559C137.001 45.3573 137.892 46.2501 138.99 46.2501Z" fill="white"/>
<path d="M146.543 46.2501C147.642 46.2501 148.533 45.3573 148.533 44.2559C148.533 43.1546 147.642 42.2617 146.543 42.2617C145.444 42.2617 144.553 43.1546 144.553 44.2559C144.553 45.3573 145.444 46.2501 146.543 46.2501Z" fill="white"/>
<path d="M131.418 46.2501C132.517 46.2501 133.408 45.3573 133.408 44.2559C133.408 43.1546 132.517 42.2617 131.418 42.2617C130.319 42.2617 129.428 43.1546 129.428 44.2559C129.428 45.3573 130.319 46.2501 131.418 46.2501Z" fill="white"/>
<path d="M291.361 75.2832H146.895V81.7363H291.361V75.2832Z" fill="#E6E6E6"/>
<path d="M198.404 91.416H146.895V97.8691H198.404V91.416Z" fill="#E6E6E6"/>
<path d="M249.51 107.549H146.895V114.002H249.51V107.549Z" fill="#E6E6E6"/>
<path d="M181.837 156.385H72.9038V161.251H181.837V156.385Z" fill="#F2F2F2"/>
<path d="M111.743 168.549H72.9038V173.415H111.743V168.549Z" fill="#F2F2F2"/>
<path d="M150.28 180.715H72.9038V185.581H150.28V180.715Z" fill="#F2F2F2"/>
<path d="M223.757 39.8281L214.469 44.9848L224.374 41.4839L223.757 39.8281Z" fill="white"/>
<path d="M227.943 44.9042C229.304 44.4611 229.686 41.874 228.795 39.1257C227.904 36.3774 226.079 34.5086 224.718 34.9517C223.357 35.3947 222.976 37.9818 223.866 40.7301C224.757 43.4784 226.582 45.3472 227.943 44.9042Z" fill="#3F3D56"/>
<path d="M226.927 36.9044L233.087 34.6758L234.397 38.3106L228.435 42.3468L226.927 36.9044Z" fill="#3F3D56"/>
<path d="M231.554 38.6896C231.796 39.5346 232.22 40.316 232.797 40.9788C233.373 41.6416 234.087 42.1698 234.889 42.526C235.691 42.8822 236.561 43.0578 237.438 43.0405C238.315 43.0232 239.178 42.8134 239.965 42.4258L255.119 57.4593L257.29 46.57L242.568 33.9633C241.831 32.6808 240.65 31.7139 239.249 31.2459C237.848 30.7778 236.324 30.841 234.967 31.4236C233.609 32.0062 232.512 33.0676 231.883 34.4068C231.254 35.746 231.137 37.2698 231.555 38.6896H231.554Z" fill="#A0616A"/>
<path d="M347.033 133.539C347.612 132.878 348.038 132.098 348.283 131.254C348.528 130.41 348.585 129.522 348.451 128.653C348.317 127.784 347.994 126.956 347.505 126.226C347.017 125.495 346.374 124.881 345.624 124.427L350.054 103.523L339.739 107.577L337.113 126.806C336.435 128.12 336.261 129.639 336.625 131.073C336.99 132.508 337.866 133.758 339.089 134.588C340.312 135.418 341.796 135.77 343.26 135.576C344.724 135.383 346.066 134.658 347.033 133.539L347.033 133.539Z" fill="#A0616A"/>
<path d="M297.114 242.48H289.798L286.318 214.201H297.114L297.114 242.48Z" fill="#A0616A"/>
<path d="M298.979 249.587H275.392V249.288C275.392 248.08 275.629 246.883 276.091 245.767C276.552 244.65 277.228 243.636 278.08 242.782C278.933 241.927 279.945 241.249 281.059 240.787C282.172 240.324 283.366 240.086 284.572 240.086H298.978L298.979 249.587Z" fill="#2F2E41"/>
<path d="M332.912 242.48H325.599L322.118 214.201H332.915L332.912 242.48Z" fill="#A0616A"/>
<path d="M334.779 249.588H311.192V249.289C311.192 248.08 311.43 246.884 311.891 245.768C312.353 244.651 313.029 243.637 313.881 242.783C314.734 241.928 315.746 241.25 316.86 240.788C317.974 240.326 319.167 240.088 320.373 240.088H334.78L334.779 249.588Z" fill="#2F2E41"/>
<path d="M297.876 227.714L287.521 227.298C286.814 227.268 286.148 226.96 285.666 226.442C285.184 225.923 284.925 225.236 284.944 224.527L287.861 128.619L288.052 128.55C306.201 121.97 321.214 122.468 333.952 130.068L334.094 130.153L335.842 223.564C335.848 223.922 335.784 224.277 335.652 224.609C335.52 224.942 335.324 225.245 335.074 225.5C334.824 225.755 334.525 225.958 334.196 226.096C333.867 226.235 333.514 226.306 333.157 226.306H324.427C323.805 226.305 323.202 226.088 322.722 225.692C322.242 225.296 321.913 224.746 321.792 224.134L309.899 163.49C309.858 163.281 309.744 163.093 309.577 162.96C309.41 162.827 309.201 162.759 308.988 162.767C308.775 162.775 308.572 162.858 308.415 163.003C308.258 163.148 308.158 163.344 308.132 163.556L300.648 225.349C300.566 226 300.25 226.6 299.759 227.035C299.269 227.47 298.637 227.712 297.982 227.715C297.946 227.715 297.911 227.715 297.876 227.714Z" fill="#2F2E41"/>
<path d="M314.977 42.7133C322.079 38.8224 324.689 29.898 320.807 22.7801C316.925 15.6622 308.021 13.0463 300.919 16.9372C293.817 20.8282 291.207 29.7526 295.089 36.8704C298.971 43.9883 307.876 46.6042 314.977 42.7133Z" fill="#A0616A"/>
<path d="M242.839 44.4328C243.074 43.9381 243.453 43.5268 243.927 43.2538L248.347 40.7092C248.826 40.4347 249.378 40.3144 249.928 40.3647C250.477 40.4149 250.998 40.6332 251.42 40.99L266.105 53.4583L299.855 62.9422C301.926 63.9235 303.523 65.6876 304.297 67.8477C305.072 70.0077 304.96 72.3873 303.986 74.4648C303.013 76.5422 301.257 78.1479 299.104 78.9298C296.951 79.7116 294.576 79.6058 292.501 78.6355L270.942 73.7694C264.398 72.2939 258.612 68.4864 254.66 63.0551L243.098 47.1717C242.876 46.8661 242.72 46.5172 242.641 46.1474C242.563 45.7777 242.563 45.3955 242.641 45.0257C242.684 44.821 242.75 44.622 242.839 44.4328Z" fill="#3F3D56"/>
<path d="M346.408 120.006C345.893 120.192 345.335 120.216 344.807 120.076L339.882 118.763C339.349 118.62 338.873 118.316 338.518 117.893C338.163 117.47 337.946 116.948 337.897 116.397L336.228 97.181L318.924 66.6292C318.136 64.4696 318.237 62.0849 319.203 59.9995C320.17 57.9142 321.923 56.2991 324.078 55.5096C326.233 54.72 328.612 54.8207 330.693 55.7894C332.773 56.7582 334.385 58.5156 335.173 60.6752L347.066 79.3435C350.676 85.0089 352.11 91.7958 351.101 98.4417L348.153 117.88C348.096 118.253 347.962 118.611 347.758 118.929C347.554 119.247 347.286 119.519 346.97 119.726C346.795 119.841 346.607 119.935 346.409 120.006H346.408Z" fill="#3F3D56"/>
<path d="M291.921 55.9066C294.439 53.14 297.543 50.9751 301.007 49.5716C304.47 48.1682 308.204 47.5619 311.932 47.7977C312.177 47.8129 312.421 47.83 312.664 47.849C316.198 48.129 319.631 49.1619 322.735 50.8788C325.838 52.5956 328.54 54.9568 330.659 57.8044C332.815 60.6916 334.33 64.0066 335.104 67.5278C335.878 71.0491 335.894 74.6954 335.149 78.2231C332.308 91.7047 333.027 105.696 337.236 118.814L341.167 131.049C341.293 131.441 341.328 131.856 341.268 132.264C341.208 132.671 341.056 133.06 340.823 133.399C340.59 133.738 340.283 134.019 339.924 134.221C339.566 134.422 339.166 134.538 338.755 134.56L318.656 135.643L313.513 126.739V135.92L289.085 137.236C289.036 137.239 288.988 137.24 288.94 137.24C288.569 137.239 288.203 137.162 287.863 137.013C287.524 136.864 287.219 136.646 286.967 136.373C286.716 136.1 286.524 135.778 286.403 135.426C286.282 135.075 286.235 134.703 286.265 134.332L289.026 100.017L285.563 76.7111C285.003 72.9876 285.283 69.1855 286.384 65.585C287.484 61.9846 289.377 58.6775 291.922 55.9075L291.921 55.9066Z" fill="#3F3D56"/>
<path d="M318.135 43.8441C316.778 44.6266 311.414 45.1454 311.033 43.624L311.025 43.5905C310.757 42.4744 310.98 41.3137 311.056 40.1682C311.132 39.0226 311.021 37.7682 310.243 36.9275C308.795 35.3601 306.217 36.1909 304.122 35.7945C302.895 35.5201 301.81 34.8069 301.07 33.7885C300.33 32.77 299.985 31.5161 300.101 30.2615C300.13 30.024 300.177 29.7856 300.23 29.5472C300.361 28.9446 300.351 28.3198 300.2 27.7218C300.05 27.1238 299.763 26.5689 299.362 26.1007C298.962 25.6324 298.459 25.2636 297.892 25.0231C297.325 24.7826 296.711 24.677 296.097 24.7146C293.98 24.836 291.694 25.4789 289.943 23.907C288.589 22.6918 288.258 19.528 288.853 17.8065C289.853 14.9132 296.26 13.3985 299.057 12.5659C302.517 11.5641 306.156 11.3475 309.71 11.9319C313.263 12.5163 316.642 13.8871 319.601 15.9445C321.368 17.1945 323.018 18.761 323.771 20.7918C324.524 22.8226 324.161 25.3847 322.463 26.7253C323.779 28.122 324.706 29.841 325.15 31.7098C325.595 33.5786 325.542 35.5318 324.996 37.3735C324.157 40.0824 320.154 42.678 318.135 43.8441Z" fill="#2F2E41"/>
<path d="M393.555 250H223.847C223.729 250 223.616 249.953 223.532 249.87C223.449 249.786 223.402 249.672 223.402 249.554C223.402 249.435 223.449 249.322 223.532 249.238C223.616 249.154 223.729 249.107 223.847 249.107H393.555C393.673 249.107 393.786 249.154 393.87 249.238C393.953 249.322 394 249.435 394 249.554C394 249.672 393.953 249.786 393.87 249.87C393.786 249.953 393.673 250 393.555 250Z" fill="#3F3D56"/>
</svg>
