<svg width="391" height="250" viewBox="0 0 391 250" fill="none" xmlns="http://www.w3.org/2000/svg">
<g clip-path="url(#clip0_314_138)">
<mask id="path-1-inside-1_314_138" fill="white">
<rect x="147.016" width="243.984" height="182.8" rx="1.8"/>
</mask>
<rect x="147.016" width="243.984" height="182.8" rx="1.8" stroke="#E4E4E4" stroke-width="4" mask="url(#path-1-inside-1_314_138)"/>
<path d="M134.68 234.027L122.71 241L134.511 238.143C134.42 239.12 134.296 240.081 134.131 241.021C134.086 241.282 134.036 241.539 133.982 241.795C133.579 243.954 132.848 246.038 131.815 247.974C131.617 248.33 131.419 248.678 131.213 249.014C131.015 249.353 130.808 249.68 130.598 249.999H98.8678C98.6036 249.68 98.3518 249.349 98.1207 249.014C95.8581 245.819 94.9416 241.858 95.5697 237.99C95.685 237.203 95.8505 236.424 96.0651 235.658C96.273 234.876 96.5252 234.105 96.8204 233.352C97.3358 232.02 97.9441 230.726 98.6408 229.48C100.094 226.854 102.36 224.485 105.031 222.382C106.324 221.369 107.671 220.429 109.067 219.566C109.332 219.396 109.6 219.23 109.872 219.069C110.289 218.82 110.706 218.576 111.127 218.34C111.965 217.859 112.811 217.404 113.657 216.973C113.88 216.857 114.099 216.745 114.318 216.638C116.155 215.718 117.983 214.894 119.725 214.17C119.944 214.078 120.167 213.987 120.386 213.9C123.851 212.478 127.396 211.26 131.002 210.252C131.002 210.252 131.015 210.285 131.035 210.355C131.089 210.546 131.225 211.006 131.411 211.685C131.927 213.569 132.835 217.164 133.566 221.504C133.607 221.74 133.644 221.98 133.685 222.22C134.296 225.891 134.634 229.602 134.697 233.323C134.701 233.554 134.701 233.782 134.701 234.014L134.68 234.027Z" fill="#F2F2F2"/>
<path d="M131.877 209.831C131.873 209.844 131.832 210.047 131.737 210.419C131.659 210.73 131.551 211.156 131.411 211.686C130.928 213.538 130.069 216.639 128.848 220.375C128.777 220.59 128.703 220.814 128.629 221.037C127.778 223.592 126.767 226.417 125.599 229.32C125.306 230.049 125.013 230.765 124.712 231.465C124.621 231.684 124.53 231.9 124.435 232.111C123.155 235.084 121.839 237.805 120.485 240.273L120.142 240.89C118.568 243.754 116.747 246.472 114.698 249.015C114.421 249.355 114.14 249.682 113.856 250.001H112.898C113.187 249.682 113.476 249.351 113.757 249.015C115.923 246.384 117.84 243.556 119.482 240.567C119.597 240.364 119.713 240.161 119.824 239.954C121.281 237.3 122.606 234.525 123.791 231.775C123.886 231.564 123.977 231.349 124.068 231.129C125.616 227.493 126.916 223.92 127.964 220.772C128.038 220.549 128.113 220.325 128.183 220.106C129.71 215.459 130.668 211.815 131.035 210.357C131.085 210.142 131.126 209.972 131.155 209.856C131.184 209.748 131.196 209.686 131.2 209.674L131.535 209.753H131.539L131.877 209.831Z" fill="white"/>
<path d="M134.197 221.558C133.986 221.546 133.776 221.525 133.565 221.504C131.95 221.336 130.364 220.956 128.847 220.374C128.629 220.287 128.406 220.2 128.183 220.104C127.579 219.844 126.989 219.552 126.416 219.231C124.044 217.914 121.987 216.095 120.385 213.901C120.332 213.83 120.278 213.756 120.229 213.686C120.014 213.777 119.795 213.868 119.572 213.959C119.622 214.029 119.671 214.1 119.725 214.17C121.396 216.512 123.566 218.45 126.078 219.844C126.69 220.186 127.319 220.495 127.964 220.771C128.183 220.862 128.406 220.953 128.629 221.036C130.253 221.657 131.954 222.055 133.685 222.221C133.891 222.241 134.102 222.258 134.308 222.27C134.271 222.026 134.234 221.79 134.197 221.558Z" fill="white"/>
<path d="M134.698 233.324C131.263 233.639 127.807 232.995 124.713 231.465C124.495 231.361 124.28 231.249 124.069 231.129C124.003 231.099 123.938 231.064 123.875 231.026C121.256 229.565 119.021 227.497 117.359 224.995C115.697 222.492 114.655 219.627 114.32 216.639C114.311 216.569 114.303 216.494 114.295 216.424C114.072 216.54 113.849 216.652 113.63 216.768C113.639 216.838 113.647 216.904 113.659 216.975C114.041 220.026 115.134 222.944 116.85 225.492C118.566 228.04 120.857 230.146 123.537 231.639C123.619 231.684 123.706 231.734 123.793 231.775C124.008 231.891 124.222 232.003 124.437 232.111C127.614 233.674 131.156 234.337 134.682 234.028C134.868 234.012 135.053 233.991 135.239 233.97C135.239 233.734 135.243 233.502 135.243 233.266C135.06 233.287 134.878 233.307 134.698 233.324Z" fill="white"/>
<path d="M134.131 241.022C130.415 242.246 126.411 242.276 122.676 241.109C121.929 240.878 121.197 240.598 120.485 240.273C120.262 240.173 120.043 240.066 119.824 239.954C119.589 239.838 119.358 239.714 119.131 239.59C116.043 237.865 113.501 235.305 111.794 232.201C110.087 229.097 109.284 225.575 109.476 222.035C109.526 221.037 109.659 220.046 109.872 219.07C109.885 219.004 109.897 218.937 109.913 218.871C109.641 219.041 109.369 219.211 109.1 219.385C109.088 219.447 109.076 219.505 109.067 219.567C108.825 220.904 108.724 222.263 108.766 223.621C108.857 227.02 109.829 230.336 111.587 233.242C113.344 236.149 115.826 238.547 118.788 240.198C119.019 240.327 119.25 240.451 119.482 240.567C119.7 240.679 119.923 240.786 120.142 240.89C124.488 242.886 129.414 243.209 133.982 241.797C134.135 241.755 134.288 241.706 134.44 241.656C134.502 241.391 134.556 241.126 134.606 240.861C134.451 240.919 134.292 240.973 134.131 241.022Z" fill="white"/>
<path d="M105.773 102.088H82.6577V125.279H105.773V102.088Z" fill="#9E616A"/>
<path d="M68.242 240.692H72.7966L74.9628 223.068H68.2412L68.242 240.692Z" fill="#9E616A"/>
<path d="M80.7427 245.841L73.8989 241.099V238.006L73.1229 238.051L68.2439 238.345L66.7001 238.437L65.8209 249.013L65.792 249.365H69.024L69.0901 249.013L69.6019 246.305L70.9104 249.013L71.0796 249.365H79.6488C80.0599 249.366 80.4605 249.234 80.7917 248.99C81.123 248.745 81.3676 248.401 81.4899 248.007C81.6121 247.614 81.6055 247.191 81.4711 246.801C81.3366 246.411 81.0814 246.075 80.7427 245.841Z" fill="#2F2E41"/>
<path d="M94.8774 237.791L99.2528 239.053L106.191 222.717L99.7308 220.854L94.8774 237.791Z" fill="#9E616A"/>
<path d="M105.472 246.213L100.201 239.756L101.055 236.783L100.296 236.613L96.0649 235.661L95.5241 235.541L94.0175 235.201L90.1333 245.451L93.2374 246.349L94.6367 243.566L95.2104 246.917L97.167 247.48L102.488 249.016L103.449 249.294C103.844 249.408 104.265 249.393 104.651 249.251C105.037 249.108 105.367 248.845 105.593 248.501C105.819 248.157 105.929 247.749 105.907 247.337C105.886 246.925 105.733 246.531 105.472 246.213Z" fill="#2F2E41"/>
<path d="M389.648 0H148.401C148.042 0.00109613 147.699 0.144687 147.446 0.399302C147.193 0.653916 147.051 0.998782 147.051 1.35831V9.33012C147.051 9.68965 147.193 10.0345 147.446 10.2891C147.699 10.5437 148.042 10.6873 148.401 10.6884H389.65C390.009 10.6873 390.352 10.5437 390.605 10.2891C390.858 10.0345 391 9.68965 391 9.33012V1.35831C391 0.998424 390.858 0.653249 390.604 0.398575C390.351 0.143901 390.007 0.000548611 389.648 0Z" fill="#E4E4E4"/>
<path d="M154.893 6.87896C155.953 6.87896 156.812 6.01718 156.812 4.95413C156.812 3.89107 155.953 3.0293 154.893 3.0293C153.834 3.0293 152.975 3.89107 152.975 4.95413C152.975 6.01718 153.834 6.87896 154.893 6.87896Z" fill="white"/>
<path d="M162.175 6.87896C163.234 6.87896 164.093 6.01718 164.093 4.95413C164.093 3.89107 163.234 3.0293 162.175 3.0293C161.115 3.0293 160.256 3.89107 160.256 4.95413C160.256 6.01718 161.115 6.87896 162.175 6.87896Z" fill="white"/>
<path d="M169.457 6.87896C170.517 6.87896 171.376 6.01718 171.376 4.95413C171.376 3.89107 170.517 3.0293 169.457 3.0293C168.398 3.0293 167.539 3.89107 167.539 4.95413C167.539 6.01718 168.398 6.87896 169.457 6.87896Z" fill="white"/>
<path d="M382.511 2.38477H374.128C373.963 2.38477 373.805 2.45043 373.689 2.56731C373.572 2.6842 373.507 2.84272 373.507 3.00802C373.507 3.17331 373.572 3.33184 373.689 3.44872C373.805 3.5656 373.963 3.63127 374.128 3.63127H382.511C382.676 3.63127 382.834 3.5656 382.951 3.44872C383.067 3.33184 383.133 3.17331 383.133 3.00802C383.133 2.84272 383.067 2.6842 382.951 2.56731C382.834 2.45043 382.676 2.38477 382.511 2.38477Z" fill="white"/>
<path d="M382.511 4.7207H374.128C373.963 4.7207 373.805 4.78637 373.689 4.90325C373.572 5.02013 373.507 5.17866 373.507 5.34396C373.507 5.50925 373.572 5.66778 373.689 5.78466C373.805 5.90154 373.963 5.96721 374.128 5.96721H382.511C382.676 5.96721 382.834 5.90154 382.951 5.78466C383.067 5.66778 383.133 5.50925 383.133 5.34396C383.133 5.17866 383.067 5.02013 382.951 4.90325C382.834 4.78637 382.676 4.7207 382.511 4.7207Z" fill="white"/>
<path d="M382.511 7.05859H374.128C373.963 7.05859 373.805 7.12426 373.689 7.24114C373.572 7.35802 373.507 7.51655 373.507 7.68185C373.507 7.84714 373.572 8.00567 373.689 8.12255C373.805 8.23943 373.963 8.3051 374.128 8.3051H382.511C382.676 8.3051 382.834 8.23943 382.951 8.12255C383.067 8.00567 383.133 7.84714 383.133 7.68185C383.133 7.51655 383.067 7.35802 382.951 7.24114C382.834 7.12426 382.676 7.05859 382.511 7.05859Z" fill="white"/>
<path d="M381.558 33.7461H319.054C318.618 33.7472 318.201 33.9212 317.893 34.23C317.585 34.5389 317.412 34.9575 317.411 35.3943V60.842C317.412 61.2788 317.585 61.6973 317.893 62.0062C318.201 62.3151 318.618 62.4891 319.054 62.4902H381.56C381.995 62.4897 382.413 62.3159 382.721 62.0069C383.029 61.6979 383.202 61.279 383.203 60.842V35.3943C383.202 34.9569 383.029 34.5377 382.72 34.2286C382.412 33.9195 381.994 33.746 381.558 33.7461Z" fill="#E4E4E4"/>
<path d="M375.606 70.7405H325.006C324.483 70.7405 323.982 70.9488 323.612 71.3197C323.242 71.6905 323.035 72.1935 323.035 72.7179C323.035 73.2424 323.242 73.7453 323.612 74.1162C323.982 74.487 324.483 74.6953 325.006 74.6953H375.606C378.177 74.7326 378.152 70.7032 375.606 70.7405Z" fill="#E4E4E4"/>
<path d="M375.606 79.8049H325.006C324.483 79.8049 323.982 80.0133 323.612 80.3841C323.242 80.755 323.035 81.2579 323.035 81.7824C323.035 82.3068 323.242 82.8098 323.612 83.1806C323.982 83.5515 324.483 83.7598 325.006 83.7598H375.606C378.177 83.7971 378.152 79.7677 375.606 79.8049Z" fill="#E4E4E4"/>
<path d="M375.606 88.8694H325.006C324.483 88.8694 323.982 89.0777 323.612 89.4486C323.242 89.8194 323.035 90.3224 323.035 90.8468C323.035 91.3713 323.242 91.8742 323.612 92.2451C323.982 92.6159 324.483 92.8242 325.006 92.8242H375.606C378.177 92.8615 378.152 88.8321 375.606 88.8694Z" fill="#E4E4E4"/>
<path d="M299.418 33.7461H236.911C236.476 33.7472 236.059 33.9212 235.751 34.23C235.443 34.5389 235.27 34.9575 235.269 35.3943V60.842C235.27 61.2788 235.443 61.6973 235.751 62.0062C236.059 62.3151 236.476 62.4891 236.911 62.4902H299.418C299.853 62.4897 300.271 62.3159 300.579 62.0069C300.887 61.6979 301.06 61.279 301.061 60.842V35.3943C301.06 34.9573 300.887 34.5383 300.579 34.2293C300.271 33.9203 299.853 33.7465 299.418 33.7461Z" fill="#E4E4E4"/>
<path d="M293.466 70.7405H242.864C242.341 70.7405 241.84 70.9488 241.47 71.3197C241.1 71.6905 240.893 72.1935 240.893 72.7179C240.893 73.2424 241.1 73.7453 241.47 74.1162C241.84 74.487 242.341 74.6953 242.864 74.6953H293.466C296.033 74.7326 296.008 70.7032 293.466 70.7405Z" fill="#E4E4E4"/>
<path d="M293.466 79.8049H242.864C242.341 79.8049 241.84 80.0133 241.47 80.3841C241.1 80.755 240.893 81.2579 240.893 81.7824C240.893 82.3068 241.1 82.8098 241.47 83.1806C241.84 83.5515 242.341 83.7598 242.864 83.7598H293.466C296.033 83.7971 296.008 79.7677 293.466 79.8049Z" fill="#E4E4E4"/>
<path d="M293.466 88.8694H242.864C242.341 88.8694 241.84 89.0777 241.47 89.4486C241.1 89.8194 240.893 90.3224 240.893 90.8468C240.893 91.3713 241.1 91.8742 241.47 92.2451C241.84 92.6159 242.341 92.8242 242.864 92.8242H293.466C296.033 92.8615 296.008 88.8321 293.466 88.8694Z" fill="#E4E4E4"/>
<path d="M142.683 81.8738C142.603 82.1093 142.545 82.3514 142.508 82.5973L116.916 78.0585L94.8707 66.1319C93.4839 65.3799 91.8643 65.1839 90.339 65.5834C88.8136 65.9828 87.4962 66.948 86.6527 68.2841C85.8091 69.6202 85.5023 71.2277 85.7941 72.7819C86.086 74.3362 86.9548 75.7214 88.2251 76.658C92.3371 79.6952 96.896 82.0704 101.738 83.698L117.72 89.0692L145.715 87.269C146.493 87.4376 147.302 87.3771 148.047 87.0949C148.791 86.8126 149.438 86.3205 149.91 85.6779C150.382 85.0353 150.659 84.2695 150.707 83.4728C150.755 82.676 150.573 81.8823 150.182 81.187C149.791 80.4917 149.209 79.9245 148.504 79.5538C147.799 79.1831 147.003 79.0245 146.211 79.0973C145.418 79.17 144.664 79.471 144.038 79.9638C143.412 80.4567 142.942 81.1206 142.683 81.8755L142.683 81.8738Z" fill="#9E616A"/>
<path d="M205.636 81.9551H125.962C125.406 81.9558 124.873 82.1777 124.48 82.5721C124.087 82.9665 123.866 83.5011 123.865 84.0588V116.489C123.866 117.046 124.087 117.581 124.48 117.975C124.873 118.37 125.406 118.591 125.962 118.592H205.636C206.191 118.591 206.723 118.368 207.115 117.974C207.507 117.58 207.728 117.046 207.729 116.489V84.0588C207.728 83.5018 207.507 82.9676 207.115 82.5733C206.723 82.179 206.191 81.9567 205.636 81.9551Z" fill="#3068D3"/>
<path d="M198.049 129.106H133.549C132.882 129.106 132.243 129.372 131.771 129.844C131.3 130.317 131.035 130.959 131.035 131.628C131.035 132.297 131.3 132.938 131.771 133.411C132.243 133.884 132.882 134.15 133.549 134.15H198.049C201.32 134.193 201.289 129.058 198.049 129.106Z" fill="#3068D3"/>
<path d="M198.049 140.66H133.549C132.882 140.66 132.243 140.926 131.771 141.399C131.3 141.872 131.035 142.514 131.035 143.182C131.035 143.851 131.3 144.493 131.771 144.966C132.243 145.439 132.882 145.704 133.549 145.704H198.049C201.32 145.75 201.289 140.613 198.049 140.66Z" fill="#3068D3"/>
<rect x="131.376" y="98.0684" width="31.28" height="4.70731" rx="2.35366" fill="white"/>
<rect x="131.376" y="89.4395" width="46.92" height="4.7073" rx="2.35365" fill="white"/>
<rect x="131.376" y="106.699" width="39.1" height="4.7073" rx="2.35365" fill="white"/>
<path d="M198.049 152.217H133.549C133.219 152.217 132.892 152.282 132.588 152.409C132.283 152.536 132.006 152.721 131.773 152.955C131.54 153.189 131.355 153.467 131.228 153.773C131.102 154.078 131.037 154.406 131.037 154.737C131.037 155.068 131.102 155.396 131.228 155.701C131.355 156.007 131.54 156.285 131.773 156.519C132.006 156.753 132.283 156.939 132.588 157.065C132.892 157.192 133.219 157.257 133.549 157.257H198.049C201.32 157.303 201.289 152.172 198.049 152.217Z" fill="#3068D3"/>
<path d="M106.233 54.6211C109.484 48.6549 107.298 41.1745 101.352 37.9131C95.4049 34.6518 87.9488 36.8444 84.6981 42.8106C81.4473 48.7768 83.6328 56.2571 89.5796 59.5185C95.5264 62.7799 102.982 60.5872 106.233 54.6211Z" fill="#9E616A"/>
<path d="M97.5179 33.7598H89.5926C84.3958 33.7598 80.1814 38.5147 80.1814 44.3803C76.26 48.3306 77.4369 53.2793 80.5483 58.607C86.1635 59.3078 91.6557 60.7816 96.8698 62.9867L97.6095 59.817L99.0691 63.9918C100.367 64.6226 101.654 65.3128 102.93 66.0624C101.441 59.0426 100.828 52.039 101.85 46.5987H104.533V43.651L105.445 46.5987H110.312C110.312 43.194 108.964 39.9286 106.564 37.5211C104.165 35.1135 100.91 33.761 97.5162 33.761L97.5179 33.7598Z" fill="#2F2E41"/>
<path d="M96.6922 64.4034L81.8509 63.7578L81.4518 65.2793C78.168 77.7949 77.6608 90.8807 79.9658 103.614C80.4066 104.031 80.7287 104.557 80.8989 105.14C81.069 105.723 81.0811 106.341 80.9337 106.93L80.7203 107.783L80.7402 107.814C81.4392 108.921 81.6764 110.26 81.4006 111.541L82.1436 115.641L106.186 104.985L111.552 86.3493L96.6922 64.4034Z" fill="#CACACA"/>
<path d="M133.473 103.68C133.307 103.864 133.157 104.063 133.026 104.274L111.355 89.8801L95.8706 70.1283C94.8966 68.8859 93.4892 68.0603 91.9324 67.818C90.3755 67.5757 88.785 67.9346 87.4816 68.8225C86.1781 69.7104 85.2588 71.0611 84.9089 72.6022C84.559 74.1433 84.8046 75.7603 85.5962 77.1269C88.1622 81.5561 91.4011 85.5566 95.1961 88.9844L107.722 100.299L134.114 109.839C134.76 110.304 135.527 110.572 136.321 110.611C137.116 110.649 137.905 110.457 138.593 110.056C139.281 109.655 139.839 109.064 140.2 108.352C140.561 107.641 140.709 106.84 140.626 106.046C140.544 105.252 140.235 104.499 139.736 103.877C139.237 103.255 138.569 102.792 137.813 102.542C137.058 102.292 136.246 102.266 135.477 102.468C134.707 102.67 134.012 103.091 133.475 103.68H133.473Z" fill="#9E616A"/>
<path d="M188.422 60.0397C186.076 60.0397 183.783 59.3418 181.832 58.0342C179.882 56.7267 178.362 54.8682 177.464 52.6938C176.566 50.5194 176.331 48.1268 176.789 45.8184C177.247 43.5101 178.376 41.3898 180.035 39.7256C181.694 38.0614 183.807 36.928 186.108 36.4689C188.409 36.0097 190.794 36.2454 192.961 37.1461C195.128 38.0467 196.981 39.5719 198.284 41.5288C199.588 43.4857 200.283 45.7864 200.283 48.14C200.283 51.296 199.033 54.3227 196.809 56.5544C194.585 58.786 191.568 60.0397 188.422 60.0397Z" fill="#E4E4E4"/>
<path d="M193.103 46.9661H189.594V43.4461C189.597 43.2901 189.569 43.1351 189.511 42.9901C189.454 42.8451 189.368 42.7131 189.259 42.6017C189.15 42.4903 189.02 42.4019 188.877 42.3415C188.733 42.2811 188.58 42.25 188.424 42.25C188.268 42.25 188.115 42.2811 187.971 42.3415C187.828 42.4019 187.698 42.4903 187.589 42.6017C187.48 42.7131 187.394 42.8451 187.337 42.9901C187.279 43.1351 187.251 43.2901 187.254 43.4461V46.9661H183.745C183.59 46.9632 183.435 46.9914 183.291 47.049C183.146 47.1067 183.015 47.1927 182.904 47.302C182.793 47.4113 182.705 47.5417 182.644 47.6856C182.584 47.8294 182.553 47.9839 182.553 48.1399C182.553 48.296 182.584 48.4504 182.644 48.5943C182.705 48.7382 182.793 48.8686 182.904 48.9778C183.015 49.0871 183.146 49.1731 183.291 49.2308C183.435 49.2885 183.59 49.3167 183.745 49.3137H187.254V52.8338C187.26 53.1413 187.386 53.4342 187.604 53.6496C187.823 53.8651 188.117 53.9857 188.424 53.9857C188.731 53.9857 189.025 53.8651 189.244 53.6496C189.462 53.4342 189.588 53.1413 189.594 52.8338V49.3137H193.103C193.258 49.3167 193.413 49.2885 193.557 49.2308C193.702 49.1731 193.833 49.0871 193.944 48.9778C194.055 48.8686 194.143 48.7382 194.204 48.5943C194.264 48.4504 194.295 48.296 194.295 48.1399C194.295 47.9839 194.264 47.8294 194.204 47.6856C194.143 47.5417 194.055 47.4113 193.944 47.302C193.833 47.1927 193.702 47.1067 193.557 47.049C193.413 46.9914 193.258 46.9632 193.103 46.9661Z" fill="white"/>
<path d="M121.454 195.24C121.84 194.22 121.982 193.124 121.869 192.039C121.757 190.954 121.393 189.911 120.806 188.992L110.314 134.39L106.186 113.684H81.4198C81.4198 113.684 65.9408 130.87 69.243 152.818L68.3188 183.728C67.4425 185.848 67.2267 188.185 67.6996 190.431L68.0674 192.179L67.9254 192.443C67.2496 193.697 66.8866 195.097 66.8672 196.523C66.8479 197.949 67.1729 199.358 67.8144 200.631L66.7676 235.642L74.1975 235.228L85.136 194.437L92.3595 157.787L104.536 186.155L104.949 192.781L104.749 198.62L95.249 232.743L103.298 235.849L121.454 195.24Z" fill="#2F2E41"/>
<path d="M181.488 249.506C181.488 249.637 181.436 249.762 181.344 249.855C181.252 249.947 181.127 249.999 180.997 249.999H0.491202C0.360927 249.999 0.235987 249.947 0.143869 249.855C0.0517507 249.762 0 249.637 0 249.506C0 249.376 0.0517507 249.25 0.143869 249.158C0.235987 249.066 0.360927 249.014 0.491202 249.014H180.997C181.062 249.014 181.126 249.026 181.185 249.051C181.245 249.076 181.299 249.112 181.345 249.158C181.391 249.203 181.427 249.258 181.451 249.318C181.476 249.378 181.489 249.442 181.488 249.506Z" fill="#CACACA"/>
<rect x="240.856" y="39.2266" width="25.806" height="3.92275" rx="1.96137" fill="white"/>
<rect x="240.856" y="39.2266" width="25.806" height="3.92275" rx="1.96137" fill="white"/>
<rect x="322.966" y="46.2891" width="25.806" height="3.92274" rx="1.96137" fill="white"/>
<rect x="322.966" y="39.2266" width="31.28" height="3.92275" rx="1.96137" fill="white"/>
<rect x="322.966" y="53.3496" width="27.37" height="3.92276" rx="1.96138" fill="white"/>
<rect x="240.856" y="46.2891" width="39.1" height="3.92274" rx="1.96137" fill="white"/>
<rect x="240.856" y="53.3496" width="31.28" height="3.92276" rx="1.96138" fill="white"/>
</g>
<defs>
<clipPath id="clip0_314_138">
<rect width="391" height="250" fill="white"/>
</clipPath>
</defs>
</svg>
