<svg width="394" height="300" viewBox="0 0 394 300" fill="none" xmlns="http://www.w3.org/2000/svg">
<path d="M197.969 0H22.4464C16.4953 0.00669434 10.7898 2.38364 6.58177 6.60935C2.37369 10.8351 0.0066664 16.5644 0 22.5405V229.503C0.0066664 235.479 2.37369 241.209 6.58177 245.434C10.7898 249.66 16.4953 252.037 22.4464 252.044H197.969C203.92 252.037 209.625 249.66 213.834 245.434C218.042 241.209 220.409 235.479 220.415 229.503V22.5405C220.409 16.5644 218.042 10.8351 213.834 6.60935C209.625 2.38364 203.92 0.00669434 197.969 0Z" fill="#F2F2F2"/>
<path d="M197.968 6.49023H22.4461C18.2082 6.49507 14.1452 8.18777 11.1485 11.197C8.15188 14.2062 6.46624 18.2862 6.46143 22.5419V229.503C6.46612 233.758 8.15172 237.839 11.1484 240.848C14.1451 243.857 18.2081 245.55 22.4461 245.554H197.968C202.206 245.55 206.269 243.857 209.266 240.848C212.263 237.839 213.948 233.758 213.953 229.503V22.54C213.948 18.2846 212.262 14.205 209.266 11.1962C206.269 8.18734 202.206 6.49494 197.968 6.49023Z" fill="white"/>
<path d="M171.554 66.6692H82.794C82.3032 66.6692 81.8171 66.5721 81.3636 66.3835C80.9101 66.1948 80.498 65.9184 80.1509 65.5698C79.8039 65.2213 79.5285 64.8075 79.3407 64.3521C79.1528 63.8967 79.0562 63.4086 79.0562 62.9156C79.0562 62.4227 79.1528 61.9346 79.3407 61.4792C79.5285 61.0238 79.8039 60.61 80.1509 60.2615C80.498 59.9129 80.9101 59.6365 81.3636 59.4478C81.8171 59.2592 82.3032 59.1621 82.794 59.1621H171.554C172.545 59.1621 173.496 59.5576 174.197 60.2615C174.898 60.9654 175.291 61.9201 175.291 62.9156C175.291 63.9111 174.898 64.8659 174.197 65.5698C173.496 66.2737 172.545 66.6692 171.554 66.6692Z" fill="#F2F2F2"/>
<path d="M186.973 79.3372H82.7936C81.8022 79.3372 80.8515 78.9417 80.1505 78.2378C79.4495 77.5339 79.0557 76.5791 79.0557 75.5836C79.0557 74.5881 79.4495 73.6334 80.1505 72.9295C80.8515 72.2255 81.8022 71.8301 82.7936 71.8301H186.973C187.964 71.8301 188.915 72.2255 189.616 72.9295C190.317 73.6334 190.711 74.5881 190.711 75.5836C190.711 76.5791 190.317 77.5339 189.616 78.2378C188.915 78.9417 187.964 79.3372 186.973 79.3372Z" fill="#F2F2F2"/>
<path d="M171.554 123.445H82.794C81.8027 123.445 80.8519 123.049 80.1509 122.345C79.45 121.641 79.0562 120.687 79.0562 119.691C79.0562 118.696 79.45 117.741 80.1509 117.037C80.8519 116.333 81.8027 115.938 82.794 115.938H171.554C172.545 115.938 173.496 116.333 174.197 117.037C174.898 117.741 175.291 118.696 175.291 119.691C175.291 120.687 174.898 121.641 174.197 122.345C173.496 123.049 172.545 123.445 171.554 123.445Z" fill="#F2F2F2"/>
<path d="M186.973 136.111H82.7936C81.8022 136.111 80.8515 135.715 80.1505 135.011C79.4495 134.307 79.0557 133.353 79.0557 132.357C79.0557 131.362 79.4495 130.407 80.1505 129.703C80.8515 128.999 81.8022 128.604 82.7936 128.604H186.973C187.964 128.604 188.915 128.999 189.616 129.703C190.317 130.407 190.711 131.362 190.711 132.357C190.711 133.353 190.317 134.307 189.616 135.011C188.915 135.715 187.964 136.111 186.973 136.111Z" fill="#F2F2F2"/>
<path d="M171.554 180.214H82.794C81.8027 180.214 80.8519 179.819 80.1509 179.115C79.45 178.411 79.0562 177.456 79.0562 176.461C79.0562 175.465 79.45 174.51 80.1509 173.806C80.8519 173.102 81.8027 172.707 82.794 172.707H171.554C172.545 172.707 173.496 173.102 174.197 173.806C174.898 174.51 175.291 175.465 175.291 176.461C175.291 177.456 174.898 178.411 174.197 179.115C173.496 179.819 172.545 180.214 171.554 180.214Z" fill="#F2F2F2"/>
<path d="M186.973 192.884H82.7936C82.3027 192.884 81.8166 192.787 81.3631 192.598C80.9096 192.41 80.4976 192.133 80.1505 191.785C79.8034 191.436 79.528 191.022 79.3402 190.567C79.1524 190.112 79.0557 189.623 79.0557 189.13C79.0557 188.638 79.1524 188.149 79.3402 187.694C79.528 187.239 79.8034 186.825 80.1505 186.476C80.4976 186.128 80.9096 185.851 81.3631 185.663C81.8166 185.474 82.3027 185.377 82.7936 185.377H186.973C187.964 185.377 188.915 185.772 189.616 186.476C190.317 187.18 190.711 188.135 190.711 189.13C190.711 190.126 190.317 191.081 189.616 191.785C188.915 192.489 187.964 192.884 186.973 192.884Z" fill="#F2F2F2"/>
<path d="M63.0785 85.012H31.6675C31.1922 85.0115 30.7366 84.8217 30.4005 84.4842C30.0645 84.1468 29.8755 83.6892 29.875 83.212V55.1339C29.8755 54.6567 30.0645 54.1992 30.4005 53.8617C30.7366 53.5243 31.1922 53.3345 31.6675 53.334H63.0789C63.5542 53.3345 64.0098 53.5243 64.3458 53.8617C64.6819 54.1992 64.8709 54.6567 64.8714 55.1339V83.2115C64.871 83.6889 64.682 84.1467 64.3458 84.4842C64.0097 84.8218 63.5539 85.0116 63.0785 85.012Z" fill="#E6E6E6"/>
<path d="M62.909 141.861H31.498C31.0228 141.861 30.5671 141.671 30.2311 141.333C29.8951 140.996 29.7061 140.538 29.7056 140.061V111.984C29.7061 111.506 29.8951 111.049 30.2311 110.711C30.5671 110.374 31.0228 110.184 31.498 110.184H62.9095C63.3847 110.184 63.8403 110.374 64.1764 110.711C64.5124 111.049 64.7014 111.506 64.7019 111.984V140.061C64.7014 140.538 64.5124 140.996 64.1762 141.334C63.8401 141.671 63.3843 141.861 62.909 141.861Z" fill="#E6E6E6"/>
<path d="M62.909 198.635H31.498C31.0228 198.634 30.5671 198.444 30.2311 198.107C29.8951 197.769 29.7061 197.312 29.7056 196.835V168.757C29.7061 168.28 29.8951 167.822 30.2311 167.485C30.5671 167.147 31.0228 166.958 31.498 166.957H62.9095C63.3847 166.958 63.8403 167.147 64.1764 167.485C64.5124 167.822 64.7014 168.28 64.7019 168.757V196.835C64.7013 197.312 64.5122 197.77 64.1761 198.107C63.8399 198.445 63.3843 198.634 62.909 198.635Z" fill="#E6E6E6"/>
<path d="M352.592 195.739L353.984 183.51L360.966 122.196L362.358 109.968C363.028 104.03 361.324 98.0672 357.621 93.3887C353.919 88.7103 348.519 85.6978 342.607 85.0122L184.184 66.8211C178.271 66.1488 172.333 67.8594 167.674 71.5777C163.015 75.2959 160.016 80.7182 159.333 86.6548L159.329 86.6862L149.568 172.394L149.565 172.426C148.895 178.364 150.599 184.326 154.301 189.005C158.004 193.683 163.404 196.696 169.316 197.381L327.741 215.574C333.654 216.246 339.591 214.535 344.25 210.817C348.909 207.099 351.909 201.677 352.592 195.74V195.739Z" fill="#E6E6E6"/>
<path d="M346.172 195L347.821 180.516L354.288 123.713L355.937 109.229C356.414 105.001 355.201 100.755 352.564 97.4228C349.927 94.0911 346.082 91.9459 341.871 91.4578L183.447 73.2661C179.236 72.7874 175.007 74.0056 171.69 76.6535C168.372 79.3014 166.235 83.1628 165.749 87.3904L165.746 87.4218L155.986 173.13L155.982 173.161C155.505 177.391 156.719 181.637 159.357 184.969C161.995 188.301 165.841 190.445 170.052 190.932L328.477 209.124C332.687 209.602 336.915 208.384 340.232 205.736C343.55 203.088 345.686 199.227 346.172 195Z" fill="white"/>
<path d="M320.239 117.288L232.053 107.162C231.072 107.044 230.177 106.541 229.564 105.763C228.952 104.985 228.671 103.994 228.783 103.009C228.895 102.023 229.392 101.122 230.163 100.503C230.935 99.8835 231.92 99.5962 232.902 99.7038L321.088 109.83C321.577 109.884 322.052 110.034 322.483 110.272C322.915 110.51 323.295 110.832 323.603 111.218C323.91 111.605 324.139 112.048 324.275 112.524C324.411 112.999 324.452 113.497 324.396 113.988C324.34 114.479 324.188 114.955 323.949 115.387C323.709 115.819 323.387 116.199 323.001 116.506C322.614 116.813 322.171 117.04 321.697 117.174C321.223 117.308 320.728 117.347 320.239 117.288Z" fill="#E6E6E6"/>
<path d="M334.126 131.633L230.621 119.748C229.64 119.63 228.745 119.127 228.133 118.349C227.52 117.571 227.239 116.58 227.351 115.595C227.464 114.609 227.96 113.708 228.732 113.089C229.504 112.469 230.488 112.182 231.47 112.29L334.977 124.175C335.467 124.228 335.941 124.379 336.373 124.617C336.804 124.855 337.185 125.177 337.492 125.563C337.8 125.949 338.028 126.393 338.164 126.868C338.3 127.344 338.341 127.841 338.286 128.333C338.23 128.824 338.077 129.299 337.838 129.732C337.598 130.164 337.276 130.544 336.89 130.851C336.504 131.157 336.061 131.384 335.587 131.519C335.113 131.653 334.617 131.692 334.128 131.633H334.126Z" fill="#E6E6E6"/>
<path d="M331.241 156.736L178.643 139.213C178.153 139.16 177.679 139.01 177.247 138.771C176.816 138.533 176.435 138.212 176.128 137.825C175.82 137.439 175.592 136.995 175.456 136.52C175.32 136.045 175.278 135.547 175.334 135.056C175.39 134.564 175.542 134.089 175.782 133.657C176.021 133.225 176.344 132.844 176.73 132.537C177.116 132.231 177.559 132.004 178.033 131.869C178.507 131.735 179.003 131.696 179.492 131.755L332.09 149.277C332.58 149.331 333.054 149.481 333.486 149.72C333.917 149.958 334.298 150.279 334.605 150.666C334.913 151.052 335.141 151.496 335.277 151.971C335.413 152.446 335.455 152.944 335.399 153.435C335.343 153.927 335.191 154.402 334.951 154.834C334.712 155.266 334.389 155.647 334.003 155.953C333.617 156.26 333.174 156.487 332.7 156.621C332.226 156.756 331.73 156.795 331.241 156.736V156.736Z" fill="#E6E6E6"/>
<path d="M330.298 169.378L177.209 151.8C176.224 151.686 175.324 151.185 174.707 150.406C174.09 149.626 173.807 148.633 173.92 147.644C174.032 146.655 174.532 145.751 175.308 145.131C176.084 144.512 177.073 144.228 178.058 144.341L331.147 161.92C332.128 162.038 333.022 162.541 333.635 163.319C334.248 164.097 334.529 165.087 334.417 166.073C334.304 167.059 333.808 167.96 333.036 168.579C332.264 169.198 331.28 169.486 330.298 169.378Z" fill="#E6E6E6"/>
<path d="M328.432 181.4L175.835 163.878C175.346 163.824 174.872 163.674 174.44 163.435C174.008 163.197 173.628 162.876 173.321 162.489C173.013 162.103 172.785 161.659 172.649 161.184C172.512 160.709 172.471 160.211 172.527 159.72C172.583 159.228 172.735 158.753 172.975 158.321C173.214 157.889 173.536 157.508 173.923 157.202C174.309 156.895 174.752 156.668 175.226 156.534C175.7 156.399 176.196 156.36 176.685 156.419L329.283 173.941C329.772 173.995 330.247 174.145 330.678 174.384C331.11 174.622 331.49 174.943 331.798 175.33C332.105 175.716 332.333 176.16 332.47 176.635C332.606 177.11 332.647 177.608 332.591 178.099C332.535 178.591 332.383 179.066 332.144 179.498C331.904 179.93 331.582 180.311 331.195 180.617C330.809 180.924 330.366 181.151 329.892 181.285C329.418 181.42 328.922 181.459 328.433 181.4H328.432Z" fill="#E6E6E6"/>
<path d="M327.489 194.042L174.401 176.463C173.42 176.345 172.525 175.842 171.913 175.064C171.3 174.285 171.019 173.295 171.131 172.31C171.243 171.324 171.74 170.423 172.512 169.804C173.283 169.184 174.268 168.897 175.25 169.005L328.339 186.583C329.32 186.701 330.214 187.204 330.827 187.982C331.44 188.761 331.721 189.751 331.608 190.737C331.496 191.722 331 192.623 330.228 193.243C329.456 193.862 328.472 194.149 327.489 194.042V194.042Z" fill="#E6E6E6"/>
<path d="M210.217 123.194L179.007 119.61C178.535 119.556 178.104 119.315 177.809 118.941C177.513 118.568 177.377 118.092 177.43 117.618L180.607 89.722C180.661 89.248 180.901 88.8151 181.273 88.5182C181.645 88.2213 182.119 88.0847 182.591 88.1384L213.799 91.7219C214.271 91.7767 214.702 92.0172 214.998 92.3907C215.293 92.7643 215.429 93.2403 215.376 93.7144L212.199 121.61C212.145 122.084 211.905 122.516 211.534 122.813C211.162 123.11 210.689 123.247 210.217 123.194Z" fill="#3068D3"/>
<path d="M392.996 299.927H290.85C290.726 299.927 290.607 299.878 290.52 299.79C290.432 299.702 290.383 299.583 290.383 299.459C290.383 299.334 290.432 299.215 290.52 299.127C290.607 299.04 290.726 298.99 290.85 298.99H392.996C393.119 298.99 393.238 299.04 393.325 299.127C393.413 299.215 393.462 299.334 393.462 299.459C393.462 299.583 393.413 299.702 393.325 299.79C393.238 299.878 393.119 299.927 392.996 299.927Z" fill="#3F3D56"/>
<path d="M354.639 120.99C354.482 121.613 354.463 122.262 354.583 122.893C354.703 123.523 354.959 124.12 355.334 124.64C355.708 125.161 356.191 125.593 356.75 125.905C357.308 126.218 357.928 126.404 358.566 126.45L361.726 135.971L367.957 135.456L363.306 122.073C363.312 120.992 362.922 119.946 362.212 119.134C361.501 118.322 360.519 117.8 359.45 117.666C358.382 117.533 357.302 117.798 356.415 118.411C355.529 119.024 354.896 119.942 354.639 120.992L354.639 120.99Z" fill="#A0616A"/>
<path d="M359.411 183.341C360.142 184.014 361.036 184.482 362.004 184.698C362.971 184.913 363.979 184.869 364.924 184.568C365.869 184.268 366.719 183.722 367.387 182.987C368.055 182.251 368.518 181.352 368.73 180.379L373.665 157.676C374.508 153.794 374.31 149.756 373.089 145.976L367.314 128.095C367.231 127.838 367.094 127.603 366.912 127.404C366.73 127.205 366.507 127.048 366.259 126.944C366.011 126.84 365.743 126.791 365.475 126.8C365.206 126.809 364.942 126.877 364.702 126.998L360.933 128.893C360.542 129.089 360.233 129.417 360.058 129.818C359.884 130.22 359.855 130.671 359.977 131.092L360.357 132.403C363.517 143.316 363.683 154.884 360.837 165.884L357.767 177.748C357.51 178.742 357.527 179.788 357.816 180.773C358.105 181.758 358.656 182.645 359.409 183.34L359.411 183.341Z" fill="#3068D3"/>
<path d="M339.666 295.028H334.334L331.798 274.373H339.668L339.666 295.028Z" fill="#A0616A"/>
<path d="M330.525 293.498H340.808V300H324.05C324.05 298.276 324.732 296.622 325.946 295.402C327.16 294.183 328.807 293.498 330.525 293.498Z" fill="#2F2E41"/>
<path d="M368.408 295.028H363.075L360.54 274.373H368.409L368.408 295.028Z" fill="#A0616A"/>
<path d="M359.267 293.498H369.55V300H352.792C352.792 298.276 353.474 296.622 354.688 295.402C355.903 294.183 357.55 293.498 359.267 293.498Z" fill="#2F2E41"/>
<path d="M352.791 148.205C359.118 148.205 364.247 143.054 364.247 136.701C364.247 130.348 359.118 125.197 352.791 125.197C346.464 125.197 341.335 130.348 341.335 136.701C341.335 143.054 346.464 148.205 352.791 148.205Z" fill="#A0616A"/>
<path d="M313.621 211.724C313.701 211.087 313.919 210.475 314.259 209.932C314.6 209.388 315.055 208.926 315.593 208.579C316.13 208.231 316.737 208.006 317.371 207.92C318.004 207.833 318.649 207.887 319.26 208.078L325.664 200.373L331.276 203.136L322.083 213.893C321.695 214.901 320.953 215.732 319.996 216.227C319.04 216.723 317.935 216.849 316.892 216.581C315.849 216.314 314.94 215.672 314.338 214.776C313.735 213.881 313.48 212.794 313.621 211.723V211.724Z" fill="#A0616A"/>
<path d="M355.581 148.205C357.306 148.243 359.018 147.913 360.607 147.239C362.195 146.564 363.623 145.56 364.798 144.291C365.972 143.023 366.865 141.52 367.42 139.88C367.974 138.24 368.177 136.501 368.014 134.777C367.851 133.052 367.327 131.382 366.476 129.876C365.625 128.37 364.466 127.062 363.075 126.038C361.685 125.013 360.094 124.296 358.408 123.933C356.721 123.57 354.978 123.57 353.291 123.932C350.773 122.395 347.843 121.362 344.907 121.625C341.972 121.888 339.069 123.639 337.971 126.384C336.873 129.13 338.052 132.751 340.782 133.868C342.532 134.583 344.508 134.236 346.375 133.948C348.242 133.659 350.28 133.471 351.905 134.439C353.53 135.406 354.261 138.001 352.805 139.21C352.034 139.877 351.483 140.764 351.226 141.753C350.969 142.742 351.018 143.786 351.367 144.747C352.099 146.647 354.095 148.174 355.581 148.205Z" fill="#2F2E41"/>
<path d="M369.793 211.27L371.825 288.711C371.832 288.969 371.786 289.225 371.689 289.465C371.592 289.704 371.448 289.92 371.264 290.1C371.08 290.281 370.861 290.421 370.62 290.512C370.38 290.604 370.123 290.644 369.866 290.631L363.172 290.288C362.745 290.266 362.338 290.098 362.02 289.811C361.702 289.524 361.492 289.135 361.425 288.711L353.462 238.413C353.427 238.198 353.32 238.001 353.157 237.857C352.994 237.713 352.786 237.631 352.569 237.624C352.352 237.617 352.14 237.686 351.968 237.82C351.797 237.954 351.677 238.143 351.63 238.356L340.854 286.784C340.796 287.043 340.685 287.287 340.526 287.5C340.368 287.712 340.167 287.888 339.936 288.017C339.704 288.145 339.449 288.223 339.185 288.244C338.922 288.266 338.657 288.231 338.408 288.143L331.764 287.735C331.38 287.598 331.051 287.338 330.828 286.995C330.604 286.652 330.499 286.245 330.528 285.837L336.328 210.539L369.793 211.27Z" fill="#2F2E41"/>
<path d="M373.055 174.488C374.175 162.753 365.584 152.138 353.874 151.304C348.828 150.944 340.995 150.815 338.413 157.457C330.634 177.463 344.251 176.977 339.56 194.31C334.868 211.643 330.724 212.636 337.162 213.888C343.599 215.139 372.548 222.528 371.359 210.328C370.628 202.829 371.937 186.194 373.055 174.488Z" fill="#3068D3"/>
<path d="M340.722 155.421C341.646 155.061 342.649 154.953 343.628 155.107C344.608 155.261 345.53 155.672 346.3 156.298C347.071 156.924 347.664 157.743 348.019 158.673C348.374 159.603 348.478 160.61 348.322 161.593L344.665 184.539C344.04 188.463 342.388 192.149 339.878 195.221L328.003 209.752C327.832 209.961 327.619 210.13 327.377 210.248C327.136 210.366 326.872 210.43 326.603 210.437C326.334 210.443 326.068 210.391 325.821 210.284C325.574 210.177 325.354 210.018 325.174 209.817L322.353 206.673C322.061 206.347 321.892 205.929 321.874 205.491C321.857 205.053 321.994 204.623 322.26 204.276L323.091 203.193C329.999 194.191 334.357 183.481 335.705 172.197L337.158 160.026C337.28 159.006 337.676 158.038 338.304 157.227C338.932 156.416 339.767 155.791 340.722 155.421Z" fill="#3068D3"/>
</svg>
