<svg width="30" height="30" viewBox="0 0 30 30" fill="none" xmlns="http://www.w3.org/2000/svg">
<path d="M0 29.9835L15 30V0H0V29.9835ZM5.59258 22.5H1.89629C1.89629 21.3924 1.875 20.2994 1.92145 19.2097C1.92774 19.0611 2.26742 18.8177 2.46194 18.8076C3.30242 18.7626 4.14919 18.75 4.98677 18.8144C5.20064 18.8308 5.55242 19.1608 5.56452 19.3645C5.625 20.3705 5.59258 21.3823 5.59258 22.5ZM9.375 3.77758C10.4734 3.77758 11.5176 3.75 12.5574 3.80274C12.7452 3.81242 13.0558 4.14194 13.0684 4.33887C13.1245 5.20694 13.1187 6.08177 13.0708 6.95032C13.0606 7.13371 12.7848 7.44726 12.6208 7.45452C11.551 7.50048 10.4773 7.47774 9.375 7.47774V3.77758ZM13.0631 14.4126C13.051 14.609 12.6803 14.9284 12.4597 14.9415C11.49 15 10.5145 14.9666 9.38806 14.9666C9.38806 13.8102 9.37452 12.7006 9.40839 11.5926C9.41177 11.4784 9.69581 11.2829 9.85403 11.2785C10.8823 11.25 11.9124 11.2635 13.0911 11.2635C13.0916 12.4152 13.125 13.4168 13.0631 14.4126ZM9.375 18.779C10.4971 18.779 11.52 18.75 12.5385 18.8042C12.7335 18.8148 13.0611 19.1458 13.0713 19.3423C13.1255 20.3656 13.0965 21.3934 13.0965 22.5H9.375V18.779ZM1.91129 4.275C1.9171 4.10177 2.15661 3.79548 2.29645 3.79016C3.39242 3.74952 4.49032 3.76742 5.625 3.76742V7.5H1.89339C1.89339 6.3779 1.875 5.32597 1.91129 4.275ZM1.90645 11.6879C1.91081 11.5432 2.14694 11.2873 2.28145 11.2834C3.37887 11.25 4.47774 11.265 5.625 11.265V15H1.88952C1.88952 13.9132 1.875 12.7998 1.90645 11.6879ZM16.875 30H20.625V22.5H26.25V30L29.9947 29.9903L30 13.125H16.875V30ZM16.875 9.375V11.25H30V9.375H16.875Z" fill="#5387EC"/>
</svg>
