<svg width="40" height="40" viewBox="0 0 40 40" fill="none" xmlns="http://www.w3.org/2000/svg">
<path fill-rule="evenodd" clip-rule="evenodd" d="M30.4687 0.0664062C36.25 0.0664062 40 3.76706 40 9.47226V30.1342C40 35.8394 36.25 39.5401 30.4687 39.5401H9.53127C3.75 39.5401 0 35.8394 0 30.1342V9.47226C0 3.76706 3.75 0.0664062 9.53127 0.0664062H30.4687Z" fill="white"/>
<path fill-rule="evenodd" clip-rule="evenodd" d="M20.924 39.345V24.056H15.8909V18.5579H20.924V14.5264C20.924 14.5264 20.562 6.14648 27.9106 6.14648H33.8551V11.7482H30.151C30.151 11.7482 27.425 11.6022 27.3954 14.3787V18.5579H33.3877L32.5235 24.056H27.336V39.5404H20.924V39.345Z" fill="#A1B5DC"/>
</svg>
