<svg width="40" height="40" viewBox="0 0 40 40" fill="none" xmlns="http://www.w3.org/2000/svg">
<rect y="0.0664062" width="40" height="39.4737" rx="10" fill="white"/>
<path fill-rule="evenodd" clip-rule="evenodd" d="M2.22222 0C0.994923 0 0 0.994923 0 2.22222C0 0.998889 0.994444 0 2.22222 0ZM13.3333 40H26.6667C24.9606 40 24.9606 38.4261 24.9606 37.8956C24.9606 37.6778 24.9631 37.2962 24.9666 36.7861C24.9735 35.7579 24.9839 34.2076 24.9839 32.4244C24.9839 30.5644 24.3444 29.3511 23.6272 28.7322C28.0806 28.2389 32.7594 26.5528 32.7594 18.8956C32.7594 16.7189 31.9833 14.9406 30.7011 13.5439C30.9089 13.0422 31.5939 11.0144 30.505 8.26833C30.505 8.26833 28.8278 7.73222 25.0106 10.3117C23.4122 9.87 21.7 9.64833 20 9.64111C18.3006 9.64833 16.5894 9.87 14.9939 10.3117C11.1722 7.73222 9.49278 8.26833 9.49278 8.26833C8.40667 11.0144 9.09111 13.0422 9.29945 13.5439C8.01944 14.94 7.23833 16.7189 7.23833 18.8956C7.23833 26.5344 11.9083 28.2439 16.3506 28.7478C15.7783 29.2461 15.26 30.1256 15.0806 31.4144C13.9394 31.9233 11.0439 32.805 9.26056 29.7567C9.26056 29.7567 8.20278 27.8428 6.19444 27.7022C6.19444 27.7022 4.24333 27.6772 6.05778 28.9144C6.05778 28.9144 7.36889 29.5272 8.27833 31.8317C8.27833 31.8317 9.45278 35.3894 15.0167 34.1839C15.0214 35.0775 15.0289 35.9437 15.0348 36.6282C15.04 37.2195 15.0439 37.6751 15.0439 37.8956C15.0439 38.4222 14.4444 40 13.3333 40ZM37.7767 40H37.7778C39.0051 40 40 39.0051 40 37.7778C39.9993 38.3671 39.7648 38.9321 39.3479 39.3487C38.9311 39.7653 38.366 39.9996 37.7767 40ZM40 2.22222C40 0.994923 39.0051 0 37.7778 0C39.0011 0 40 0.994444 40 2.22222ZM7.23222 28.6856C7.375 28.7533 7.53056 28.7239 7.575 28.625C7.625 28.5256 7.54278 28.3889 7.39722 28.3239C7.25278 28.2556 7.09611 28.2839 7.05278 28.3861C7.00556 28.4856 7.08722 28.6206 7.23222 28.6856ZM7.97667 29.4333C8.10333 29.5728 8.29 29.6139 8.385 29.525V29.5256C8.485 29.4361 8.45944 29.2517 8.32833 29.1111C8.19722 28.9722 8.01667 28.9306 7.91833 29.0189C7.82111 29.1083 7.84611 29.2944 7.97667 29.4333ZM8.72722 30.5017C8.85111 30.6794 9.05167 30.7583 9.17389 30.6739C9.29889 30.5867 9.29889 30.3744 9.17667 30.1939C9.05167 30.0178 8.85389 29.9417 8.72945 30.0267C8.60445 30.1117 8.60444 30.3239 8.72722 30.5017ZM9.74 31.7067C9.91111 31.8711 10.1444 31.9033 10.2539 31.7828C10.3711 31.6639 10.3178 31.4344 10.1444 31.2733C9.97222 31.1106 9.73778 31.0767 9.62667 31.1972C9.51667 31.3178 9.565 31.5456 9.74 31.7067ZM11.2444 32.5883C11.4711 32.6544 11.6961 32.5828 11.7444 32.4272H11.745C11.7917 32.2683 11.6433 32.0867 11.4172 32.0189C11.1889 31.9478 10.9633 32.0217 10.9167 32.1789C10.8706 32.3367 11.0183 32.5194 11.2444 32.5883ZM12.9572 32.8506C13.195 32.8472 13.3867 32.7111 13.3811 32.5467C13.3811 32.3833 13.1867 32.2511 12.9489 32.2556C12.7094 32.2594 12.5217 32.3944 12.5217 32.5606C12.5244 32.7228 12.7183 32.8556 12.9572 32.8506ZM14.5317 32.6572C14.7678 32.6133 14.9328 32.4483 14.9044 32.2883H14.9039C14.8744 32.125 14.6628 32.0283 14.4261 32.0694C14.1939 32.1122 14.0261 32.2767 14.055 32.4411C14.0844 32.6006 14.2994 32.6994 14.5317 32.6572Z" fill="#A1B5DC"/>
</svg>
