<svg width="89" height="28" viewBox="0 0 89 28" fill="none" xmlns="http://www.w3.org/2000/svg">
<g filter="url(#filter0_d_1193_100)">
<rect width="19.5349" height="23.4419" rx="1" fill="#3068D3"/>
<g filter="url(#filter1_d_1193_100)">
<path d="M13.3031 19.3674C13.1598 19.3674 13.0556 19.3543 12.9905 19.3283C12.9384 19.3153 12.8798 19.2632 12.8147 19.172L9.82588 13.3897H7.5989V19.1134C7.5989 19.2827 7.51425 19.3674 7.34495 19.3674H5.60635C5.45007 19.3674 5.37193 19.2827 5.37193 19.1134V4.87249C5.37193 4.80737 5.39146 4.75528 5.43053 4.71621C5.48262 4.66411 5.54123 4.63807 5.60635 4.63807H9.55239C10.998 4.63807 12.144 4.98969 12.9905 5.69295C13.837 6.39621 14.2603 7.49016 14.2603 8.97481C14.2603 9.92551 14.0519 10.733 13.6352 11.3971C13.2184 12.0483 12.6454 12.5432 11.9161 12.8818L15.1784 19.0939C15.2826 19.2762 15.2045 19.3674 14.944 19.3674H13.3031ZM7.5989 6.68923V11.3581H9.20076C10.0603 11.3581 10.744 11.1757 11.2519 10.8111C11.7598 10.4334 12.0138 9.81481 12.0138 8.95528C12.0138 8.21295 11.8119 7.65295 11.4082 7.27528C11.0175 6.88458 10.4901 6.68923 9.82588 6.68923H7.5989Z" fill="white"/>
</g>
</g>
<g filter="url(#filter2_d_1193_100)">
<rect x="21.5347" width="19.5349" height="23.4419" rx="1" fill="#3068D3"/>
<g filter="url(#filter3_d_1193_100)">
<path d="M27.4926 19.3869C27.2322 19.3869 27.0759 19.3609 27.0238 19.3088C26.9717 19.2697 26.9457 19.1069 26.9457 18.8204V5.16551C26.9457 4.90504 26.9652 4.75528 27.0043 4.71621C27.0564 4.66411 27.2061 4.63807 27.4536 4.63807H34.3885C34.5317 4.63807 34.6164 4.66411 34.6424 4.71621C34.6685 4.75528 34.6815 4.83342 34.6815 4.95062V6.39621C34.6815 6.52644 34.6619 6.6176 34.6229 6.66969C34.5838 6.70876 34.5057 6.7283 34.3885 6.7283H29.0945V10.7134H34.1345C34.3299 10.7134 34.4275 10.8176 34.4275 11.026V12.4911C34.4275 12.7125 34.3299 12.8232 34.1345 12.8232H29.0945V17.2771H34.6229C34.8052 17.2771 34.8964 17.3878 34.8964 17.6092V19.0743C34.8964 19.2827 34.8052 19.3869 34.6229 19.3869H27.4926Z" fill="white"/>
</g>
</g>
<g filter="url(#filter4_d_1193_100)">
<rect x="43.0698" width="19.5349" height="23.4419" rx="1" fill="#3068D3"/>
<g filter="url(#filter5_d_1193_100)">
<path d="M50.6888 13.3897V19.1134C50.6888 19.2827 50.6041 19.3674 50.4348 19.3674H48.6962C48.5399 19.3674 48.4618 19.2827 48.4618 19.1134V4.87249C48.4618 4.80737 48.4813 4.75528 48.5204 4.71621C48.5725 4.66411 48.6311 4.63807 48.6962 4.63807H52.6422C54.0878 4.63807 55.2274 4.98969 56.0608 5.69295C56.9074 6.39621 57.3306 7.49016 57.3306 8.97481C57.3306 9.69109 57.2069 10.3292 56.9594 10.8892C56.725 11.4362 56.3864 11.8985 55.9436 12.2762C55.5139 12.6409 54.9994 12.9209 54.4004 13.1162C53.8143 13.2985 53.1697 13.3897 52.4664 13.3897H50.6888ZM50.6888 6.68923V11.3581H52.2711C53.1436 11.3581 53.8339 11.1757 54.3418 10.8111C54.8497 10.4334 55.1036 9.81481 55.1036 8.95528C55.1036 8.21295 54.9018 7.65295 54.4981 7.27528C54.0943 6.88458 53.5669 6.68923 52.9157 6.68923H50.6888Z" fill="white"/>
</g>
</g>
<g filter="url(#filter6_d_1193_100)">
<rect x="64.6045" width="19.5349" height="23.4419" rx="1" fill="#3068D3"/>
<g filter="url(#filter7_d_1193_100)">
<path d="M79.1982 17.5116C78.6121 18.2539 77.9023 18.8009 77.0689 19.1525C76.2484 19.5171 75.3237 19.6995 74.2949 19.6995C73.1488 19.6995 72.1591 19.4911 71.3256 19.0743C70.5051 18.6706 69.8279 18.1171 69.294 17.4139C68.773 16.7106 68.3823 15.8967 68.1219 14.972C67.8744 14.0343 67.7507 13.0446 67.7507 12.0027C67.7507 10.9869 67.8809 10.0167 68.1414 9.09202C68.4019 8.15435 68.7991 7.33388 69.333 6.63062C69.867 5.92737 70.5442 5.36737 71.3647 4.95062C72.1851 4.53388 73.1619 4.32551 74.2949 4.32551C75.4019 4.32551 76.3656 4.54039 77.1861 4.97016C78.0065 5.3869 78.6837 5.9469 79.2177 6.65016C79.7647 7.35342 80.1684 8.16737 80.4289 9.09202C80.7023 10.0167 80.8326 10.9869 80.8195 12.0027C80.8065 13.1488 80.6698 14.1841 80.4093 15.1088C80.1488 16.0204 79.7451 16.8213 79.1982 17.5116ZM74.2949 6.41574C73.5395 6.41574 72.8884 6.58504 72.3414 6.92365C71.8075 7.24923 71.3647 7.679 71.013 8.21295C70.6744 8.73388 70.4205 9.33295 70.2512 10.0102C70.0949 10.6743 70.0168 11.3385 70.0168 12.0027C70.0168 12.6669 70.0949 13.3376 70.2512 14.0148C70.4205 14.679 70.6744 15.2781 71.013 15.812C71.3647 16.346 71.8075 16.7823 72.3414 17.1209C72.8884 17.4464 73.5395 17.6092 74.2949 17.6092C75.0502 17.6092 75.6949 17.4464 76.2289 17.1209C76.7758 16.7823 77.2186 16.346 77.5572 15.812C77.8958 15.2781 78.1433 14.679 78.2995 14.0148C78.4688 13.3376 78.5535 12.6669 78.5535 12.0027C78.5535 11.3516 78.4754 10.6939 78.3191 10.0297C78.1628 9.36551 77.9088 8.76644 77.5572 8.23248C77.2186 7.69853 76.7758 7.26225 76.2289 6.92365C75.6949 6.58504 75.0502 6.41574 74.2949 6.41574Z" fill="white"/>
</g>
</g>
<defs>
<filter id="filter0_d_1193_100" x="0" y="0" width="23.5347" height="27.4414" filterUnits="userSpaceOnUse" color-interpolation-filters="sRGB">
<feFlood flood-opacity="0" result="BackgroundImageFix"/>
<feColorMatrix in="SourceAlpha" type="matrix" values="0 0 0 0 0 0 0 0 0 0 0 0 0 0 0 0 0 0 127 0" result="hardAlpha"/>
<feOffset dx="2" dy="2"/>
<feGaussianBlur stdDeviation="1"/>
<feComposite in2="hardAlpha" operator="out"/>
<feColorMatrix type="matrix" values="0 0 0 0 0 0 0 0 0 0 0 0 0 0 0 0 0 0 0.1 0"/>
<feBlend mode="normal" in2="BackgroundImageFix" result="effect1_dropShadow_1193_100"/>
<feBlend mode="normal" in="SourceGraphic" in2="effect1_dropShadow_1193_100" result="shape"/>
</filter>
<filter id="filter1_d_1193_100" x="4.98137" y="4.24797" width="12.3071" height="17.0727" filterUnits="userSpaceOnUse" color-interpolation-filters="sRGB">
<feFlood flood-opacity="0" result="BackgroundImageFix"/>
<feColorMatrix in="SourceAlpha" type="matrix" values="0 0 0 0 0 0 0 0 0 0 0 0 0 0 0 0 0 0 127 0" result="hardAlpha"/>
<feOffset dx="0.781395" dy="0.781395"/>
<feGaussianBlur stdDeviation="0.586046"/>
<feComposite in2="hardAlpha" operator="out"/>
<feColorMatrix type="matrix" values="0 0 0 0 0 0 0 0 0 0 0 0 0 0 0 0 0 0 0.1 0"/>
<feBlend mode="normal" in2="BackgroundImageFix" result="effect1_dropShadow_1193_100"/>
<feBlend mode="normal" in="SourceGraphic" in2="effect1_dropShadow_1193_100" result="shape"/>
</filter>
<filter id="filter2_d_1193_100" x="21.5347" y="0" width="23.5347" height="27.4414" filterUnits="userSpaceOnUse" color-interpolation-filters="sRGB">
<feFlood flood-opacity="0" result="BackgroundImageFix"/>
<feColorMatrix in="SourceAlpha" type="matrix" values="0 0 0 0 0 0 0 0 0 0 0 0 0 0 0 0 0 0 127 0" result="hardAlpha"/>
<feOffset dx="2" dy="2"/>
<feGaussianBlur stdDeviation="1"/>
<feComposite in2="hardAlpha" operator="out"/>
<feColorMatrix type="matrix" values="0 0 0 0 0 0 0 0 0 0 0 0 0 0 0 0 0 0 0.1 0"/>
<feBlend mode="normal" in2="BackgroundImageFix" result="effect1_dropShadow_1193_100"/>
<feBlend mode="normal" in="SourceGraphic" in2="effect1_dropShadow_1193_100" result="shape"/>
</filter>
<filter id="filter3_d_1193_100" x="26.5551" y="4.24797" width="10.2949" height="17.0922" filterUnits="userSpaceOnUse" color-interpolation-filters="sRGB">
<feFlood flood-opacity="0" result="BackgroundImageFix"/>
<feColorMatrix in="SourceAlpha" type="matrix" values="0 0 0 0 0 0 0 0 0 0 0 0 0 0 0 0 0 0 127 0" result="hardAlpha"/>
<feOffset dx="0.781395" dy="0.781395"/>
<feGaussianBlur stdDeviation="0.586046"/>
<feComposite in2="hardAlpha" operator="out"/>
<feColorMatrix type="matrix" values="0 0 0 0 0 0 0 0 0 0 0 0 0 0 0 0 0 0 0.1 0"/>
<feBlend mode="normal" in2="BackgroundImageFix" result="effect1_dropShadow_1193_100"/>
<feBlend mode="normal" in="SourceGraphic" in2="effect1_dropShadow_1193_100" result="shape"/>
</filter>
<filter id="filter4_d_1193_100" x="43.0698" y="0" width="23.5347" height="27.4414" filterUnits="userSpaceOnUse" color-interpolation-filters="sRGB">
<feFlood flood-opacity="0" result="BackgroundImageFix"/>
<feColorMatrix in="SourceAlpha" type="matrix" values="0 0 0 0 0 0 0 0 0 0 0 0 0 0 0 0 0 0 127 0" result="hardAlpha"/>
<feOffset dx="2" dy="2"/>
<feGaussianBlur stdDeviation="1"/>
<feComposite in2="hardAlpha" operator="out"/>
<feColorMatrix type="matrix" values="0 0 0 0 0 0 0 0 0 0 0 0 0 0 0 0 0 0 0.1 0"/>
<feBlend mode="normal" in2="BackgroundImageFix" result="effect1_dropShadow_1193_100"/>
<feBlend mode="normal" in="SourceGraphic" in2="effect1_dropShadow_1193_100" result="shape"/>
</filter>
<filter id="filter5_d_1193_100" x="48.0712" y="4.24797" width="11.2128" height="17.0727" filterUnits="userSpaceOnUse" color-interpolation-filters="sRGB">
<feFlood flood-opacity="0" result="BackgroundImageFix"/>
<feColorMatrix in="SourceAlpha" type="matrix" values="0 0 0 0 0 0 0 0 0 0 0 0 0 0 0 0 0 0 127 0" result="hardAlpha"/>
<feOffset dx="0.781395" dy="0.781395"/>
<feGaussianBlur stdDeviation="0.586046"/>
<feComposite in2="hardAlpha" operator="out"/>
<feColorMatrix type="matrix" values="0 0 0 0 0 0 0 0 0 0 0 0 0 0 0 0 0 0 0.1 0"/>
<feBlend mode="normal" in2="BackgroundImageFix" result="effect1_dropShadow_1193_100"/>
<feBlend mode="normal" in="SourceGraphic" in2="effect1_dropShadow_1193_100" result="shape"/>
</filter>
<filter id="filter6_d_1193_100" x="64.6045" y="0" width="23.5347" height="27.4414" filterUnits="userSpaceOnUse" color-interpolation-filters="sRGB">
<feFlood flood-opacity="0" result="BackgroundImageFix"/>
<feColorMatrix in="SourceAlpha" type="matrix" values="0 0 0 0 0 0 0 0 0 0 0 0 0 0 0 0 0 0 127 0" result="hardAlpha"/>
<feOffset dx="2" dy="2"/>
<feGaussianBlur stdDeviation="1"/>
<feComposite in2="hardAlpha" operator="out"/>
<feColorMatrix type="matrix" values="0 0 0 0 0 0 0 0 0 0 0 0 0 0 0 0 0 0 0.1 0"/>
<feBlend mode="normal" in2="BackgroundImageFix" result="effect1_dropShadow_1193_100"/>
<feBlend mode="normal" in="SourceGraphic" in2="effect1_dropShadow_1193_100" result="shape"/>
</filter>
<filter id="filter7_d_1193_100" x="67.3598" y="3.93547" width="15.4326" height="17.7172" filterUnits="userSpaceOnUse" color-interpolation-filters="sRGB">
<feFlood flood-opacity="0" result="BackgroundImageFix"/>
<feColorMatrix in="SourceAlpha" type="matrix" values="0 0 0 0 0 0 0 0 0 0 0 0 0 0 0 0 0 0 127 0" result="hardAlpha"/>
<feOffset dx="0.781395" dy="0.781395"/>
<feGaussianBlur stdDeviation="0.586046"/>
<feComposite in2="hardAlpha" operator="out"/>
<feColorMatrix type="matrix" values="0 0 0 0 0 0 0 0 0 0 0 0 0 0 0 0 0 0 0.1 0"/>
<feBlend mode="normal" in2="BackgroundImageFix" result="effect1_dropShadow_1193_100"/>
<feBlend mode="normal" in="SourceGraphic" in2="effect1_dropShadow_1193_100" result="shape"/>
</filter>
</defs>
</svg>
