<svg width="16" height="16" viewBox="0 0 16 16" fill="none" xmlns="http://www.w3.org/2000/svg">
<path d="M7.2 7.2H12C12.2122 7.2 12.4157 7.28429 12.5657 7.43432C12.7157 7.58434 12.8 7.78783 12.8 8C12.8 8.21217 12.7157 8.41566 12.5657 8.56569C12.4157 8.71571 12.2122 8.8 12 8.8H7.2C6.98783 8.8 6.78434 8.71571 6.63431 8.56569C6.48428 8.41566 6.4 8.21217 6.4 8C6.4 7.78783 6.48428 7.58434 6.63431 7.43432C6.78434 7.28429 6.98783 7.2 7.2 7.2ZM4 4H12C12.2122 4 12.4157 4.08429 12.5657 4.23431C12.7157 4.38434 12.8 4.58783 12.8 4.8C12.8 5.01217 12.7157 5.21566 12.5657 5.36569C12.4157 5.51571 12.2122 5.6 12 5.6H4C3.78783 5.6 3.58434 5.51571 3.43431 5.36569C3.28428 5.21566 3.2 5.01217 3.2 4.8C3.2 4.58783 3.28428 4.38434 3.43431 4.23431C3.58434 4.08429 3.78783 4 4 4ZM2.4 0H13.6C14.2365 0 14.847 0.252857 15.2971 0.702944C15.7471 1.15303 16 1.76348 16 2.4V10.4C16 11.0365 15.7471 11.647 15.2971 12.0971C14.847 12.5471 14.2365 12.8 13.6 12.8H4.328L1.368 15.768C1.29325 15.8421 1.2046 15.9008 1.10713 15.9406C1.00966 15.9804 0.905284 16.0006 0.799999 16C0.695058 16.0027 0.590944 15.9808 0.496 15.936C0.349905 15.876 0.224843 15.7741 0.136576 15.6431C0.0483098 15.5121 0.00078767 15.3579 -7.15256e-07 15.2V2.4C-7.15256e-07 1.76348 0.252856 1.15303 0.702943 0.702944C1.15303 0.252857 1.76348 0 2.4 0ZM1.6 13.272L3.432 11.432C3.50675 11.3579 3.5954 11.2992 3.69287 11.2594C3.79034 11.2196 3.89471 11.1994 4 11.2H13.6C13.8122 11.2 14.0157 11.1157 14.1657 10.9657C14.3157 10.8157 14.4 10.6122 14.4 10.4V2.4C14.4 2.18783 14.3157 1.98434 14.1657 1.83431C14.0157 1.68429 13.8122 1.6 13.6 1.6H2.4C2.18783 1.6 1.98434 1.68429 1.83431 1.83431C1.68428 1.98434 1.6 2.18783 1.6 2.4V13.272Z" fill="white"/>
</svg>
