
<svg width="1920" height="50" viewBox="0 0 1920 50" fill="none" xmlns="http://www.w3.org/2000/svg">
<rect y="21" width="920" height="8" fill="#3068D3"/>
<rect x="1000" y="21" width="920" height="8" fill="#3068D3"/>
<path d="M944 50C937.37 50 931.011 47.3661 926.322 42.6777C921.634 37.9893 919 31.6304 919 25C919 18.3696 921.634 12.0107 926.322 7.32233C931.011 2.63392 937.37 -7.90669e-08 944 0L944 5C938.696 5 933.609 7.10714 929.858 10.8579C926.107 14.6086 924 19.6957 924 25C924 30.3043 926.107 35.3914 929.858 39.1421C933.609 42.8929 938.696 45 944 45L944 50Z" fill="#3068D3"/>
<circle cx="981" cy="25" r="20" fill="#3068D3"/>
</svg>
