<svg width="28" height="28" viewBox="0 0 28 28" fill="none" xmlns="http://www.w3.org/2000/svg">
<path fill-rule="evenodd" clip-rule="evenodd" d="M14 0.429688C13.4004 0.429688 12.9143 0.915777 12.9143 1.5154V12.9151H1.51394C0.914313 12.9151 0.428223 13.4012 0.428223 14.0008C0.428223 14.6004 0.914313 15.0865 1.51394 15.0865H12.9143V26.4868C12.9143 27.0865 13.4004 27.5725 14 27.5725C14.5996 27.5725 15.0857 27.0865 15.0857 26.4868V15.0865H26.4854C27.085 15.0865 27.5711 14.6004 27.5711 14.0008C27.5711 13.4012 27.085 12.9151 26.4854 12.9151H15.0857V1.5154C15.0857 0.915778 14.5996 0.429688 14 0.429688Z" fill="#343434"/>
</svg>
