<svg width="100" height="100" viewBox="0 0 100 100" fill="none" xmlns="http://www.w3.org/2000/svg">
<g clip-path="url(#clip0_3707_130)">
<rect width="100" height="100" rx="50" fill="white"/>
<path fill-rule="evenodd" clip-rule="evenodd" d="M50.0005 36.4297C49.4009 36.4297 48.9148 36.9158 48.9148 37.5154V48.9151H37.5144C36.9148 48.9151 36.4287 49.4012 36.4287 50.0008C36.4287 50.6004 36.9148 51.0865 37.5144 51.0865H48.9148V62.4868C48.9148 63.0865 49.4009 63.5725 50.0005 63.5725C50.6001 63.5725 51.0862 63.0865 51.0862 62.4868V51.0865H62.4859C63.0855 51.0865 63.5716 50.6004 63.5716 50.0008C63.5716 49.4012 63.0855 48.9151 62.4859 48.9151H51.0862V37.5154C51.0862 36.9158 50.6001 36.4297 50.0005 36.4297Z" fill="#343434"/>
</g>
<defs>
<clipPath id="clip0_3707_130">
<rect width="100" height="100" rx="50" fill="white"/>
</clipPath>
</defs>
</svg>
