<svg width="28" height="27" viewBox="0 0 28 27" fill="none" xmlns="http://www.w3.org/2000/svg">
<path fill-rule="evenodd" clip-rule="evenodd" d="M14.08 0C13.4835 0 13 0.483533 13 1.08V12.9193H1.58C0.983533 12.9193 0.5 13.4028 0.5 13.9993C0.5 14.5958 0.983533 15.0793 1.58 15.0793H13V25.92C13 26.5165 13.4835 27 14.08 27C14.6765 27 15.16 26.5165 15.16 25.92V15.0793H26.42C27.0165 15.0793 27.5 14.5958 27.5 13.9993C27.5 13.4028 27.0165 12.9193 26.42 12.9193H15.16V1.08C15.16 0.483533 14.6765 0 14.08 0Z" fill="#5387EC"/>
</svg>
