<svg width="392" height="320" viewBox="0 0 392 320" fill="none" xmlns="http://www.w3.org/2000/svg">
<g clip-path="url(#clip0_137_167)">
<path d="M236.52 296.086C242.195 299.894 248.661 319.142 248.661 319.142C248.661 319.142 228.421 320.463 222.748 316.657C221.398 315.752 220.239 314.59 219.338 313.236C218.437 311.883 217.811 310.365 217.497 308.769C217.182 307.174 217.184 305.531 217.503 303.937C217.822 302.342 218.452 300.825 219.356 299.474C220.261 298.123 221.423 296.964 222.775 296.062C224.127 295.161 225.643 294.535 227.237 294.22C228.831 293.906 230.471 293.908 232.064 294.229C233.657 294.549 235.171 295.18 236.52 296.086V296.086Z" fill="#F1F1F1"/>
<path d="M248.892 318.997L248.575 319.251C237.008 304.723 219.555 299.706 219.38 299.657L219.489 299.266C219.665 299.315 237.241 304.365 248.892 318.997Z" fill="white"/>
<path d="M266.871 288.409C266.509 297.868 248.548 319.469 248.548 319.469C248.548 319.469 232.3 296.549 232.661 287.094C232.835 282.552 234.804 278.265 238.135 275.177C241.466 272.089 245.886 270.452 250.423 270.626C254.959 270.8 259.24 272.772 262.325 276.107C265.41 279.442 267.045 283.867 266.871 288.409Z" fill="#F1F1F1"/>
<path d="M248.886 319.635L248.358 319.445C257.059 295.254 250.295 271.02 250.225 270.778L250.765 270.623C250.835 270.867 257.651 295.268 248.886 319.635Z" fill="white"/>
<path d="M202.38 234.586H48.4494C45.707 234.583 43.0779 233.491 41.1387 231.549C39.1996 229.608 38.1088 226.975 38.1057 224.23V48.108C38.1088 45.3624 39.1996 42.7301 41.1387 40.7886C43.0779 38.8472 45.707 37.7551 48.4494 37.752H202.38C205.122 37.7551 207.751 38.8471 209.691 40.7886C211.63 42.7301 212.721 45.3624 212.724 48.108V224.23C212.721 226.975 211.63 229.608 209.691 231.549C207.751 233.491 205.122 234.583 202.38 234.586Z" fill="#E6E6E6"/>
<path d="M195.187 225.954H55.6421C53.2072 225.951 50.8728 224.982 49.151 223.258C47.4293 221.534 46.4608 219.197 46.458 216.759V55.5779C46.4608 53.14 47.4293 50.8029 49.151 49.079C50.8728 47.3552 53.2072 46.3856 55.6421 46.3828H195.187C197.622 46.3856 199.956 47.3552 201.678 49.079C203.4 50.8028 204.368 53.14 204.371 55.5779V216.759C204.368 219.197 203.4 221.534 201.678 223.258C199.956 224.982 197.622 225.951 195.187 225.954Z" fill="white"/>
<path d="M189.636 69.3238H119.239C118.938 69.3242 118.639 69.2651 118.36 69.1497C118.081 69.0344 117.827 68.8652 117.614 68.6517C117.4 68.4382 117.231 68.1846 117.115 67.9056C117 67.6265 116.94 67.3273 116.94 67.0252C116.94 66.723 117 66.4239 117.115 66.1448C117.231 65.8657 117.4 65.6121 117.614 65.3986C117.827 65.1852 118.081 65.0159 118.36 64.9006C118.639 64.7853 118.938 64.7261 119.239 64.7266H189.636C189.937 64.7261 190.236 64.7853 190.515 64.9006C190.794 65.0159 191.048 65.1852 191.261 65.3986C191.475 65.6121 191.644 65.8657 191.76 66.1448C191.875 66.4239 191.935 66.723 191.935 67.0252C191.935 67.3273 191.875 67.6265 191.76 67.9056C191.644 68.1846 191.475 68.4382 191.261 68.6517C191.048 68.8652 190.794 69.0344 190.515 69.1497C190.236 69.2651 189.937 69.3242 189.636 69.3238Z" fill="#E4E4E4"/>
<path d="M189.636 78.406H119.239C118.63 78.406 118.046 78.1638 117.616 77.7327C117.185 77.3016 116.943 76.717 116.943 76.1073C116.943 75.4976 117.185 74.913 117.616 74.4819C118.046 74.0508 118.63 73.8086 119.239 73.8086H189.636C190.245 73.8086 190.829 74.0508 191.259 74.4819C191.69 74.913 191.932 75.4976 191.932 76.1073C191.932 76.717 191.69 77.3016 191.259 77.7327C190.829 78.1638 190.245 78.406 189.636 78.406Z" fill="#E4E4E4"/>
<path d="M149.754 87.49H119.239C118.63 87.49 118.046 87.2478 117.616 86.8167C117.185 86.3856 116.943 85.8009 116.943 85.1913C116.943 84.5816 117.185 83.997 117.616 83.5659C118.046 83.1348 118.63 82.8926 119.239 82.8926H149.754C150.363 82.8926 150.947 83.1348 151.378 83.5659C151.809 83.997 152.05 84.5816 152.05 85.1913C152.05 85.8009 151.809 86.3856 151.378 86.8167C150.947 87.2478 150.363 87.49 149.754 87.49Z" fill="#E4E4E4"/>
<path d="M181.147 124.173H70.0128C69.711 124.174 69.4121 124.115 69.1332 123.999C68.8542 123.884 68.6008 123.715 68.3872 123.501C68.1737 123.288 68.0043 123.034 67.8887 122.755C67.7731 122.476 67.7136 122.177 67.7136 121.875C67.7136 121.573 67.7731 121.273 67.8887 120.994C68.0043 120.715 68.1737 120.462 68.3872 120.248C68.6008 120.035 68.8542 119.866 69.1332 119.75C69.4121 119.635 69.711 119.576 70.0128 119.576H181.147C181.448 119.576 181.747 119.635 182.026 119.75C182.305 119.866 182.559 120.035 182.772 120.248C182.986 120.462 183.155 120.715 183.271 120.994C183.386 121.273 183.446 121.573 183.446 121.875C183.446 122.177 183.386 122.476 183.271 122.755C183.155 123.034 182.986 123.288 182.772 123.501C182.559 123.715 182.305 123.884 182.026 123.999C181.747 124.115 181.448 124.174 181.147 124.173Z" fill="#E4E4E4"/>
<path d="M181.147 133.258H70.0128C69.4038 133.258 68.8199 133.015 68.3893 132.584C67.9587 132.153 67.7168 131.569 67.7168 130.959C67.7168 130.349 67.9587 129.765 68.3893 129.333C68.8199 128.902 69.4038 128.66 70.0128 128.66H181.147C181.756 128.66 182.34 128.902 182.77 129.333C183.201 129.765 183.443 130.349 183.443 130.959C183.443 131.569 183.201 132.153 182.77 132.584C182.34 133.015 181.756 133.258 181.147 133.258Z" fill="#E4E4E4"/>
<path d="M181.147 153.875H70.0127C69.4038 153.875 68.8198 153.632 68.3892 153.201C67.9587 152.77 67.7168 152.186 67.7168 151.576C67.7168 150.966 67.9587 150.382 68.3892 149.951C68.8198 149.52 69.4038 149.277 70.0127 149.277H181.147C181.755 149.277 182.339 149.52 182.77 149.951C183.201 150.382 183.442 150.966 183.442 151.576C183.442 152.186 183.201 152.77 182.77 153.201C182.339 153.632 181.755 153.875 181.147 153.875Z" fill="#E4E4E4"/>
<path d="M181.147 162.957H70.0128C69.4038 162.957 68.8199 162.715 68.3893 162.284C67.9587 161.852 67.7168 161.268 67.7168 160.658C67.7168 160.048 67.9587 159.464 68.3893 159.033C68.8199 158.602 69.4038 158.359 70.0128 158.359H181.147C181.756 158.359 182.34 158.602 182.77 159.033C183.201 159.464 183.443 160.048 183.443 160.658C183.443 161.268 183.201 161.852 182.77 162.284C182.34 162.715 181.756 162.957 181.147 162.957Z" fill="#E4E4E4"/>
<path d="M181.147 183.576H70.0127C69.4038 183.576 68.8198 183.334 68.3892 182.902C67.9587 182.471 67.7168 181.887 67.7168 181.277C67.7168 180.667 67.9587 180.083 68.3892 179.652C68.8198 179.221 69.4038 178.979 70.0127 178.979H181.147C181.755 178.979 182.339 179.221 182.77 179.652C183.201 180.083 183.442 180.667 183.442 181.277C183.442 181.887 183.201 182.471 182.77 182.902C182.339 183.334 181.755 183.576 181.147 183.576Z" fill="#E4E4E4"/>
<path d="M181.147 192.658H70.0128C69.4038 192.658 68.8199 192.416 68.3893 191.985C67.9587 191.554 67.7168 190.969 67.7168 190.359C67.7168 189.75 67.9587 189.165 68.3893 188.734C68.8199 188.303 69.4038 188.061 70.0128 188.061H181.147C181.756 188.061 182.34 188.303 182.77 188.734C183.201 189.165 183.443 189.75 183.443 190.359C183.443 190.969 183.201 191.554 182.77 191.985C182.34 192.416 181.756 192.658 181.147 192.658Z" fill="#E4E4E4"/>
<path d="M181.127 217.818H150.612C150.003 217.818 149.419 217.576 148.988 217.145C148.558 216.714 148.316 216.129 148.316 215.519C148.316 214.91 148.558 214.325 148.988 213.894C149.419 213.463 150.003 213.221 150.612 213.221H181.127C181.736 213.221 182.32 213.463 182.75 213.894C183.181 214.325 183.423 214.91 183.423 215.519C183.423 216.129 183.181 216.714 182.75 217.145C182.32 217.576 181.736 217.818 181.127 217.818Z" fill="#3068D3"/>
<path d="M99.7523 76.3763C99.7586 81.3128 98.0894 86.1049 95.0184 89.967C94.0251 91.224 92.8942 92.3657 91.6469 93.3705C88.2431 96.135 84.0844 97.8051 79.716 98.1617C79.1213 98.2133 78.5218 98.2367 77.9177 98.2367C76.7207 98.237 75.5258 98.1382 74.3451 97.9414C73.9285 97.8758 73.521 97.7961 73.1136 97.7023C72.4045 97.5443 71.7043 97.3487 71.0159 97.1163C68.7834 96.3724 66.6864 95.2704 64.8068 93.8534C64.3058 93.4784 63.8236 93.0799 63.3554 92.658C62.7827 92.1494 62.2401 91.6078 61.7305 91.0359C61.5947 90.8859 61.4588 90.7312 61.3278 90.5765C59.0431 87.8992 57.4383 84.7088 56.6502 81.2769C55.8621 77.845 55.914 74.2732 56.8015 70.8657C57.6889 67.4582 59.3857 64.3159 61.7473 61.7062C64.1088 59.0966 67.0653 57.0969 70.3649 55.8775C73.6646 54.6581 77.2096 54.2551 80.6984 54.7027C84.1871 55.1503 87.5161 56.4353 90.402 58.4483C93.2879 60.4613 95.6452 63.1427 97.2732 66.2642C98.9012 69.3857 99.7517 72.8549 99.7523 76.3763L99.7523 76.3763Z" fill="#E4E4E4"/>
<path d="M77.1579 83.8386C82.0996 83.8386 86.1056 79.8278 86.1056 74.8803C86.1056 69.9327 82.0996 65.9219 77.1579 65.9219C72.2162 65.9219 68.2102 69.9327 68.2102 74.8803C68.2102 79.8278 72.2162 83.8386 77.1579 83.8386Z" fill="#9E616A"/>
<path d="M87.1191 70.5132C87.1597 69.7127 86.934 68.9214 86.4775 68.2629L86.1545 67.8035C84.9884 65.5532 83.064 63.528 81.6547 62.0466C80.5963 60.9355 79.5382 60.4011 78.5219 60.4526C77.7824 60.5055 77.0939 60.8493 76.6068 61.409C75.2686 61.3272 73.9357 61.638 72.7713 62.3033C71.6069 62.9686 70.6616 63.9596 70.0514 65.1548C65.7669 67.4191 67.0452 74.1043 67.0592 74.1746L68.0942 75.9139L68.2113 75.6935C68.2113 75.6888 68.2252 75.6701 68.244 75.6326C68.4454 75.2716 69.541 73.2651 70.2809 71.9946C70.551 71.5613 70.9101 71.1905 71.3345 70.907C72.0274 70.433 72.8239 70.1323 73.657 70.0303L75.9326 69.735L75.0711 71.0289H81.2706L83.6539 70.7476C83.8928 71.7274 85.7845 75.5294 86.0138 75.9889L86.0326 76.0264L86.159 76.2842L86.8662 74.3387C87.279 73.1068 87.3662 71.7888 87.1191 70.5132Z" fill="#2F2E41"/>
<path d="M64.8724 93.901C65.2564 93.3947 67.2465 91.0319 71.8259 89.7802L74.2515 87.0752L83.977 85.5234L88.9263 88.2613L95.0183 89.9677C94.025 91.2248 92.8941 92.3664 91.6469 93.3713C88.2431 96.1357 84.0843 97.8058 79.7159 98.1625C79.1212 98.2141 78.5219 98.2375 77.9178 98.2375C76.7208 98.2378 75.5258 98.139 74.3451 97.9421C73.9284 97.8765 73.521 97.7968 73.1136 97.703C72.4045 97.5451 71.7042 97.3495 71.0159 97.117C68.8086 96.3828 66.7342 95.2969 64.8724 93.901C64.849 93.887 64.8303 93.8682 64.8069 93.8541L64.8724 93.901Z" fill="#3068D3"/>
<path d="M249.44 10.9648H1.38941C1.02104 10.9644 0.667873 10.8177 0.407395 10.5569C0.146917 10.2961 0.000401574 9.9425 0 9.57369V1.39106C0.000401574 1.02225 0.146917 0.668666 0.407395 0.407877C0.667873 0.147089 1.02104 0.000402053 1.38941 0H249.44C249.808 0.000402053 250.161 0.147089 250.422 0.407877C250.682 0.668666 250.829 1.02225 250.829 1.39106V9.57369C250.829 9.9425 250.682 10.2961 250.422 10.5569C250.161 10.8177 249.808 10.9644 249.44 10.9648Z" fill="#3068D3"/>
<path d="M8.06343 7.05735C9.15288 7.05735 10.036 6.17313 10.036 5.08239C10.036 3.99164 9.15288 3.10742 8.06343 3.10742C6.97399 3.10742 6.09082 3.99164 6.09082 5.08239C6.09082 6.17313 6.97399 7.05735 8.06343 7.05735Z" fill="white"/>
<path d="M15.5507 7.05735C16.6402 7.05735 17.5233 6.17313 17.5233 5.08239C17.5233 3.99164 16.6402 3.10742 15.5507 3.10742C14.4613 3.10742 13.5781 3.99164 13.5781 5.08239C13.5781 6.17313 14.4613 7.05735 15.5507 7.05735Z" fill="white"/>
<path d="M23.0385 7.05735C24.128 7.05735 25.0111 6.17313 25.0111 5.08239C25.0111 3.99164 24.128 3.10742 23.0385 3.10742C21.9491 3.10742 21.0659 3.99164 21.0659 5.08239C21.0659 6.17313 21.9491 7.05735 23.0385 7.05735Z" fill="white"/>
<path d="M242.104 3.72419H233.482C233.313 3.72275 233.152 3.65474 233.034 3.53498C232.915 3.41523 232.849 3.25341 232.849 3.08477C232.849 2.91612 232.915 2.7543 233.034 2.63454C233.152 2.51478 233.313 2.44678 233.482 2.44534H242.104C242.188 2.44461 242.272 2.46062 242.35 2.49243C242.428 2.52424 242.499 2.57123 242.559 2.63067C242.619 2.69012 242.666 2.76085 242.699 2.83879C242.731 2.91673 242.748 3.00033 242.748 3.08477C242.748 3.1692 242.731 3.2528 242.699 3.33074C242.666 3.40867 242.619 3.47941 242.559 3.53886C242.499 3.59831 242.428 3.64529 242.35 3.6771C242.272 3.70891 242.188 3.72492 242.104 3.72419Z" fill="white"/>
<path d="M242.104 6.12263H233.482C233.312 6.12263 233.15 6.05526 233.03 5.93535C232.91 5.81543 232.843 5.65279 232.843 5.4832C232.843 5.31361 232.91 5.15097 233.03 5.03106C233.15 4.91114 233.312 4.84377 233.482 4.84377H242.104C242.188 4.84305 242.272 4.85905 242.35 4.89086C242.428 4.92267 242.499 4.96966 242.559 5.02911C242.619 5.08856 242.666 5.15929 242.699 5.23723C242.731 5.31517 242.748 5.39877 242.748 5.4832C242.748 5.56764 242.731 5.65124 242.699 5.72917C242.666 5.80711 242.619 5.87785 242.559 5.9373C242.499 5.99674 242.428 6.04373 242.35 6.07554C242.272 6.10735 242.188 6.12335 242.104 6.12263Z" fill="white"/>
<path d="M242.104 8.5191H233.482C233.313 8.51773 233.152 8.44975 233.033 8.32999C232.915 8.21022 232.848 8.04836 232.848 7.87966C232.848 7.71097 232.915 7.54911 233.033 7.42935C233.152 7.30958 233.313 7.2416 233.482 7.24023H242.104C242.272 7.2416 242.433 7.30958 242.552 7.42935C242.671 7.54911 242.737 7.71097 242.737 7.87966C242.737 8.04836 242.671 8.21022 242.552 8.32999C242.433 8.44975 242.272 8.51773 242.104 8.5191Z" fill="white"/>
<path d="M310.203 220.045C309.807 219.613 309.509 219.098 309.332 218.539C309.156 217.979 309.103 217.387 309.18 216.805C309.256 216.223 309.459 215.665 309.774 215.17C310.089 214.674 310.509 214.254 311.003 213.939L307.716 200.053L314.674 202.598L316.729 215.394C317.202 216.262 317.342 217.273 317.121 218.236C316.9 219.199 316.333 220.048 315.529 220.621C314.725 221.195 313.739 221.452 312.757 221.346C311.775 221.24 310.867 220.777 310.203 220.045Z" fill="#9E616A"/>
<path d="M293.472 161.852L296.265 169.041C296.265 169.041 295.068 176.229 297.062 177.827C299.057 179.424 298.259 179.424 298.259 180.622C298.328 181.482 298.576 182.317 298.989 183.074C299.401 183.831 299.968 184.492 300.652 185.015C302.248 186.213 309.428 210.575 309.428 210.575H316.608C316.376 208.718 316.376 206.84 316.608 204.983C317.007 202.188 315.411 194.999 314.613 193.801C313.816 192.603 314.613 191.006 314.613 188.61C314.613 186.213 313.018 185.015 313.018 181.022C313.018 177.028 308.231 145.878 308.63 142.283C309.029 138.689 304.641 135.494 304.641 135.494H300.652L293.472 161.852Z" fill="#E4E4E4"/>
<path d="M311.834 313.737H306.528L304.004 293.244L311.835 293.245L311.834 313.737Z" fill="#9E616A"/>
<path d="M313.188 318.886L296.078 318.885V318.669C296.078 316.9 296.779 315.204 298.028 313.954C299.277 312.703 300.971 312.001 302.737 312.001H302.738L305.863 309.627L311.695 312.001L313.188 312.001L313.188 318.886Z" fill="#2F2E41"/>
<path d="M263.291 313.583L258.308 311.758L262.968 291.645L270.323 294.339L263.291 313.583Z" fill="#9E616A"/>
<path d="M262.795 318.887L246.726 313.001L246.8 312.797C247.407 311.137 248.648 309.785 250.25 309.041C251.852 308.296 253.684 308.219 255.343 308.826L255.343 308.826L259.093 307.672L263.755 311.907L265.157 312.421L262.795 318.887Z" fill="#2F2E41"/>
<path d="M300.144 217.912C300.144 217.912 296.554 235.484 302.537 233.887C308.52 232.289 306.127 217.113 306.127 217.113L300.144 217.912Z" fill="#A0616A"/>
<path d="M273.817 203.334C273.817 203.334 269.03 209.724 269.03 213.318C269.03 216.912 267.435 248.861 267.435 248.861C267.435 248.861 255.324 296.438 257.717 298.834C260.11 301.23 268.487 303.626 269.684 302.428C270.88 301.23 281.396 252.056 281.396 252.056L291.368 225.299L300.542 263.638L301.34 304.373C301.34 304.373 311.312 306.769 313.307 305.172C315.301 303.574 315.7 264.836 313.307 251.258C310.914 237.679 313.706 206.529 313.706 206.529L273.817 203.334Z" fill="#2F2E41"/>
<path d="M289.814 118.071C296.423 118.071 301.78 112.707 301.78 106.09C301.78 99.4734 296.423 94.1094 289.814 94.1094C283.205 94.1094 277.847 99.4734 277.847 106.09C277.847 112.707 283.205 118.071 289.814 118.071Z" fill="#9E616A"/>
<path d="M274.615 135.442C274.615 135.442 278.06 130.302 284.841 123.513C288.431 122.315 294.652 123.013 296.808 123.513C306.78 136.692 307.408 135.817 310.004 143.18C310.677 145.09 311.013 146.924 310.714 148.422C309.517 154.412 313.307 202.935 313.706 204.532C314.105 206.13 316.897 208.127 314.105 208.127C311.312 208.127 269.03 206.529 269.828 205.331C270.626 204.133 274.615 135.442 274.615 135.442Z" fill="#E4E4E4"/>
<path opacity="0.1" d="M272.788 204.805L284.787 178.375L278.787 206.484L272.788 204.805Z" fill="black"/>
<path d="M286.194 117.189C287.314 116.354 288.346 115.406 289.272 114.36C290.202 113.305 290.785 111.988 290.94 110.588C291.008 109.891 290.898 109.187 290.622 108.544C290.345 107.9 289.91 107.337 289.358 106.906C288.218 106.1 286.48 106.147 285.534 107.174C285.991 105.695 286.408 103.95 285.483 102.71C284.64 101.581 283.069 101.389 281.711 101.017C279.093 100.287 276.84 98.6069 275.393 96.3042L277.698 96.7818L277.441 95.1364L279.351 95.8014L279.368 93.5097L281.34 94.6142C283.754 92.3985 286.935 91.2119 290.208 91.306C291.859 91.3335 293.477 91.7781 294.911 92.5984C296.347 93.4305 297.435 94.7543 297.974 96.326C298.989 95.2713 300.799 95.3528 302.008 96.1771C303.217 97.0014 303.927 98.3804 304.415 99.7611C305.381 102.409 305.605 105.271 305.065 108.037C304.508 110.81 303.016 113.307 300.838 115.108C298.838 116.637 296.457 117.585 293.955 117.85C291.463 118.108 288.947 118.001 286.486 117.53" fill="#2F2E41"/>
<path d="M269.053 219.992C269.449 219.56 269.747 219.046 269.924 218.486C270.1 217.926 270.153 217.334 270.076 216.752C270 216.17 269.797 215.612 269.482 215.117C269.167 214.622 268.747 214.202 268.253 213.887L271.54 200L264.582 202.545L262.527 215.342C262.054 216.209 261.914 217.22 262.135 218.183C262.356 219.147 262.922 219.995 263.727 220.569C264.531 221.142 265.517 221.4 266.499 221.294C267.481 221.187 268.389 220.724 269.053 219.992V219.992Z" fill="#9E616A"/>
<path d="M278.604 135.443H274.615C274.615 135.443 270.227 138.638 270.626 142.233C271.025 145.827 266.238 176.977 266.238 180.971C266.238 184.964 264.643 186.163 264.643 188.559C264.643 190.955 265.44 192.552 264.643 193.751C263.845 194.949 262.249 202.137 262.648 204.933C262.88 206.789 262.88 208.667 262.648 210.524H269.828C269.828 210.524 277.008 186.163 278.604 184.964C279.288 184.441 279.855 183.78 280.267 183.023C280.68 182.266 280.928 181.431 280.997 180.571C280.997 179.373 280.199 179.373 282.194 177.776C284.188 176.178 282.991 168.99 282.991 168.99L285.784 161.801L278.604 135.443Z" fill="#E4E4E4"/>
<path d="M391.442 319.999H172.633C172.56 319.999 172.487 319.985 172.419 319.957C172.351 319.929 172.29 319.888 172.238 319.836C172.186 319.784 172.144 319.723 172.116 319.655C172.088 319.587 172.074 319.514 172.074 319.441C172.074 319.368 172.088 319.295 172.116 319.227C172.144 319.159 172.186 319.098 172.238 319.046C172.29 318.994 172.351 318.953 172.419 318.925C172.487 318.897 172.56 318.883 172.633 318.883H391.442C391.516 318.883 391.588 318.897 391.656 318.925C391.724 318.953 391.786 318.994 391.838 319.046C391.89 319.098 391.931 319.159 391.959 319.227C391.987 319.295 392.002 319.368 392.002 319.441C392.002 319.514 391.987 319.587 391.959 319.655C391.931 319.723 391.89 319.784 391.838 319.836C391.786 319.888 391.724 319.929 391.656 319.957C391.588 319.985 391.516 319.999 391.442 319.999Z" fill="#CACACA"/>
</g>
<defs>
<clipPath id="clip0_137_167">
<rect width="392" height="320" fill="white"/>
</clipPath>
</defs>
</svg>
