<svg width="30" height="32" viewBox="0 0 30 32" fill="none" xmlns="http://www.w3.org/2000/svg">
<path d="M29.0241 28.801V14.3408C29.0241 13.5861 28.4179 12.9743 27.6698 12.9743H21.2382V9.03994C21.2382 8.66834 21.0386 8.32586 20.7172 8.1449L15.4949 5.20657C15.4662 5.19033 15.4364 5.17609 15.4065 5.16297V3.48617H18.2187C18.443 3.48617 18.625 3.30257 18.625 3.07617V1.00528C18.625 0.778882 18.443 0.595281 18.2187 0.595281H15.4065V0.410001C15.4065 0.1836 15.2247 0 15.0002 0C14.7758 0 14.5939 0.1836 14.5939 0.410001V5.16297C14.564 5.17617 14.5343 5.19041 14.5055 5.20657L9.28322 8.14498C8.96145 8.32586 8.76203 8.66842 8.76203 9.04002V12.9743H2.33026C1.58221 12.9743 0.975937 13.5861 0.975937 14.3408L0.975937 28.8009C0.400509 29.0636 0 29.6475 0 30.326C0 31.2506 0.742816 32 1.65913 32H28.3409C29.2572 32 30 31.2506 30 30.326C29.9999 29.6475 29.5995 29.0636 29.0241 28.801ZM23.7889 17.7373C23.7889 17.2977 24.1422 16.9413 24.5782 16.9413H26.0534C26.4891 16.9413 26.8424 17.2977 26.8424 17.7373V19.2259C26.8424 19.6655 26.4891 20.0219 26.0534 20.0219H24.5783C24.1422 20.0219 23.789 19.6655 23.789 19.2259V17.7373H23.7889ZM23.7889 22.5201C23.7889 22.0805 24.1422 21.7241 24.5782 21.7241H26.0534C26.4891 21.7241 26.8424 22.0805 26.8424 22.5201V24.0085C26.8424 24.4481 26.4891 24.8045 26.0534 24.8045H24.5783C24.1422 24.8045 23.789 24.4481 23.789 24.0085V22.5201H23.7889ZM19.0487 17.7373C19.0487 17.2977 19.4018 16.9413 19.8375 16.9413H21.3129C21.7484 16.9413 22.1018 17.2977 22.1018 17.7373V19.2259C22.1018 19.6655 21.7484 20.0219 21.3129 20.0219H19.8375C19.4018 20.0219 19.0487 19.6655 19.0487 19.2259V17.7373ZM19.0487 22.5201C19.0487 22.0805 19.4018 21.7241 19.8375 21.7241H21.3129C21.7484 21.7241 22.1018 22.0805 22.1018 22.5201V24.0085C22.1018 24.4481 21.7484 24.8045 21.3129 24.8045H19.8375C19.4018 24.8045 19.0487 24.4481 19.0487 24.0085V22.5201ZM15 9.04314C16.2343 9.04314 17.2349 10.0526 17.2349 11.2979C17.2349 12.5432 16.2344 13.5525 15 13.5525C13.7657 13.5525 12.7652 12.5431 12.7652 11.2978C12.7652 10.0525 13.7657 9.04314 15 9.04314ZM12.7621 21.9869C12.7621 21.5473 13.1153 21.1909 13.5513 21.1909H16.4488C16.8846 21.1909 17.2377 21.5473 17.2377 21.9869V28.2582C17.2377 28.4017 17.1997 28.5362 17.1337 28.6525H12.8666C12.8006 28.5362 12.7624 28.4017 12.7624 28.2582L12.7621 21.9869ZM7.89805 17.7373C7.89805 17.2977 8.25122 16.9413 8.68694 16.9413H10.1623C10.598 16.9413 10.9511 17.2977 10.9511 17.7373V19.2259C10.9511 19.6655 10.598 20.0219 10.1623 20.0219H8.68694C8.25122 20.0219 7.89805 19.6655 7.89805 19.2259V17.7373ZM7.89805 22.5201C7.89805 22.0805 8.25122 21.7241 8.68694 21.7241H10.1623C10.598 21.7241 10.9511 22.0805 10.9511 22.5201V24.0085C10.9511 24.4481 10.598 24.8045 10.1623 24.8045H8.68694C8.25122 24.8045 7.89805 24.4481 7.89805 24.0085V22.5201ZM3.15736 17.7373C3.15736 17.2977 3.51054 16.9413 3.94649 16.9413H5.42165C5.85753 16.9413 6.21078 17.2977 6.21078 17.7373V19.2259C6.21078 19.6655 5.85753 20.0219 5.42165 20.0219H3.94657C3.51061 20.0219 3.15744 19.6655 3.15744 19.2259V17.7373H3.15736ZM3.15736 22.5201C3.15736 22.0805 3.51054 21.7241 3.94649 21.7241H5.42165C5.85753 21.7241 6.21078 22.0805 6.21078 22.5201V24.0085C6.21078 24.4481 5.85753 24.8045 5.42165 24.8045H3.94657C3.51061 24.8045 3.15744 24.4481 3.15744 24.0085V22.5201H3.15736Z" fill="#5387EC"/>
</svg>
