<svg width="1330" height="930" viewBox="0 0 1330 930" fill="none" xmlns="http://www.w3.org/2000/svg">
<g filter="url(#filter0_d_4510_117)">
<g clip-path="url(#clip0_4510_117)">
<rect x="15" y="11" width="1300" height="900" rx="5" fill="#F9F9F9"/>
<g filter="url(#filter1_d_4510_117)">
<path fill-rule="evenodd" clip-rule="evenodd" d="M682 911C806.563 801.058 885.126 640.204 885.126 461C885.126 281.796 806.563 120.942 682 11H1315.11V911H682Z" fill="url(#paint0_linear_4510_117)"/>
</g>
<path d="M178.84 254V251.975H171.615C171.298 251.975 170.957 252 170.59 252.05C170.24 252.1 169.89 252.175 169.54 252.275L174.665 247.2C175.182 246.683 175.673 246.175 176.14 245.675C176.607 245.158 177.015 244.633 177.365 244.1C177.715 243.55 177.99 242.983 178.19 242.4C178.39 241.817 178.49 241.183 178.49 240.5C178.49 239.683 178.348 238.958 178.065 238.325C177.782 237.692 177.39 237.158 176.89 236.725C176.39 236.275 175.798 235.933 175.115 235.7C174.448 235.467 173.723 235.35 172.94 235.35C172.157 235.35 171.423 235.467 170.74 235.7C170.057 235.917 169.448 236.25 168.915 236.7C168.398 237.133 167.965 237.675 167.615 238.325C167.265 238.958 167.032 239.7 166.915 240.55L169.165 240.925C169.165 240.392 169.257 239.908 169.44 239.475C169.623 239.042 169.873 238.667 170.19 238.35C170.523 238.017 170.915 237.767 171.365 237.6C171.815 237.417 172.298 237.325 172.815 237.325C173.765 237.325 174.557 237.592 175.19 238.125C175.823 238.642 176.157 239.45 176.19 240.55C176.19 241.083 176.107 241.592 175.94 242.075C175.773 242.542 175.54 243.008 175.24 243.475C174.957 243.942 174.607 244.408 174.19 244.875C173.79 245.325 173.348 245.808 172.865 246.325L166.54 252.4V254H178.84ZM194.332 244.875C194.332 243.242 194.157 241.833 193.807 240.65C193.457 239.45 192.982 238.458 192.382 237.675C191.782 236.892 191.074 236.317 190.257 235.95C189.441 235.567 188.557 235.375 187.607 235.375C186.657 235.375 185.774 235.567 184.957 235.95C184.141 236.317 183.424 236.892 182.807 237.675C182.207 238.458 181.732 239.45 181.382 240.65C181.049 241.833 180.882 243.242 180.882 244.875C180.882 246.492 181.049 247.9 181.382 249.1C181.732 250.283 182.207 251.267 182.807 252.05C183.424 252.833 184.141 253.417 184.957 253.8C185.774 254.167 186.657 254.35 187.607 254.35C188.557 254.35 189.441 254.167 190.257 253.8C191.074 253.417 191.782 252.833 192.382 252.05C192.982 251.267 193.457 250.283 193.807 249.1C194.157 247.9 194.332 246.492 194.332 244.875ZM192.032 244.875C192.032 246.292 191.907 247.492 191.657 248.475C191.424 249.442 191.099 250.225 190.682 250.825C190.282 251.425 189.816 251.858 189.282 252.125C188.749 252.375 188.191 252.5 187.607 252.5C187.024 252.5 186.466 252.375 185.932 252.125C185.399 251.858 184.932 251.425 184.532 250.825C184.132 250.225 183.807 249.442 183.557 248.475C183.324 247.492 183.207 246.292 183.207 244.875C183.207 243.442 183.324 242.242 183.557 241.275C183.807 240.292 184.132 239.508 184.532 238.925C184.932 238.325 185.399 237.9 185.932 237.65C186.466 237.383 187.024 237.25 187.607 237.25C188.191 237.25 188.749 237.383 189.282 237.65C189.816 237.9 190.282 238.325 190.682 238.925C191.099 239.508 191.424 240.292 191.657 241.275C191.907 242.242 192.032 243.442 192.032 244.875ZM208.625 254V251.975H201.4C201.083 251.975 200.742 252 200.375 252.05C200.025 252.1 199.675 252.175 199.325 252.275L204.45 247.2C204.967 246.683 205.458 246.175 205.925 245.675C206.392 245.158 206.8 244.633 207.15 244.1C207.5 243.55 207.775 242.983 207.975 242.4C208.175 241.817 208.275 241.183 208.275 240.5C208.275 239.683 208.133 238.958 207.85 238.325C207.567 237.692 207.175 237.158 206.675 236.725C206.175 236.275 205.583 235.933 204.9 235.7C204.233 235.467 203.508 235.35 202.725 235.35C201.942 235.35 201.208 235.467 200.525 235.7C199.842 235.917 199.233 236.25 198.7 236.7C198.183 237.133 197.75 237.675 197.4 238.325C197.05 238.958 196.817 239.7 196.7 240.55L198.95 240.925C198.95 240.392 199.042 239.908 199.225 239.475C199.408 239.042 199.658 238.667 199.975 238.35C200.308 238.017 200.7 237.767 201.15 237.6C201.6 237.417 202.083 237.325 202.6 237.325C203.55 237.325 204.342 237.592 204.975 238.125C205.608 238.642 205.942 239.45 205.975 240.55C205.975 241.083 205.892 241.592 205.725 242.075C205.558 242.542 205.325 243.008 205.025 243.475C204.742 243.942 204.392 244.408 203.975 244.875C203.575 245.325 203.133 245.808 202.65 246.325L196.325 252.4V254H208.625ZM223.518 254V251.975H216.293C215.976 251.975 215.634 252 215.268 252.05C214.918 252.1 214.568 252.175 214.218 252.275L219.343 247.2C219.859 246.683 220.351 246.175 220.818 245.675C221.284 245.158 221.693 244.633 222.043 244.1C222.393 243.55 222.668 242.983 222.868 242.4C223.068 241.817 223.168 241.183 223.168 240.5C223.168 239.683 223.026 238.958 222.743 238.325C222.459 237.692 222.068 237.158 221.568 236.725C221.068 236.275 220.476 235.933 219.793 235.7C219.126 235.467 218.401 235.35 217.618 235.35C216.834 235.35 216.101 235.467 215.418 235.7C214.734 235.917 214.126 236.25 213.593 236.7C213.076 237.133 212.643 237.675 212.293 238.325C211.943 238.958 211.709 239.7 211.593 240.55L213.843 240.925C213.843 240.392 213.934 239.908 214.118 239.475C214.301 239.042 214.551 238.667 214.868 238.35C215.201 238.017 215.593 237.767 216.043 237.6C216.493 237.417 216.976 237.325 217.493 237.325C218.443 237.325 219.234 237.592 219.868 238.125C220.501 238.642 220.834 239.45 220.868 240.55C220.868 241.083 220.784 241.592 220.618 242.075C220.451 242.542 220.218 243.008 219.918 243.475C219.634 243.942 219.284 244.408 218.868 244.875C218.468 245.325 218.026 245.808 217.543 246.325L211.218 252.4V254H223.518Z" fill="#3068D3"/>
<rect x="240" y="242.5" width="6" height="6" rx="3" fill="#3068D3"/>
<path d="M274.681 254V251.975H267.456C267.139 251.975 266.797 252 266.431 252.05C266.081 252.1 265.731 252.175 265.381 252.275L270.506 247.2C271.022 246.683 271.514 246.175 271.981 245.675C272.447 245.158 272.856 244.633 273.206 244.1C273.556 243.55 273.831 242.983 274.031 242.4C274.231 241.817 274.331 241.183 274.331 240.5C274.331 239.683 274.189 238.958 273.906 238.325C273.622 237.692 273.231 237.158 272.731 236.725C272.231 236.275 271.639 235.933 270.956 235.7C270.289 235.467 269.564 235.35 268.781 235.35C267.997 235.35 267.264 235.467 266.581 235.7C265.897 235.917 265.289 236.25 264.756 236.7C264.239 237.133 263.806 237.675 263.456 238.325C263.106 238.958 262.872 239.7 262.756 240.55L265.006 240.925C265.006 240.392 265.097 239.908 265.281 239.475C265.464 239.042 265.714 238.667 266.031 238.35C266.364 238.017 266.756 237.767 267.206 237.6C267.656 237.417 268.139 237.325 268.656 237.325C269.606 237.325 270.397 237.592 271.031 238.125C271.664 238.642 271.997 239.45 272.031 240.55C272.031 241.083 271.947 241.592 271.781 242.075C271.614 242.542 271.381 243.008 271.081 243.475C270.797 243.942 270.447 244.408 270.031 244.875C269.631 245.325 269.189 245.808 268.706 246.325L262.381 252.4V254H274.681ZM277.348 237.45H290.573V235.8H284.973V233.3H282.923V235.8H277.348V237.45ZM294.673 241.325H297.998V239.625H294.673V233.45H292.623V247.45H294.673V241.325ZM289.323 242.675C289.323 242.058 289.19 241.5 288.923 241C288.673 240.5 288.307 240.075 287.823 239.725C287.357 239.358 286.79 239.083 286.123 238.9C285.473 238.7 284.748 238.6 283.948 238.6C283.148 238.6 282.423 238.7 281.773 238.9C281.123 239.083 280.557 239.35 280.073 239.7C279.607 240.05 279.24 240.475 278.973 240.975C278.723 241.475 278.598 242.033 278.598 242.65C278.598 243.267 278.723 243.825 278.973 244.325C279.24 244.825 279.607 245.25 280.073 245.6C280.557 245.95 281.123 246.225 281.773 246.425C282.423 246.608 283.148 246.7 283.948 246.7C284.748 246.7 285.473 246.608 286.123 246.425C286.79 246.225 287.357 245.95 287.823 245.6C288.307 245.25 288.673 244.833 288.923 244.35C289.19 243.85 289.323 243.292 289.323 242.675ZM280.548 242.675C280.548 241.925 280.848 241.325 281.448 240.875C282.065 240.425 282.898 240.2 283.948 240.2C284.998 240.2 285.832 240.425 286.448 240.875C287.065 241.308 287.373 241.9 287.373 242.65C287.373 243.4 287.065 244 286.448 244.45C285.832 244.9 284.998 245.125 283.948 245.125C282.898 245.125 282.065 244.908 281.448 244.475C280.848 244.025 280.548 243.425 280.548 242.675ZM294.673 248.675H280.123V250.35H292.623V255.875H294.673V248.675ZM310.346 242.275H316.671V250.05H318.746V233.45H316.671V236.35H310.346V238H316.671V240.65H310.346V242.275ZM313.196 245.9L312.971 244.2C311.288 244.5 309.696 244.708 308.196 244.825C306.696 244.925 305.171 244.983 303.621 245V235.05H301.571V246.725H303.271C304.921 246.725 306.538 246.675 308.121 246.575C309.705 246.458 311.396 246.233 313.196 245.9ZM319.321 255.35V253.675H306.421V248.625H304.371V255.35H319.321Z" fill="#3068D3"/>
<path d="M187.455 346H193.35L185.25 331.96C187.35 331.3 189.03 330.205 190.29 328.675C191.55 327.145 192.18 325.075 192.18 322.465C192.18 320.665 191.88 319.165 191.28 317.965C190.68 316.735 189.84 315.745 188.76 314.995C187.68 314.245 186.405 313.705 184.935 313.375C183.495 313.045 181.92 312.88 180.21 312.88H169.365V346H174.585V332.635H179.94L187.455 346ZM174.585 328.45V317.065H179.58C182.01 317.065 183.855 317.47 185.115 318.28C186.375 319.06 187.005 320.455 187.005 322.465C187.005 324.475 186.375 325.975 185.115 326.965C183.855 327.955 182.01 328.45 179.58 328.45H174.585ZM198.852 312.88V346H218.922V341.59H204.072V330.88H216.222V326.47H204.072V317.245H218.427V312.88H198.852ZM235.24 346.585C237.04 346.585 238.66 346.33 240.1 345.82C241.54 345.31 242.755 344.62 243.745 343.75C244.765 342.88 245.545 341.86 246.085 340.69C246.625 339.52 246.895 338.275 246.895 336.955C246.895 335.725 246.73 334.66 246.4 333.76C246.07 332.83 245.605 332.005 245.005 331.285C244.405 330.565 243.685 329.95 242.845 329.44C242.035 328.9 241.135 328.42 240.145 328L235.6 326.065C234.94 325.795 234.28 325.525 233.62 325.255C232.99 324.955 232.42 324.61 231.91 324.22C231.43 323.83 231.025 323.395 230.695 322.915C230.395 322.405 230.245 321.79 230.245 321.07C230.245 319.72 230.74 318.67 231.73 317.92C232.75 317.17 234.115 316.795 235.825 316.795C237.295 316.795 238.615 317.065 239.785 317.605C240.955 318.115 242.065 318.835 243.115 319.765L245.86 316.435C244.6 315.145 243.1 314.125 241.36 313.375C239.65 312.625 237.805 312.25 235.825 312.25C234.265 312.25 232.81 312.49 231.46 312.97C230.14 313.42 228.985 314.05 227.995 314.86C227.035 315.67 226.285 316.63 225.745 317.74C225.205 318.85 224.935 320.065 224.935 321.385C224.935 322.585 225.13 323.65 225.52 324.58C225.94 325.51 226.465 326.335 227.095 327.055C227.755 327.745 228.475 328.345 229.255 328.855C230.065 329.335 230.875 329.74 231.685 330.07L236.275 332.05C237.055 332.38 237.76 332.71 238.39 333.04C239.05 333.34 239.62 333.685 240.1 334.075C240.58 334.465 240.94 334.93 241.18 335.47C241.45 335.98 241.585 336.61 241.585 337.36C241.585 338.8 241.045 339.94 239.965 340.78C238.885 341.62 237.34 342.04 235.33 342.04C233.71 342.04 232.135 341.695 230.605 341.005C229.075 340.285 227.71 339.325 226.51 338.125L223.45 341.725C224.98 343.255 226.75 344.455 228.76 345.325C230.8 346.165 232.96 346.585 235.24 346.585ZM265.363 346.585C267.223 346.585 268.903 346.33 270.403 345.82C271.903 345.28 273.193 344.425 274.273 343.255C275.353 342.055 276.178 340.525 276.748 338.665C277.348 336.775 277.648 334.48 277.648 331.78V312.88H272.608V332.14C272.608 334 272.428 335.575 272.068 336.865C271.708 338.125 271.198 339.145 270.538 339.925C269.908 340.675 269.143 341.215 268.243 341.545C267.373 341.875 266.413 342.04 265.363 342.04C264.343 342.04 263.398 341.875 262.528 341.545C261.658 341.215 260.908 340.675 260.278 339.925C259.648 339.145 259.153 338.125 258.793 336.865C258.433 335.575 258.253 334 258.253 332.14V312.88H253.033V331.78C253.033 334.48 253.333 336.775 253.933 338.665C254.533 340.525 255.373 342.055 256.453 343.255C257.533 344.425 258.823 345.28 260.323 345.82C261.853 346.33 263.533 346.585 265.363 346.585ZM286.216 312.88V346H290.896V329.62C290.896 328.87 290.866 328.06 290.806 327.19C290.776 326.32 290.731 325.435 290.671 324.535C290.611 323.605 290.536 322.705 290.446 321.835C290.386 320.935 290.326 320.11 290.266 319.36H290.446L293.056 327.01L298.861 342.805H302.101L307.861 327.01L310.516 319.36H310.696C310.636 320.11 310.561 320.935 310.471 321.835C310.411 322.705 310.336 323.605 310.246 324.535C310.186 325.435 310.126 326.32 310.066 327.19C310.036 328.06 310.021 328.87 310.021 329.62V346H314.881V312.88H308.851L302.866 329.62C302.476 330.73 302.116 331.84 301.786 332.95C301.456 334.06 301.096 335.185 300.706 336.325H300.481C300.091 335.185 299.716 334.06 299.356 332.95C299.026 331.84 298.666 330.73 298.276 329.62L292.201 312.88H286.216ZM323.569 312.88V346H343.639V341.59H328.789V330.88H340.939V326.47H328.789V317.245H343.144V312.88H323.569ZM360.615 312.88V346H371.685C373.545 346 375.24 345.805 376.77 345.415C378.33 345.025 379.665 344.425 380.775 343.615C381.915 342.805 382.8 341.8 383.43 340.6C384.06 339.37 384.375 337.93 384.375 336.28C384.375 334.03 383.76 332.26 382.53 330.97C381.3 329.68 379.74 328.825 377.85 328.405V328.18C379.35 327.67 380.505 326.755 381.315 325.435C382.155 324.085 382.575 322.615 382.575 321.025C382.575 319.525 382.275 318.265 381.675 317.245C381.105 316.195 380.295 315.355 379.245 314.725C378.225 314.065 376.995 313.6 375.555 313.33C374.145 313.03 372.585 312.88 370.875 312.88H360.615ZM370.29 326.695H365.835V316.93H370.425C372.765 316.93 374.52 317.29 375.69 318.01C376.86 318.73 377.445 319.96 377.445 321.7C377.445 323.26 376.875 324.49 375.735 325.39C374.625 326.26 372.81 326.695 370.29 326.695ZM371.1 341.905H365.835V330.655H371.1C373.74 330.655 375.75 331.075 377.13 331.915C378.54 332.755 379.245 334.12 379.245 336.01C379.245 338.08 378.54 339.58 377.13 340.51C375.75 341.44 373.74 341.905 371.1 341.905ZM403.23 346.585C405.36 346.585 407.31 346.195 409.08 345.415C410.85 344.605 412.365 343.45 413.625 341.95C414.915 340.45 415.905 338.635 416.595 336.505C417.315 334.375 417.675 331.975 417.675 329.305C417.675 326.635 417.315 324.25 416.595 322.15C415.905 320.02 414.915 318.235 413.625 316.795C412.365 315.325 410.85 314.2 409.08 313.42C407.31 312.64 405.36 312.25 403.23 312.25C401.1 312.25 399.15 312.64 397.38 313.42C395.61 314.2 394.095 315.325 392.835 316.795C391.575 318.235 390.585 320.02 389.865 322.15C389.175 324.25 388.83 326.635 388.83 329.305C388.83 331.975 389.175 334.375 389.865 336.505C390.585 338.635 391.575 340.45 392.835 341.95C394.095 343.45 395.61 344.605 397.38 345.415C399.15 346.195 401.1 346.585 403.23 346.585ZM403.23 342.04C401.85 342.04 400.605 341.74 399.495 341.14C398.385 340.54 397.44 339.7 396.66 338.62C395.88 337.51 395.265 336.175 394.815 334.615C394.395 333.025 394.185 331.255 394.185 329.305C394.185 327.355 394.395 325.615 394.815 324.085C395.265 322.525 395.88 321.205 396.66 320.125C397.44 319.045 398.385 318.22 399.495 317.65C400.605 317.08 401.85 316.795 403.23 316.795C404.61 316.795 405.855 317.08 406.965 317.65C408.075 318.22 409.02 319.045 409.8 320.125C410.61 321.205 411.225 322.525 411.645 324.085C412.095 325.615 412.32 327.355 412.32 329.305C412.32 331.255 412.095 333.025 411.645 334.615C411.225 336.175 410.61 337.51 409.8 338.62C409.02 339.7 408.075 340.54 406.965 341.14C405.855 341.74 404.61 342.04 403.23 342.04ZM437.155 346.585C439.285 346.585 441.235 346.195 443.005 345.415C444.775 344.605 446.29 343.45 447.55 341.95C448.84 340.45 449.83 338.635 450.52 336.505C451.24 334.375 451.6 331.975 451.6 329.305C451.6 326.635 451.24 324.25 450.52 322.15C449.83 320.02 448.84 318.235 447.55 316.795C446.29 315.325 444.775 314.2 443.005 313.42C441.235 312.64 439.285 312.25 437.155 312.25C435.025 312.25 433.075 312.64 431.305 313.42C429.535 314.2 428.02 315.325 426.76 316.795C425.5 318.235 424.51 320.02 423.79 322.15C423.1 324.25 422.755 326.635 422.755 329.305C422.755 331.975 423.1 334.375 423.79 336.505C424.51 338.635 425.5 340.45 426.76 341.95C428.02 343.45 429.535 344.605 431.305 345.415C433.075 346.195 435.025 346.585 437.155 346.585ZM437.155 342.04C435.775 342.04 434.53 341.74 433.42 341.14C432.31 340.54 431.365 339.7 430.585 338.62C429.805 337.51 429.19 336.175 428.74 334.615C428.32 333.025 428.11 331.255 428.11 329.305C428.11 327.355 428.32 325.615 428.74 324.085C429.19 322.525 429.805 321.205 430.585 320.125C431.365 319.045 432.31 318.22 433.42 317.65C434.53 317.08 435.775 316.795 437.155 316.795C438.535 316.795 439.78 317.08 440.89 317.65C442 318.22 442.945 319.045 443.725 320.125C444.535 321.205 445.15 322.525 445.57 324.085C446.02 325.615 446.245 327.355 446.245 329.305C446.245 331.255 446.02 333.025 445.57 334.615C445.15 336.175 444.535 337.51 443.725 338.62C442.945 339.7 442 340.54 440.89 341.14C439.78 341.74 438.535 342.04 437.155 342.04ZM458.436 312.88V346H463.656V336.01L468.741 329.8L478.101 346H483.906L471.936 325.66L482.196 312.88H476.391L463.791 328.54H463.656V312.88H458.436Z" fill="#3068D3"/>
<g clip-path="url(#clip1_4510_117)">
<path d="M748.065 547.377C747.144 546.845 746.351 546.117 745.742 545.246C745.132 544.374 744.722 543.379 744.538 542.331C744.355 541.284 744.404 540.208 744.681 539.182C744.958 538.155 745.457 537.201 746.143 536.388L738.557 480.936L754.36 481.711L756.841 535.799C758.131 537.042 758.921 538.714 759.06 540.5C759.199 542.285 758.679 544.06 757.597 545.488C756.515 546.915 754.947 547.896 753.19 548.244C751.433 548.592 749.609 548.284 748.065 547.377Z" fill="#A0616A"/>
<path d="M756.526 482.446C756.203 482.828 755.788 483.122 755.32 483.3L741.118 488.72C740.405 488.992 739.614 488.981 738.909 488.688C738.204 488.395 737.638 487.843 737.328 487.145L724.747 458.873C723.54 456.25 723.334 453.276 724.17 450.512C724.787 448.54 725.926 446.77 727.465 445.391C729.004 444.011 730.887 443.072 732.915 442.672C734.475 442.351 736.086 442.374 737.636 442.739C739.493 443.153 741.218 444.024 742.654 445.272C744.091 446.521 745.193 448.108 745.861 449.889L757.047 479.459C757.234 479.958 757.285 480.498 757.193 481.023C757.102 481.549 756.872 482.04 756.526 482.446Z" fill="#A1B5DC"/>
<path d="M682.521 682.724H672.695L669.131 644.645L682.521 644.824V682.724Z" fill="#A0616A"/>
<path d="M665.676 679.916H684.623V691.848H653.742C653.742 688.683 654.999 685.648 657.237 683.411C659.475 681.173 662.509 679.916 665.674 679.916H665.676Z" fill="#2F2E41"/>
<path d="M728.205 682.723H718.379L713.705 644.822H728.207L728.205 682.723Z" fill="#A0616A"/>
<path d="M711.36 679.916H730.307V691.848H699.426C699.426 688.683 700.683 685.648 702.921 683.411C705.158 681.173 708.193 679.916 711.358 679.916H711.36Z" fill="#2F2E41"/>
<path d="M729.439 669.239L714.009 668.097C713.13 668.032 712.306 667.648 711.691 667.018C711.076 666.388 710.712 665.554 710.668 664.675L707.227 593.559C707.194 592.877 706.913 592.23 706.438 591.74C705.962 591.25 705.323 590.951 704.642 590.898C703.961 590.845 703.284 591.042 702.738 591.453C702.192 591.864 701.815 592.46 701.677 593.129L687.323 663.184C687.146 664.046 686.659 664.813 685.956 665.342C685.252 665.87 684.38 666.124 683.502 666.055L669.552 664.939C669.08 664.901 668.619 664.771 668.198 664.555C667.776 664.34 667.401 664.043 667.094 663.683C666.787 663.322 666.553 662.905 666.408 662.454C666.262 662.004 666.206 661.529 666.244 661.057C666.246 661.033 666.248 661.009 666.25 660.986L679.193 531.566C679.243 531.06 679.4 530.571 679.653 530.13C679.906 529.689 680.25 529.306 680.661 529.007C681.072 528.709 681.542 528.5 682.039 528.395C682.537 528.291 683.051 528.293 683.548 528.401L732.763 539.099C733.578 539.278 734.305 539.733 734.823 540.387C735.341 541.041 735.616 541.854 735.603 542.688L733.311 665.71C733.293 666.653 732.907 667.552 732.234 668.214C731.562 668.875 730.657 669.247 729.714 669.25C729.622 669.249 729.531 669.246 729.439 669.239Z" fill="#2F2E41"/>
<path d="M715.941 423.356C726.813 423.356 735.626 414.543 735.626 403.671C735.626 392.8 726.813 383.986 715.941 383.986C705.069 383.986 696.256 392.8 696.256 403.671C696.256 414.543 705.069 423.356 715.941 423.356Z" fill="#A0616A"/>
<path d="M685.397 541.549C683.505 539.851 682.002 537.764 680.993 535.431C679.984 533.097 679.492 530.573 679.552 528.031C679.552 499.738 704.042 436.524 704.809 434.556C704.881 434.08 705.527 433.875 708.92 431.585C712.313 429.295 717.204 428.941 723.458 430.539C724.094 430.701 724.673 431.035 725.133 431.504C725.592 431.973 725.914 432.559 726.063 433.198L727.226 434.879C727.328 435.306 727.528 435.703 727.811 436.038C728.094 436.373 728.452 436.636 728.856 436.808C733.9 438.933 749.933 448.732 744.469 485.611C739.394 519.869 737.334 540.013 736.685 547.089C736.608 547.928 736.24 548.714 735.644 549.309C735.047 549.905 734.261 550.272 733.422 550.347C730.948 550.568 726.704 550.863 721.651 550.863C709.928 550.86 693.853 549.281 685.397 541.549Z" fill="#A1B5DC"/>
<path d="M661.874 531.067C661.405 530.112 661.152 529.065 661.132 528.002C661.112 526.938 661.325 525.883 661.757 524.911C662.189 523.939 662.828 523.074 663.631 522.375C664.433 521.677 665.379 521.163 666.402 520.87L691.002 470.598L703.692 480.048L675.614 526.343C675.994 528.093 675.717 529.922 674.838 531.483C673.959 533.044 672.538 534.227 670.844 534.81C669.15 535.392 667.301 535.333 665.648 534.643C663.995 533.953 662.653 532.681 661.875 531.067H661.874Z" fill="#A0616A"/>
<path d="M705.083 481.868C704.602 482.004 704.094 482.017 703.606 481.905L688.793 478.492C688.049 478.321 687.399 477.871 686.976 477.235C686.554 476.599 686.392 475.825 686.523 475.073L691.834 444.586C692.292 441.736 693.778 439.151 696.012 437.322C697.624 436.028 699.556 435.193 701.602 434.905C703.649 434.617 705.736 434.886 707.642 435.685C709.116 436.287 710.441 437.204 711.525 438.37C712.837 439.749 713.784 441.433 714.281 443.27C714.778 445.107 714.809 447.039 714.371 448.891L707.182 479.675C707.059 480.194 706.8 480.672 706.431 481.057C706.062 481.443 705.597 481.723 705.083 481.868H705.083Z" fill="#A1B5DC"/>
<path d="M711.331 421.457C710.373 420.479 709.666 419.285 709.269 417.975C708.873 416.665 708.799 415.278 709.055 413.934C709.741 410.345 710.145 407.995 710.221 407.14C710.483 404.217 707.527 401.85 704.603 401.47C704.49 401.455 704.395 401.446 704.316 401.439C704.388 401.511 704.47 401.587 704.541 401.655C705.096 402.177 705.787 402.826 705.623 403.496C705.524 403.9 705.155 404.186 704.496 404.371C699.922 405.65 696.4 404.475 693.411 400.671C692.57 399.59 691.993 398.328 691.723 396.985C690.653 391.732 693.505 387.253 696.088 384.422C698.217 382.087 701.669 379.255 706.021 379.011C709.406 378.822 713.432 380.77 714.634 384.28C715.202 383.439 715.958 382.741 716.843 382.243C717.727 381.745 718.716 381.459 719.729 381.409C722.041 381.359 724.315 381.992 726.268 383.228C735.814 388.695 739.915 401.72 735.226 411.67C732.276 417.929 725.885 422.589 718.547 423.83C718.088 423.908 717.623 423.948 717.157 423.948C716.068 423.946 714.99 423.725 713.988 423.297C712.986 422.87 712.081 422.245 711.326 421.46L711.331 421.457Z" fill="#2F2E41"/>
<path d="M425.999 519.359C425.585 518.376 424.892 517.536 424.005 516.942C423.118 516.349 422.077 516.029 421.011 516.021H321.448C320.017 516.022 318.644 516.591 317.632 517.603C316.62 518.615 316.052 519.987 316.051 521.419V647.375C316.052 648.806 316.62 650.178 317.632 651.19C318.644 652.202 320.017 652.771 321.448 652.772H421.014C422.445 652.77 423.817 652.201 424.829 651.189C425.84 650.177 426.41 648.806 426.411 647.375V521.419C426.414 520.712 426.275 520.011 426.002 519.359H425.999ZM425.209 647.375C425.208 648.488 424.765 649.555 423.978 650.342C423.191 651.129 422.124 651.572 421.011 651.573H321.448C320.335 651.573 319.267 651.131 318.48 650.344C317.692 649.557 317.25 648.489 317.249 647.376V521.419C317.251 520.306 317.694 519.239 318.481 518.452C319.268 517.665 320.335 517.222 321.448 517.221H421.014C421.853 517.224 422.671 517.477 423.365 517.947C424.06 518.418 424.598 519.084 424.911 519.862C424.972 520.017 425.025 520.175 425.069 520.336C425.165 520.689 425.213 521.053 425.213 521.419L425.209 647.375Z" fill="#3F3D56"/>
<path d="M405.221 545.761H375.231C374.595 545.761 373.985 545.509 373.535 545.059C373.085 544.609 372.832 543.998 372.832 543.362C372.832 542.726 373.085 542.116 373.535 541.666C373.985 541.216 374.595 540.963 375.231 540.963H405.221C405.857 540.963 406.468 541.216 406.918 541.666C407.368 542.116 407.62 542.726 407.62 543.362C407.62 543.998 407.368 544.609 406.918 545.059C406.468 545.509 405.857 545.761 405.221 545.761Z" fill="#3F3D56"/>
<path d="M405.221 558.357H375.231C374.595 558.357 373.985 558.104 373.535 557.654C373.085 557.204 372.832 556.594 372.832 555.958C372.832 555.322 373.085 554.711 373.535 554.261C373.985 553.811 374.595 553.559 375.231 553.559H405.221C405.857 553.559 406.468 553.811 406.918 554.261C407.368 554.711 407.62 555.322 407.62 555.958C407.62 556.594 407.368 557.204 406.918 557.654C406.468 558.104 405.857 558.357 405.221 558.357Z" fill="#3F3D56"/>
<path d="M359.844 565.527H337.928C337.212 565.526 336.526 565.242 336.02 564.736C335.514 564.23 335.229 563.544 335.229 562.828V536.965C335.229 536.249 335.514 535.563 336.02 535.057C336.526 534.551 337.212 534.266 337.928 534.266H359.844C360.56 534.266 361.246 534.551 361.752 535.057C362.258 535.563 362.543 536.249 362.543 536.965V562.828C362.543 563.544 362.258 564.23 361.752 564.736C361.246 565.242 360.56 565.526 359.844 565.527Z" fill="#5387EC"/>
<path d="M405.014 584.148H337.237C336.601 584.148 335.991 583.895 335.541 583.445C335.091 582.995 334.838 582.385 334.838 581.749C334.838 581.113 335.091 580.502 335.541 580.052C335.991 579.602 336.601 579.35 337.237 579.35H405.014C405.329 579.35 405.641 579.412 405.932 579.532C406.223 579.653 406.488 579.83 406.71 580.052C406.933 580.275 407.11 580.54 407.23 580.831C407.351 581.122 407.413 581.434 407.413 581.749C407.413 582.064 407.351 582.376 407.23 582.667C407.11 582.958 406.933 583.223 406.71 583.445C406.488 583.668 406.223 583.845 405.932 583.966C405.641 584.086 405.329 584.148 405.014 584.148Z" fill="#CCCCCC"/>
<path d="M405.014 596.744H337.237C336.601 596.744 335.991 596.491 335.541 596.041C335.091 595.591 334.838 594.981 334.838 594.345C334.838 593.708 335.091 593.098 335.541 592.648C335.991 592.198 336.601 591.945 337.237 591.945H405.014C405.65 591.945 406.26 592.198 406.71 592.648C407.16 593.098 407.413 593.708 407.413 594.345C407.413 594.981 407.16 595.591 406.71 596.041C406.26 596.491 405.65 596.744 405.014 596.744Z" fill="#CCCCCC"/>
<path d="M405.014 609.338H337.237C336.601 609.338 335.991 609.085 335.541 608.635C335.091 608.185 334.838 607.575 334.838 606.938C334.838 606.302 335.091 605.692 335.541 605.242C335.991 604.792 336.601 604.539 337.237 604.539H405.014C405.65 604.539 406.26 604.792 406.71 605.242C407.16 605.692 407.413 606.302 407.413 606.938C407.413 607.575 407.16 608.185 406.71 608.635C406.26 609.085 405.65 609.338 405.014 609.338Z" fill="#CCCCCC"/>
<path d="M405.014 621.935H337.237C336.601 621.935 335.991 621.682 335.541 621.233C335.091 620.783 334.838 620.172 334.838 619.536C334.838 618.9 335.091 618.289 335.541 617.839C335.991 617.389 336.601 617.137 337.237 617.137H405.014C405.65 617.137 406.26 617.389 406.71 617.839C407.16 618.289 407.413 618.9 407.413 619.536C407.413 620.172 407.16 620.783 406.71 621.233C406.26 621.682 405.65 621.935 405.014 621.935Z" fill="#CCCCCC"/>
<path d="M405.014 634.531H337.237C336.601 634.531 335.991 634.278 335.541 633.828C335.091 633.378 334.838 632.768 334.838 632.132C334.838 631.495 335.091 630.885 335.541 630.435C335.991 629.985 336.601 629.732 337.237 629.732H405.014C405.65 629.732 406.26 629.985 406.71 630.435C407.16 630.885 407.413 631.495 407.413 632.132C407.413 632.768 407.16 633.378 406.71 633.828C406.26 634.278 405.65 634.531 405.014 634.531Z" fill="#CCCCCC"/>
<path d="M624.331 692.965H764.282C764.473 692.965 764.655 692.889 764.79 692.754C764.924 692.62 765 692.437 765 692.247C765 692.057 764.924 691.874 764.79 691.74C764.655 691.605 764.473 691.529 764.282 691.529H624.331C624.141 691.529 623.958 691.605 623.823 691.74C623.689 691.874 623.613 692.057 623.613 692.247C623.613 692.437 623.689 692.62 623.823 692.754C623.958 692.889 624.141 692.965 624.331 692.965Z" fill="#3F3D56"/>
<path d="M372.914 485.676C385.702 485.676 396.069 475.309 396.069 462.522C396.069 449.734 385.702 439.367 372.914 439.367C360.126 439.367 349.76 449.734 349.76 462.522C349.76 475.309 360.126 485.676 372.914 485.676Z" fill="#5387EC"/>
<path d="M370.621 471.354C370.1 471.355 369.593 471.187 369.176 470.874L369.15 470.855L363.709 466.692C363.456 466.499 363.244 466.258 363.085 465.983C362.926 465.708 362.823 465.404 362.781 465.089C362.739 464.774 362.76 464.454 362.842 464.147C362.924 463.84 363.066 463.552 363.259 463.3C363.452 463.048 363.693 462.836 363.969 462.677C364.244 462.518 364.548 462.415 364.863 462.374C365.178 462.332 365.498 462.353 365.805 462.436C366.112 462.518 366.399 462.66 366.651 462.854L370.176 465.557L378.505 454.691C378.895 454.182 379.471 453.849 380.107 453.765C380.742 453.681 381.385 453.853 381.894 454.243L381.895 454.244L381.843 454.315L381.896 454.244C382.404 454.634 382.737 455.21 382.821 455.846C382.904 456.481 382.733 457.124 382.343 457.633L372.546 470.408C372.32 470.703 372.028 470.941 371.695 471.104C371.361 471.268 370.995 471.352 370.623 471.351L370.621 471.354Z" fill="white"/>
<path d="M220.474 451.941C229.139 451.941 236.164 444.916 236.164 436.251C236.164 427.585 229.139 420.561 220.474 420.561C211.808 420.561 204.783 427.585 204.783 436.251C204.783 444.916 211.808 451.941 220.474 451.941Z" fill="#CCCCCC"/>
<path d="M218.922 442.238C218.569 442.238 218.226 442.124 217.943 441.912L217.926 441.899L214.239 439.076C213.904 438.808 213.687 438.42 213.635 437.995C213.583 437.569 213.7 437.14 213.961 436.8C214.222 436.459 214.605 436.235 215.03 436.174C215.454 436.113 215.885 436.221 216.231 436.475L218.62 438.307L224.264 430.946C224.528 430.601 224.918 430.376 225.349 430.319C225.779 430.262 226.215 430.378 226.56 430.643L226.56 430.643L226.525 430.69L226.561 430.644C226.905 430.908 227.13 431.299 227.187 431.729C227.244 432.16 227.128 432.596 226.864 432.94L220.225 441.599C220.071 441.798 219.874 441.96 219.648 442.071C219.422 442.182 219.173 442.239 218.922 442.238L218.922 442.238Z" fill="white"/>
<path d="M264.569 473.042C264.243 472.269 263.697 471.608 263 471.141C262.302 470.674 261.483 470.422 260.644 470.416H182.299C181.173 470.417 180.093 470.864 179.297 471.66C178.501 472.457 178.053 473.537 178.053 474.663V573.772C178.053 574.898 178.501 575.978 179.297 576.774C180.093 577.57 181.173 578.018 182.299 578.019H260.644C261.77 578.017 262.849 577.569 263.645 576.773C264.441 575.977 264.889 574.898 264.891 573.772V474.663C264.893 474.106 264.783 473.555 264.569 473.042ZM263.948 573.773C263.946 574.648 263.598 575.486 262.979 576.105C262.36 576.724 261.521 577.072 260.646 577.074H182.299C181.424 577.074 180.584 576.726 179.965 576.107C179.346 575.488 178.998 574.648 178.998 573.773V474.663C179 473.788 179.348 472.949 179.967 472.33C180.586 471.711 181.424 471.363 182.299 471.361H260.644C261.304 471.364 261.949 471.563 262.495 471.934C263.041 472.305 263.465 472.83 263.711 473.443C263.759 473.564 263.8 473.689 263.835 473.815C263.91 474.093 263.948 474.38 263.948 474.668L263.948 573.773Z" fill="#CCCCCC"/>
<path d="M248.216 493.817H224.618C224.118 493.817 223.637 493.618 223.283 493.264C222.929 492.91 222.73 492.43 222.73 491.929C222.73 491.428 222.929 490.948 223.283 490.594C223.637 490.24 224.118 490.041 224.618 490.041H248.216C248.716 490.041 249.197 490.24 249.551 490.594C249.905 490.948 250.104 491.428 250.104 491.929C250.104 492.43 249.905 492.91 249.551 493.264C249.197 493.618 248.716 493.817 248.216 493.817H248.216Z" fill="#CCCCCC"/>
<path d="M248.216 503.729H224.618C224.118 503.729 223.637 503.53 223.283 503.176C222.929 502.822 222.73 502.342 222.73 501.841C222.73 501.34 222.929 500.86 223.283 500.506C223.637 500.152 224.118 499.953 224.618 499.953H248.216C248.716 499.953 249.197 500.152 249.551 500.506C249.905 500.86 250.104 501.34 250.104 501.841C250.104 502.342 249.905 502.822 249.551 503.176C249.197 503.53 248.716 503.729 248.216 503.729H248.216Z" fill="#CCCCCC"/>
<path d="M212.511 509.369H195.266C194.703 509.369 194.163 509.145 193.765 508.747C193.367 508.348 193.143 507.809 193.143 507.246V486.895C193.143 486.332 193.367 485.792 193.765 485.394C194.163 484.996 194.703 484.772 195.266 484.771H212.511C213.074 484.772 213.614 484.996 214.012 485.394C214.41 485.792 214.634 486.332 214.635 486.895V507.246C214.634 507.809 214.41 508.348 214.012 508.747C213.614 509.145 213.074 509.369 212.511 509.369Z" fill="#CCCCCC"/>
<path d="M248.05 524.022H194.72C194.219 524.022 193.739 523.823 193.385 523.469C193.031 523.115 192.832 522.635 192.832 522.134C192.832 521.633 193.031 521.153 193.385 520.799C193.739 520.445 194.219 520.246 194.72 520.246H248.05C248.551 520.246 249.031 520.445 249.385 520.799C249.739 521.153 249.938 521.633 249.938 522.134C249.938 522.635 249.739 523.115 249.385 523.469C249.031 523.823 248.551 524.022 248.05 524.022Z" fill="#CCCCCC"/>
<path d="M248.05 533.936H194.72C194.219 533.936 193.739 533.737 193.385 533.383C193.031 533.029 192.832 532.549 192.832 532.048C192.832 531.547 193.031 531.067 193.385 530.713C193.739 530.359 194.219 530.16 194.72 530.16H248.05C248.551 530.16 249.031 530.359 249.385 530.713C249.739 531.067 249.938 531.547 249.938 532.048C249.938 532.549 249.739 533.029 249.385 533.383C249.031 533.737 248.551 533.936 248.05 533.936Z" fill="#CCCCCC"/>
<path d="M248.05 543.844H194.72C194.219 543.844 193.739 543.645 193.385 543.291C193.031 542.937 192.832 542.457 192.832 541.956C192.832 541.456 193.031 540.975 193.385 540.621C193.739 540.267 194.219 540.068 194.72 540.068H248.05C248.551 540.068 249.031 540.267 249.385 540.621C249.739 540.975 249.938 541.456 249.938 541.956C249.938 542.457 249.739 542.937 249.385 543.291C249.031 543.645 248.551 543.844 248.05 543.844Z" fill="#CCCCCC"/>
<path d="M248.05 553.756H194.72C194.219 553.756 193.739 553.557 193.385 553.203C193.031 552.849 192.832 552.369 192.832 551.868C192.832 551.368 193.031 550.887 193.385 550.533C193.739 550.179 194.219 549.98 194.72 549.98H248.05C248.551 549.98 249.031 550.179 249.385 550.533C249.739 550.887 249.938 551.368 249.938 551.868C249.938 552.369 249.739 552.849 249.385 553.203C249.031 553.557 248.551 553.756 248.05 553.756Z" fill="#CCCCCC"/>
<path d="M248.05 563.664H194.72C194.219 563.664 193.739 563.466 193.385 563.112C193.031 562.757 192.832 562.277 192.832 561.777C192.832 561.276 193.031 560.796 193.385 560.442C193.739 560.088 194.219 559.889 194.72 559.889H248.05C248.551 559.889 249.031 560.088 249.385 560.442C249.739 560.796 249.938 561.276 249.938 561.777C249.938 562.277 249.739 562.757 249.385 563.112C249.031 563.466 248.551 563.664 248.05 563.664Z" fill="#CCCCCC"/>
<path d="M165.568 578.432H275.688C275.837 578.432 275.981 578.373 276.087 578.267C276.193 578.161 276.252 578.017 276.252 577.868C276.252 577.718 276.193 577.574 276.087 577.468C275.981 577.362 275.837 577.303 275.688 577.303H165.568C165.494 577.302 165.42 577.317 165.352 577.345C165.283 577.373 165.22 577.414 165.168 577.466C165.115 577.518 165.073 577.58 165.044 577.648C165.015 577.717 165 577.79 165 577.864C165 577.939 165.014 578.012 165.042 578.081C165.07 578.149 165.111 578.212 165.163 578.265C165.215 578.317 165.277 578.359 165.346 578.388C165.414 578.417 165.487 578.432 165.562 578.432H165.568Z" fill="#CCCCCC"/>
<path d="M521.907 451.941C530.573 451.941 537.598 444.916 537.598 436.251C537.598 427.585 530.573 420.561 521.907 420.561C513.242 420.561 506.217 427.585 506.217 436.251C506.217 444.916 513.242 451.941 521.907 451.941Z" fill="#CCCCCC"/>
<path d="M520.356 442.238C520.003 442.238 519.659 442.124 519.377 441.912L519.36 441.899L515.672 439.076C515.337 438.808 515.121 438.42 515.069 437.995C515.017 437.569 515.134 437.14 515.394 436.8C515.655 436.459 516.039 436.235 516.463 436.174C516.888 436.113 517.319 436.221 517.665 436.475L520.053 438.307L525.697 430.946C525.961 430.601 526.352 430.376 526.782 430.319C527.213 430.262 527.649 430.378 527.993 430.643L527.994 430.643L527.959 430.69L527.994 430.644C528.339 430.908 528.564 431.299 528.621 431.729C528.678 432.16 528.561 432.596 528.297 432.94L521.659 441.599C521.505 441.798 521.308 441.96 521.082 442.071C520.856 442.182 520.607 442.239 520.355 442.238L520.356 442.238Z" fill="white"/>
<path d="M566.002 473.042C565.676 472.269 565.131 471.608 564.433 471.141C563.736 470.674 562.917 470.422 562.078 470.416H483.733C482.607 470.417 481.527 470.864 480.731 471.66C479.935 472.457 479.487 473.537 479.486 474.663V573.772C479.487 574.898 479.935 575.978 480.731 576.774C481.527 577.57 482.607 578.018 483.733 578.019H562.078C563.204 578.017 564.283 577.569 565.079 576.773C565.875 575.977 566.323 574.898 566.324 573.772V474.663C566.326 474.106 566.217 473.555 566.002 473.042ZM565.381 573.773C565.38 574.648 565.031 575.486 564.413 576.105C563.794 576.724 562.955 577.072 562.08 577.074H483.733C483.299 577.074 482.87 576.989 482.47 576.823C482.069 576.657 481.705 576.414 481.398 576.107C481.092 575.801 480.849 575.437 480.683 575.036C480.517 574.635 480.432 574.206 480.432 573.773V474.663C480.433 473.788 480.782 472.949 481.4 472.33C482.019 471.711 482.858 471.363 483.733 471.361H562.078C562.738 471.364 563.382 471.563 563.929 471.934C564.475 472.305 564.898 472.83 565.144 473.443C565.192 473.564 565.234 473.689 565.269 473.815C565.344 474.093 565.382 474.38 565.382 474.668L565.381 573.773Z" fill="#CCCCCC"/>
<path d="M549.65 493.817H526.052C525.551 493.817 525.071 493.618 524.717 493.264C524.363 492.91 524.164 492.43 524.164 491.929C524.164 491.428 524.363 490.948 524.717 490.594C525.071 490.24 525.551 490.041 526.052 490.041H549.649C550.15 490.041 550.63 490.24 550.984 490.594C551.338 490.948 551.537 491.428 551.537 491.929C551.537 492.43 551.338 492.91 550.984 493.264C550.63 493.618 550.15 493.817 549.649 493.817H549.65Z" fill="#CCCCCC"/>
<path d="M549.65 503.729H526.052C525.551 503.729 525.071 503.53 524.717 503.176C524.363 502.822 524.164 502.342 524.164 501.841C524.164 501.34 524.363 500.86 524.717 500.506C525.071 500.152 525.551 499.953 526.052 499.953H549.649C550.15 499.953 550.63 500.152 550.984 500.506C551.338 500.86 551.537 501.34 551.537 501.841C551.537 502.342 551.338 502.822 550.984 503.176C550.63 503.53 550.15 503.729 549.649 503.729H549.65Z" fill="#CCCCCC"/>
<path d="M513.945 509.369H496.7C496.137 509.369 495.597 509.145 495.199 508.747C494.801 508.348 494.577 507.809 494.576 507.246V486.895C494.577 486.332 494.801 485.792 495.199 485.394C495.597 484.996 496.137 484.772 496.7 484.771H513.945C514.508 484.772 515.047 484.996 515.446 485.394C515.844 485.792 516.068 486.332 516.068 486.895V507.246C516.068 507.809 515.844 508.348 515.446 508.747C515.048 509.145 514.508 509.369 513.945 509.369Z" fill="#CCCCCC"/>
<path d="M549.486 524.022H496.155C495.655 524.022 495.175 523.823 494.821 523.469C494.466 523.115 494.268 522.635 494.268 522.134C494.268 521.633 494.466 521.153 494.821 520.799C495.175 520.445 495.655 520.246 496.155 520.246H549.486C549.986 520.246 550.466 520.445 550.821 520.799C551.175 521.153 551.373 521.633 551.373 522.134C551.373 522.635 551.175 523.115 550.821 523.469C550.466 523.823 549.986 524.022 549.486 524.022Z" fill="#CCCCCC"/>
<path d="M549.486 533.936H496.155C495.655 533.936 495.175 533.737 494.821 533.383C494.466 533.029 494.268 532.549 494.268 532.048C494.268 531.547 494.466 531.067 494.821 530.713C495.175 530.359 495.655 530.16 496.155 530.16H549.486C549.986 530.16 550.466 530.359 550.821 530.713C551.175 531.067 551.373 531.547 551.373 532.048C551.373 532.549 551.175 533.029 550.821 533.383C550.466 533.737 549.986 533.936 549.486 533.936Z" fill="#CCCCCC"/>
<path d="M549.486 543.844H496.155C495.655 543.844 495.175 543.645 494.821 543.291C494.466 542.937 494.268 542.457 494.268 541.956C494.268 541.456 494.466 540.975 494.821 540.621C495.175 540.267 495.655 540.068 496.155 540.068H549.486C549.986 540.068 550.466 540.267 550.821 540.621C551.175 540.975 551.373 541.456 551.373 541.956C551.373 542.457 551.175 542.937 550.821 543.291C550.466 543.645 549.986 543.844 549.486 543.844Z" fill="#CCCCCC"/>
<path d="M549.486 553.756H496.155C495.655 553.756 495.175 553.557 494.821 553.203C494.466 552.849 494.268 552.369 494.268 551.868C494.268 551.368 494.466 550.887 494.821 550.533C495.175 550.179 495.655 549.98 496.155 549.98H549.486C549.986 549.98 550.466 550.179 550.821 550.533C551.175 550.887 551.373 551.368 551.373 551.868C551.373 552.369 551.175 552.849 550.821 553.203C550.466 553.557 549.986 553.756 549.486 553.756Z" fill="#CCCCCC"/>
<path d="M549.486 563.664H496.155C495.655 563.664 495.175 563.466 494.821 563.112C494.466 562.757 494.268 562.277 494.268 561.777C494.268 561.276 494.466 560.796 494.821 560.442C495.175 560.088 495.655 559.889 496.155 559.889H549.486C549.986 559.889 550.466 560.088 550.821 560.442C551.175 560.796 551.373 561.276 551.373 561.777C551.373 562.277 551.175 562.757 550.821 563.112C550.466 563.466 549.986 563.664 549.486 563.664Z" fill="#CCCCCC"/>
<path d="M467.002 578.432H577.121C577.271 578.432 577.415 578.373 577.521 578.267C577.626 578.161 577.686 578.017 577.686 577.868C577.686 577.718 577.626 577.574 577.521 577.468C577.415 577.362 577.271 577.303 577.121 577.303H467.002C466.927 577.302 466.854 577.317 466.785 577.345C466.717 577.373 466.654 577.414 466.601 577.466C466.549 577.518 466.507 577.58 466.478 577.648C466.449 577.717 466.434 577.79 466.434 577.864C466.433 577.939 466.447 578.012 466.475 578.081C466.503 578.149 466.545 578.212 466.597 578.265C466.649 578.317 466.711 578.359 466.779 578.388C466.848 578.417 466.921 578.432 466.995 578.432H467.002Z" fill="#CCCCCC"/>
<path d="M300.649 653.203H440.601C440.791 653.203 440.974 653.127 441.108 652.993C441.243 652.858 441.318 652.676 441.318 652.485C441.318 652.295 441.243 652.112 441.108 651.978C440.974 651.843 440.791 651.768 440.601 651.768H300.649C300.459 651.768 300.276 651.843 300.142 651.978C300.007 652.112 299.932 652.295 299.932 652.485C299.932 652.676 300.007 652.858 300.142 652.993C300.276 653.127 300.459 653.203 300.649 653.203Z" fill="#3F3D56"/>
</g>
<rect x="165" y="281" width="200" height="2" rx="1" fill="#A1B5DC"/>
</g>
</g>
<defs>
<filter id="filter0_d_4510_117" x="0" y="0" width="1330" height="930" filterUnits="userSpaceOnUse" color-interpolation-filters="sRGB">
<feFlood flood-opacity="0" result="BackgroundImageFix"/>
<feColorMatrix in="SourceAlpha" type="matrix" values="0 0 0 0 0 0 0 0 0 0 0 0 0 0 0 0 0 0 127 0" result="hardAlpha"/>
<feOffset dy="4"/>
<feGaussianBlur stdDeviation="7.5"/>
<feComposite in2="hardAlpha" operator="out"/>
<feColorMatrix type="matrix" values="0 0 0 0 0 0 0 0 0 0 0 0 0 0 0 0 0 0 0.25 0"/>
<feBlend mode="normal" in2="BackgroundImageFix" result="effect1_dropShadow_4510_117"/>
<feBlend mode="normal" in="SourceGraphic" in2="effect1_dropShadow_4510_117" result="shape"/>
</filter>
<filter id="filter1_d_4510_117" x="664.9" y="-2.5" width="660.113" height="927" filterUnits="userSpaceOnUse" color-interpolation-filters="sRGB">
<feFlood flood-opacity="0" result="BackgroundImageFix"/>
<feColorMatrix in="SourceAlpha" type="matrix" values="0 0 0 0 0 0 0 0 0 0 0 0 0 0 0 0 0 0 127 0" result="hardAlpha"/>
<feOffset dx="-3.6"/>
<feGaussianBlur stdDeviation="6.75"/>
<feComposite in2="hardAlpha" operator="out"/>
<feColorMatrix type="matrix" values="0 0 0 0 0 0 0 0 0 0 0 0 0 0 0 0 0 0 0.25 0"/>
<feBlend mode="normal" in2="BackgroundImageFix" result="effect1_dropShadow_4510_117"/>
<feBlend mode="normal" in="SourceGraphic" in2="effect1_dropShadow_4510_117" result="shape"/>
</filter>
<linearGradient id="paint0_linear_4510_117" x1="682" y1="11" x2="1315" y2="911" gradientUnits="userSpaceOnUse">
<stop stop-color="#9ABDFF"/>
<stop offset="1" stop-color="#3068D3"/>
</linearGradient>
<clipPath id="clip0_4510_117">
<rect x="15" y="11" width="1300" height="900" rx="5" fill="white"/>
</clipPath>
<clipPath id="clip1_4510_117">
<rect width="600" height="313.966" fill="white" transform="translate(165 379)"/>
</clipPath>
</defs>
</svg>
