<svg width="1330" height="930" viewBox="0 0 1330 930" fill="none" xmlns="http://www.w3.org/2000/svg">
<g filter="url(#filter0_d_4524_180)">
<g clip-path="url(#clip0_4524_180)">
<rect x="15" y="11" width="1300" height="900" rx="5" fill="#F9F9F9"/>
<g filter="url(#filter1_d_4524_180)">
<path fill-rule="evenodd" clip-rule="evenodd" d="M682 911C806.563 801.058 885.126 640.204 885.126 461C885.126 281.796 806.563 120.942 682 11H1315.11V911H682Z" fill="#0A4595"/>
</g>
<path d="M186.88 440V436.08H176.64C176 436.08 175.347 436.133 174.68 436.24C174.04 436.347 173.413 436.48 172.8 436.64L180.32 429.04C181.067 428.293 181.8 427.533 182.52 426.76C183.24 425.987 183.88 425.173 184.44 424.32C185.027 423.44 185.493 422.52 185.84 421.56C186.187 420.6 186.36 419.56 186.36 418.44C186.36 417.107 186.12 415.92 185.64 414.88C185.16 413.84 184.507 412.973 183.68 412.28C182.88 411.56 181.933 411.027 180.84 410.68C179.747 410.307 178.573 410.12 177.32 410.12C174.573 410.12 172.32 410.867 170.56 412.36C168.827 413.827 167.773 415.893 167.4 418.56L171.8 419.36C171.747 418.56 171.84 417.827 172.08 417.16C172.32 416.493 172.68 415.92 173.16 415.44C173.64 414.96 174.213 414.587 174.88 414.32C175.547 414.027 176.28 413.88 177.08 413.88C178.493 413.88 179.56 414.2 180.28 414.84C181.027 415.453 181.493 416.227 181.68 417.16C181.893 418.067 181.88 419.053 181.64 420.12C181.4 421.187 181.027 422.173 180.52 423.08C179.987 423.907 179.413 424.667 178.8 425.36C178.187 426.053 177.533 426.747 176.84 427.44L166.88 437.44V440H186.88ZM212.228 413.76V410.48H203.628V406.76H199.508V410.48H190.908V413.76H212.228ZM224.188 420.04V416.64H219.068V406.96H214.948V429.56H219.068V420.04H224.188ZM210.308 421.92C210.308 420.933 210.095 420.04 209.668 419.24C209.241 418.413 208.641 417.72 207.868 417.16C207.095 416.573 206.175 416.12 205.108 415.8C204.041 415.48 202.855 415.32 201.548 415.32C200.241 415.32 199.055 415.48 197.988 415.8C196.921 416.12 196.001 416.573 195.228 417.16C194.455 417.72 193.855 418.413 193.428 419.24C193.001 420.04 192.788 420.933 192.788 421.92C192.788 422.907 193.001 423.8 193.428 424.6C193.855 425.4 194.455 426.093 195.228 426.68C196.001 427.24 196.921 427.68 197.988 428C199.055 428.32 200.241 428.48 201.548 428.48C202.855 428.48 204.041 428.32 205.108 428C206.175 427.68 207.095 427.24 207.868 426.68C208.641 426.093 209.241 425.4 209.668 424.6C210.095 423.8 210.308 422.907 210.308 421.92ZM196.748 421.92C196.748 420.8 197.188 419.947 198.068 419.36C198.948 418.773 200.108 418.48 201.548 418.48C202.988 418.48 204.148 418.773 205.028 419.36C205.935 419.947 206.388 420.8 206.388 421.92C206.388 422.987 205.935 423.827 205.028 424.44C204.148 425.027 202.988 425.32 201.548 425.32C200.108 425.32 198.948 425.027 198.068 424.44C197.188 423.827 196.748 422.987 196.748 421.92ZM195.308 431.32V434.64H214.948V443.08H219.068V431.32H195.308ZM253.465 421.48V433.64H257.585V406.96H253.465V411.36H243.865V414.64H253.465V418.2H243.865V421.48H253.465ZM248.265 427.32L247.865 423.96C245.358 424.413 242.972 424.72 240.705 424.88C238.465 425.04 236.172 425.133 233.825 425.16V409.44H229.705V428.56H232.505C233.838 428.56 235.145 428.547 236.425 428.52C237.732 428.467 239.025 428.4 240.305 428.32C241.585 428.213 242.878 428.08 244.185 427.92C245.518 427.76 246.878 427.56 248.265 427.32ZM258.505 439.04H238.265V431.28H234.145V442.4H258.505V439.04ZM294.487 432.52V429.08H290.407V410.4H286.287L272.087 429.32V432.52H286.567V440H290.407V432.52H294.487ZM286.567 429.08H276.847L286.767 415.44C286.714 415.973 286.661 416.467 286.607 416.92C286.581 417.373 286.567 417.827 286.567 418.28V429.08ZM330.555 417.6H325.435V407H321.315V433.52H325.435V421H330.555V417.6ZM315.515 427.68V409.56H311.435V415.2H302.595V409.56H298.475V427.68H315.515ZM311.435 418.4V424.36H302.595V418.4H311.435ZM306.715 439.04V430.96H302.555V442.4H326.875V439.04H306.715Z" fill="#3068D3"/>
<path d="M192.24 476.6V485.48H186.72V489.76H192.24V498.52H197.52V476.6H192.24ZM186.36 497.52L188.92 493.4C187.533 492.947 186.32 492.347 185.28 491.6C184.24 490.853 183.373 490.027 182.68 489.12C182.013 488.187 181.507 487.2 181.16 486.16C180.813 485.12 180.627 484.08 180.6 483.04H187.76V478.8H167.96V483.04H175.2C175.147 484.187 174.933 485.333 174.56 486.48C174.213 487.6 173.68 488.667 172.96 489.68C172.267 490.667 171.387 491.573 170.32 492.4C169.253 493.2 167.987 493.853 166.52 494.36L169.2 498.52C171.36 497.8 173.16 496.733 174.6 495.32C176.067 493.88 177.2 492.227 178 490.36C178.8 491.987 179.893 493.427 181.28 494.68C182.667 495.907 184.36 496.853 186.36 497.52ZM185.08 499.32C183.133 499.32 181.373 499.48 179.8 499.8C178.227 500.12 176.893 500.587 175.8 501.2C174.733 501.787 173.907 502.52 173.32 503.4C172.733 504.28 172.44 505.28 172.44 506.4C172.44 507.52 172.733 508.52 173.32 509.4C173.907 510.28 174.733 511.013 175.8 511.6C176.893 512.213 178.227 512.68 179.8 513C181.373 513.32 183.133 513.48 185.08 513.48C187.027 513.48 188.773 513.32 190.32 513C191.893 512.68 193.213 512.213 194.28 511.6C195.373 511.013 196.213 510.28 196.8 509.4C197.387 508.52 197.68 507.52 197.68 506.4C197.68 505.28 197.387 504.28 196.8 503.4C196.213 502.52 195.373 501.787 194.28 501.2C193.213 500.587 191.893 500.12 190.32 499.8C188.773 499.48 187.027 499.32 185.08 499.32ZM185.08 509.48C180.173 509.48 177.72 508.453 177.72 506.4C177.72 504.347 180.173 503.32 185.08 503.32C189.96 503.32 192.4 504.347 192.4 506.4C192.4 508.453 189.96 509.48 185.08 509.48ZM236.877 509.16V504.88H222.797V498.12H233.237V478.88H228.037V484.6H212.277V478.88H207.037V498.12H217.517V504.88H203.517V509.16H236.877ZM228.037 493.92H212.277V488.76H228.037V493.92ZM273.674 509.16V504.88H259.594V498.12H270.034V478.88H264.834V484.6H249.074V478.88H243.834V498.12H254.314V504.88H240.314V509.16H273.674ZM264.834 493.92H249.074V488.76H264.834V493.92ZM310.991 491.48V487.16H306.111V476.6H300.831V503.4H306.111V491.48H310.991ZM297.351 488.32C297.351 486.96 297.097 485.707 296.591 484.56C296.084 483.413 295.377 482.427 294.471 481.6C293.564 480.773 292.511 480.133 291.311 479.68C290.111 479.2 288.804 478.96 287.391 478.96C285.977 478.96 284.657 479.2 283.431 479.68C282.231 480.133 281.177 480.773 280.271 481.6C279.364 482.427 278.657 483.413 278.151 484.56C277.644 485.707 277.391 486.96 277.391 488.32C277.391 489.68 277.644 490.933 278.151 492.08C278.657 493.2 279.364 494.187 280.271 495.04C281.177 495.867 282.231 496.52 283.431 497C284.657 497.453 285.977 497.68 287.391 497.68C288.804 497.68 290.111 497.453 291.311 497C292.511 496.52 293.564 495.867 294.471 495.04C295.377 494.187 296.084 493.2 296.591 492.08C297.097 490.933 297.351 489.68 297.351 488.32ZM282.551 488.32C282.551 486.8 283.004 485.627 283.911 484.8C284.844 483.947 286.004 483.52 287.391 483.52C288.751 483.52 289.897 483.947 290.831 484.8C291.764 485.627 292.231 486.8 292.231 488.32C292.231 489.84 291.764 491.027 290.831 491.88C289.897 492.707 288.751 493.12 287.391 493.12C286.004 493.12 284.844 492.707 283.911 491.88C283.004 491.027 282.551 489.84 282.551 488.32ZM307.431 508.6H287.631V500.64H282.351V512.8H307.431V508.6ZM342.868 495.8H347.828V491.4H342.868V476.56H337.588V513.4H342.868V495.8ZM328.268 496.92L333.428 497.36C333.934 494.32 334.228 491.653 334.308 489.36C334.388 487.067 334.428 485.027 334.428 483.24V480.24H315.468V484.44H329.228C329.228 486.12 329.174 487.96 329.068 489.96C328.961 491.933 328.694 494.253 328.268 496.92ZM325.388 501.52V490.8H320.188V501.68C318.988 501.707 317.841 501.72 316.748 501.72H313.588L314.068 506.04C315.668 506.04 317.374 506.027 319.188 506C321.001 505.947 322.854 505.88 324.748 505.8C326.641 505.693 328.548 505.547 330.468 505.36C332.414 505.147 334.321 504.88 336.188 504.56L335.908 500.76C334.228 500.973 332.494 501.147 330.708 501.28C328.948 501.387 327.174 501.467 325.388 501.52Z" fill="#5387EC"/>
</g>
</g>
<defs>
<filter id="filter0_d_4524_180" x="0" y="0" width="1330" height="930" filterUnits="userSpaceOnUse" color-interpolation-filters="sRGB">
<feFlood flood-opacity="0" result="BackgroundImageFix"/>
<feColorMatrix in="SourceAlpha" type="matrix" values="0 0 0 0 0 0 0 0 0 0 0 0 0 0 0 0 0 0 127 0" result="hardAlpha"/>
<feOffset dy="4"/>
<feGaussianBlur stdDeviation="7.5"/>
<feComposite in2="hardAlpha" operator="out"/>
<feColorMatrix type="matrix" values="0 0 0 0 0 0 0 0 0 0 0 0 0 0 0 0 0 0 0.25 0"/>
<feBlend mode="normal" in2="BackgroundImageFix" result="effect1_dropShadow_4524_180"/>
<feBlend mode="normal" in="SourceGraphic" in2="effect1_dropShadow_4524_180" result="shape"/>
</filter>
<filter id="filter1_d_4524_180" x="664.9" y="-2.5" width="660.113" height="927" filterUnits="userSpaceOnUse" color-interpolation-filters="sRGB">
<feFlood flood-opacity="0" result="BackgroundImageFix"/>
<feColorMatrix in="SourceAlpha" type="matrix" values="0 0 0 0 0 0 0 0 0 0 0 0 0 0 0 0 0 0 127 0" result="hardAlpha"/>
<feOffset dx="-3.6"/>
<feGaussianBlur stdDeviation="6.75"/>
<feComposite in2="hardAlpha" operator="out"/>
<feColorMatrix type="matrix" values="0 0 0 0 0 0 0 0 0 0 0 0 0 0 0 0 0 0 0.25 0"/>
<feBlend mode="normal" in2="BackgroundImageFix" result="effect1_dropShadow_4524_180"/>
<feBlend mode="normal" in="SourceGraphic" in2="effect1_dropShadow_4524_180" result="shape"/>
</filter>
<clipPath id="clip0_4524_180">
<rect x="15" y="11" width="1300" height="900" rx="5" fill="white"/>
</clipPath>
</defs>
</svg>
