<svg width="1330" height="930" viewBox="0 0 1330 930" fill="none" xmlns="http://www.w3.org/2000/svg">
<g filter="url(#filter0_d_4524_166)">
<g clip-path="url(#clip0_4524_166)">
<rect x="15" y="11" width="1300" height="900" rx="5" fill="#F9F9F9"/>
<g filter="url(#filter1_d_4524_166)">
<path fill-rule="evenodd" clip-rule="evenodd" d="M682 911C806.563 801.058 885.126 640.204 885.126 461C885.126 281.796 806.563 120.942 682 11H1315.11V911H682Z" fill="#5387EC"/>
</g>
<path d="M186.88 440V436.08H176.64C176 436.08 175.347 436.133 174.68 436.24C174.04 436.347 173.413 436.48 172.8 436.64L180.32 429.04C181.067 428.293 181.8 427.533 182.52 426.76C183.24 425.987 183.88 425.173 184.44 424.32C185.027 423.44 185.493 422.52 185.84 421.56C186.187 420.6 186.36 419.56 186.36 418.44C186.36 417.107 186.12 415.92 185.64 414.88C185.16 413.84 184.507 412.973 183.68 412.28C182.88 411.56 181.933 411.027 180.84 410.68C179.747 410.307 178.573 410.12 177.32 410.12C174.573 410.12 172.32 410.867 170.56 412.36C168.827 413.827 167.773 415.893 167.4 418.56L171.8 419.36C171.747 418.56 171.84 417.827 172.08 417.16C172.32 416.493 172.68 415.92 173.16 415.44C173.64 414.96 174.213 414.587 174.88 414.32C175.547 414.027 176.28 413.88 177.08 413.88C178.493 413.88 179.56 414.2 180.28 414.84C181.027 415.453 181.493 416.227 181.68 417.16C181.893 418.067 181.88 419.053 181.64 420.12C181.4 421.187 181.027 422.173 180.52 423.08C179.987 423.907 179.413 424.667 178.8 425.36C178.187 426.053 177.533 426.747 176.84 427.44L166.88 437.44V440H186.88ZM212.228 413.76V410.48H203.628V406.76H199.508V410.48H190.908V413.76H212.228ZM224.188 420.04V416.64H219.068V406.96H214.948V429.56H219.068V420.04H224.188ZM210.308 421.92C210.308 420.933 210.095 420.04 209.668 419.24C209.241 418.413 208.641 417.72 207.868 417.16C207.095 416.573 206.175 416.12 205.108 415.8C204.041 415.48 202.855 415.32 201.548 415.32C200.241 415.32 199.055 415.48 197.988 415.8C196.921 416.12 196.001 416.573 195.228 417.16C194.455 417.72 193.855 418.413 193.428 419.24C193.001 420.04 192.788 420.933 192.788 421.92C192.788 422.907 193.001 423.8 193.428 424.6C193.855 425.4 194.455 426.093 195.228 426.68C196.001 427.24 196.921 427.68 197.988 428C199.055 428.32 200.241 428.48 201.548 428.48C202.855 428.48 204.041 428.32 205.108 428C206.175 427.68 207.095 427.24 207.868 426.68C208.641 426.093 209.241 425.4 209.668 424.6C210.095 423.8 210.308 422.907 210.308 421.92ZM196.748 421.92C196.748 420.8 197.188 419.947 198.068 419.36C198.948 418.773 200.108 418.48 201.548 418.48C202.988 418.48 204.148 418.773 205.028 419.36C205.935 419.947 206.388 420.8 206.388 421.92C206.388 422.987 205.935 423.827 205.028 424.44C204.148 425.027 202.988 425.32 201.548 425.32C200.108 425.32 198.948 425.027 198.068 424.44C197.188 423.827 196.748 422.987 196.748 421.92ZM195.308 431.32V434.64H214.948V443.08H219.068V431.32H195.308ZM253.465 421.48V433.64H257.585V406.96H253.465V411.36H243.865V414.64H253.465V418.2H243.865V421.48H253.465ZM248.265 427.32L247.865 423.96C245.358 424.413 242.972 424.72 240.705 424.88C238.465 425.04 236.172 425.133 233.825 425.16V409.44H229.705V428.56H232.505C233.838 428.56 235.145 428.547 236.425 428.52C237.732 428.467 239.025 428.4 240.305 428.32C241.585 428.213 242.878 428.08 244.185 427.92C245.518 427.76 246.878 427.56 248.265 427.32ZM258.505 439.04H238.265V431.28H234.145V442.4H258.505V439.04ZM293.247 440V436.08H283.007C282.367 436.08 281.714 436.133 281.047 436.24C280.407 436.347 279.781 436.48 279.167 436.64L286.687 429.04C287.434 428.293 288.167 427.533 288.887 426.76C289.607 425.987 290.247 425.173 290.807 424.32C291.394 423.44 291.861 422.52 292.207 421.56C292.554 420.6 292.727 419.56 292.727 418.44C292.727 417.107 292.487 415.92 292.007 414.88C291.527 413.84 290.874 412.973 290.047 412.28C289.247 411.56 288.301 411.027 287.207 410.68C286.114 410.307 284.941 410.12 283.687 410.12C280.941 410.12 278.687 410.867 276.927 412.36C275.194 413.827 274.141 415.893 273.767 418.56L278.167 419.36C278.114 418.56 278.207 417.827 278.447 417.16C278.687 416.493 279.047 415.92 279.527 415.44C280.007 414.96 280.581 414.587 281.247 414.32C281.914 414.027 282.647 413.88 283.447 413.88C284.861 413.88 285.927 414.2 286.647 414.84C287.394 415.453 287.861 416.227 288.047 417.16C288.261 418.067 288.247 419.053 288.007 420.12C287.767 421.187 287.394 422.173 286.887 423.08C286.354 423.907 285.781 424.667 285.167 425.36C284.554 426.053 283.901 426.747 283.207 427.44L273.247 437.44V440H293.247ZM330.555 417.6H325.435V407H321.315V433.52H325.435V421H330.555V417.6ZM315.515 427.68V409.56H311.435V415.2H302.595V409.56H298.475V427.68H315.515ZM311.435 418.4V424.36H302.595V418.4H311.435ZM306.715 439.04V430.96H302.555V442.4H326.875V439.04H306.715Z" fill="#3068D3"/>
<path d="M196.8 497.76L198.96 493.4C196.853 493.053 195 492.48 193.4 491.68C191.8 490.853 190.453 489.893 189.36 488.8C188.267 487.707 187.44 486.507 186.88 485.2C186.32 483.893 186.04 482.587 186.04 481.28V478.64H180.4V481.28C180.4 482.56 180.12 483.853 179.56 485.16C179 486.44 178.173 487.64 177.08 488.76C175.987 489.853 174.64 490.813 173.04 491.64C171.44 492.467 169.6 493.053 167.52 493.4L169.68 497.76C172.907 497.173 175.667 496.067 177.96 494.44C180.253 492.813 182 490.867 183.2 488.6C184.4 490.947 186.107 492.92 188.32 494.52C190.56 496.093 193.387 497.173 196.8 497.76ZM200.08 509.08V504.84H185.88V496.6H180.6V504.84H166.72V509.08H200.08ZM206.117 484H211.117V495.04H206.317V499.24H233.997V495.04H229.117V484H234.117V479.8H206.117V484ZM216.357 484H223.877V495.04H216.357V484ZM236.877 509.16V504.88H203.517V509.16H236.877ZM244.234 499.76H270.114V495.6H249.594V491.48H268.994V487.4H249.594V483.52H269.834V479.28H244.234V499.76ZM273.674 509.2V504.92H240.314V509.2H273.674ZM309.311 513.44V476.64H304.311V513.44H309.311ZM301.871 477.24H296.951V500.32H291.191V504.28H296.951V511.76H301.871V477.24ZM286.271 492.64C287.444 492.64 288.524 492.467 289.511 492.12C290.497 491.773 291.351 491.293 292.071 490.68C292.791 490.067 293.351 489.333 293.751 488.48C294.177 487.627 294.391 486.693 294.391 485.68C294.391 484.64 294.177 483.693 293.751 482.84C293.351 481.987 292.791 481.253 292.071 480.64C291.351 480.027 290.497 479.547 289.511 479.2C288.524 478.853 287.444 478.68 286.271 478.68C285.097 478.68 284.004 478.853 282.991 479.2C282.004 479.547 281.137 480.027 280.391 480.64C279.671 481.253 279.097 481.987 278.671 482.84C278.271 483.693 278.071 484.64 278.071 485.68C278.071 486.693 278.271 487.627 278.671 488.48C279.097 489.333 279.671 490.067 280.391 490.68C281.137 491.293 282.004 491.773 282.991 492.12C284.004 492.467 285.097 492.64 286.271 492.64ZM286.271 482.6C287.284 482.6 288.111 482.867 288.751 483.4C289.391 483.907 289.711 484.667 289.711 485.68C289.711 486.64 289.391 487.387 288.751 487.92C288.111 488.453 287.284 488.72 286.271 488.72C285.257 488.72 284.417 488.453 283.751 487.92C283.084 487.387 282.751 486.64 282.751 485.68C282.751 484.667 283.084 483.907 283.751 483.4C284.417 482.867 285.257 482.6 286.271 482.6ZM295.551 497.52L295.151 493.68C293.711 493.893 292.164 494.067 290.511 494.2C288.857 494.307 287.191 494.387 285.511 494.44C283.857 494.493 282.257 494.533 280.711 494.56C279.164 494.56 277.777 494.56 276.551 494.56L277.111 498.84C278.044 498.84 279.057 498.84 280.151 498.84C281.271 498.813 282.444 498.773 283.671 498.72V510.56H288.711V498.44C289.911 498.333 291.084 498.213 292.231 498.08C293.377 497.92 294.484 497.733 295.551 497.52ZM344.828 513.52V476.56H339.548V489.84H333.388C333.201 488.187 332.841 486.707 332.308 485.4C331.774 484.067 331.094 482.947 330.268 482.04C329.441 481.107 328.494 480.4 327.428 479.92C326.388 479.413 325.241 479.16 323.988 479.16C322.628 479.16 321.361 479.467 320.188 480.08C319.014 480.693 318.001 481.573 317.148 482.72C316.321 483.84 315.668 485.213 315.188 486.84C314.708 488.44 314.468 490.253 314.468 492.28C314.468 494.307 314.708 496.133 315.188 497.76C315.668 499.387 316.321 500.773 317.148 501.92C318.001 503.067 319.014 503.947 320.188 504.56C321.361 505.173 322.628 505.48 323.988 505.48C325.268 505.48 326.454 505.227 327.548 504.72C328.641 504.187 329.601 503.427 330.428 502.44C331.254 501.453 331.921 500.267 332.428 498.88C332.961 497.467 333.294 495.88 333.428 494.12H339.548V513.52H344.828ZM323.988 500.68C322.628 500.68 321.534 499.973 320.708 498.56C319.908 497.12 319.508 495.027 319.508 492.28C319.508 489.533 319.908 487.453 320.708 486.04C321.534 484.627 322.628 483.92 323.988 483.92C325.348 483.92 326.441 484.627 327.268 486.04C328.094 487.453 328.508 489.533 328.508 492.28C328.508 495.027 328.094 497.12 327.268 498.56C326.441 499.973 325.348 500.68 323.988 500.68ZM391.327 513.44V476.6H386.287V490.48H383.007V477.56H378.087V511.88H383.007V494.72H386.287V513.44H391.327ZM375.687 481.16H361.167V485.36H370.487C370.167 488.933 369.14 492.107 367.407 494.88C365.674 497.653 362.967 500.107 359.287 502.24L362.367 505.92C364.927 504.427 367.06 502.787 368.767 501C370.5 499.187 371.874 497.24 372.887 495.16C373.9 493.08 374.62 490.88 375.047 488.56C375.474 486.213 375.687 483.747 375.687 481.16ZM430.404 488V483.72H425.564V476.6H420.284V495.32H425.564V488H430.404ZM397.644 494.36H415.284V478.2H410.084V482.6H402.844V478.2H397.644V494.36ZM402.844 486.56H410.084V490.24H402.844V486.56ZM426.604 509.08H406.524V506.76H425.564V496.76H401.244V500.76H420.364V503H401.284V513.16H426.604V509.08ZM462.321 495.8H467.281V491.4H462.321V476.56H457.041V513.4H462.321V495.8ZM447.721 496.92L452.881 497.36C453.387 494.32 453.681 491.653 453.761 489.36C453.841 487.067 453.881 485.027 453.881 483.24V480.24H434.921V484.44H448.681C448.681 486.12 448.627 487.96 448.521 489.96C448.414 491.933 448.147 494.253 447.721 496.92ZM444.841 501.52V490.8H439.641V501.68C438.441 501.707 437.294 501.72 436.201 501.72H433.041L433.521 506.04C435.121 506.04 436.827 506.027 438.641 506C440.454 505.947 442.307 505.88 444.201 505.8C446.094 505.693 448.001 505.547 449.921 505.36C451.867 505.147 453.774 504.88 455.641 504.56L455.361 500.76C453.681 500.973 451.947 501.147 450.161 501.28C448.401 501.387 446.627 501.467 444.841 501.52Z" fill="#5387EC"/>
</g>
</g>
<defs>
<filter id="filter0_d_4524_166" x="0" y="0" width="1330" height="930" filterUnits="userSpaceOnUse" color-interpolation-filters="sRGB">
<feFlood flood-opacity="0" result="BackgroundImageFix"/>
<feColorMatrix in="SourceAlpha" type="matrix" values="0 0 0 0 0 0 0 0 0 0 0 0 0 0 0 0 0 0 127 0" result="hardAlpha"/>
<feOffset dy="4"/>
<feGaussianBlur stdDeviation="7.5"/>
<feComposite in2="hardAlpha" operator="out"/>
<feColorMatrix type="matrix" values="0 0 0 0 0 0 0 0 0 0 0 0 0 0 0 0 0 0 0.25 0"/>
<feBlend mode="normal" in2="BackgroundImageFix" result="effect1_dropShadow_4524_166"/>
<feBlend mode="normal" in="SourceGraphic" in2="effect1_dropShadow_4524_166" result="shape"/>
</filter>
<filter id="filter1_d_4524_166" x="664.9" y="-2.5" width="660.113" height="927" filterUnits="userSpaceOnUse" color-interpolation-filters="sRGB">
<feFlood flood-opacity="0" result="BackgroundImageFix"/>
<feColorMatrix in="SourceAlpha" type="matrix" values="0 0 0 0 0 0 0 0 0 0 0 0 0 0 0 0 0 0 127 0" result="hardAlpha"/>
<feOffset dx="-3.6"/>
<feGaussianBlur stdDeviation="6.75"/>
<feComposite in2="hardAlpha" operator="out"/>
<feColorMatrix type="matrix" values="0 0 0 0 0 0 0 0 0 0 0 0 0 0 0 0 0 0 0.25 0"/>
<feBlend mode="normal" in2="BackgroundImageFix" result="effect1_dropShadow_4524_166"/>
<feBlend mode="normal" in="SourceGraphic" in2="effect1_dropShadow_4524_166" result="shape"/>
</filter>
<clipPath id="clip0_4524_166">
<rect x="15" y="11" width="1300" height="900" rx="5" fill="white"/>
</clipPath>
</defs>
</svg>
