<svg width="1330" height="930" viewBox="0 0 1330 930" fill="none" xmlns="http://www.w3.org/2000/svg">
<g filter="url(#filter0_d_4524_173)">
<g clip-path="url(#clip0_4524_173)">
<rect x="15" y="11" width="1300" height="900" rx="5" fill="#F9F9F9"/>
<g filter="url(#filter1_d_4524_173)">
<path fill-rule="evenodd" clip-rule="evenodd" d="M682 911C806.563 801.058 885.126 640.204 885.126 461C885.126 281.796 806.563 120.942 682 11H1315.11V911H682Z" fill="#3068D3"/>
</g>
<path d="M186.88 440V436.08H176.64C176 436.08 175.347 436.133 174.68 436.24C174.04 436.347 173.413 436.48 172.8 436.64L180.32 429.04C181.067 428.293 181.8 427.533 182.52 426.76C183.24 425.987 183.88 425.173 184.44 424.32C185.027 423.44 185.493 422.52 185.84 421.56C186.187 420.6 186.36 419.56 186.36 418.44C186.36 417.107 186.12 415.92 185.64 414.88C185.16 413.84 184.507 412.973 183.68 412.28C182.88 411.56 181.933 411.027 180.84 410.68C179.747 410.307 178.573 410.12 177.32 410.12C174.573 410.12 172.32 410.867 170.56 412.36C168.827 413.827 167.773 415.893 167.4 418.56L171.8 419.36C171.747 418.56 171.84 417.827 172.08 417.16C172.32 416.493 172.68 415.92 173.16 415.44C173.64 414.96 174.213 414.587 174.88 414.32C175.547 414.027 176.28 413.88 177.08 413.88C178.493 413.88 179.56 414.2 180.28 414.84C181.027 415.453 181.493 416.227 181.68 417.16C181.893 418.067 181.88 419.053 181.64 420.12C181.4 421.187 181.027 422.173 180.52 423.08C179.987 423.907 179.413 424.667 178.8 425.36C178.187 426.053 177.533 426.747 176.84 427.44L166.88 437.44V440H186.88ZM212.228 413.76V410.48H203.628V406.76H199.508V410.48H190.908V413.76H212.228ZM224.188 420.04V416.64H219.068V406.96H214.948V429.56H219.068V420.04H224.188ZM210.308 421.92C210.308 420.933 210.095 420.04 209.668 419.24C209.241 418.413 208.641 417.72 207.868 417.16C207.095 416.573 206.175 416.12 205.108 415.8C204.041 415.48 202.855 415.32 201.548 415.32C200.241 415.32 199.055 415.48 197.988 415.8C196.921 416.12 196.001 416.573 195.228 417.16C194.455 417.72 193.855 418.413 193.428 419.24C193.001 420.04 192.788 420.933 192.788 421.92C192.788 422.907 193.001 423.8 193.428 424.6C193.855 425.4 194.455 426.093 195.228 426.68C196.001 427.24 196.921 427.68 197.988 428C199.055 428.32 200.241 428.48 201.548 428.48C202.855 428.48 204.041 428.32 205.108 428C206.175 427.68 207.095 427.24 207.868 426.68C208.641 426.093 209.241 425.4 209.668 424.6C210.095 423.8 210.308 422.907 210.308 421.92ZM196.748 421.92C196.748 420.8 197.188 419.947 198.068 419.36C198.948 418.773 200.108 418.48 201.548 418.48C202.988 418.48 204.148 418.773 205.028 419.36C205.935 419.947 206.388 420.8 206.388 421.92C206.388 422.987 205.935 423.827 205.028 424.44C204.148 425.027 202.988 425.32 201.548 425.32C200.108 425.32 198.948 425.027 198.068 424.44C197.188 423.827 196.748 422.987 196.748 421.92ZM195.308 431.32V434.64H214.948V443.08H219.068V431.32H195.308ZM253.465 421.48V433.64H257.585V406.96H253.465V411.36H243.865V414.64H253.465V418.2H243.865V421.48H253.465ZM248.265 427.32L247.865 423.96C245.358 424.413 242.972 424.72 240.705 424.88C238.465 425.04 236.172 425.133 233.825 425.16V409.44H229.705V428.56H232.505C233.838 428.56 235.145 428.547 236.425 428.52C237.732 428.467 239.025 428.4 240.305 428.32C241.585 428.213 242.878 428.08 244.185 427.92C245.518 427.76 246.878 427.56 248.265 427.32ZM258.505 439.04H238.265V431.28H234.145V442.4H258.505V439.04ZM277.087 430.96L273.207 432.56C274.007 435.253 275.221 437.227 276.847 438.48C278.474 439.733 280.647 440.36 283.367 440.36C284.727 440.36 286.007 440.16 287.207 439.76C288.434 439.36 289.501 438.773 290.407 438C291.314 437.227 292.034 436.293 292.567 435.2C293.101 434.08 293.367 432.813 293.367 431.4C293.367 429.533 292.887 428.04 291.927 426.92C290.967 425.773 289.607 424.947 287.847 424.44C289.554 423.907 290.794 423.08 291.567 421.96C292.341 420.84 292.727 419.427 292.727 417.72C292.727 416.467 292.474 415.373 291.967 414.44C291.487 413.48 290.834 412.68 290.007 412.04C289.207 411.4 288.274 410.92 287.207 410.6C286.167 410.28 285.087 410.12 283.967 410.12C281.221 410.12 278.981 410.88 277.247 412.4C275.514 413.893 274.461 415.96 274.087 418.6L278.447 419.36C278.394 418.56 278.487 417.827 278.727 417.16C278.994 416.493 279.367 415.92 279.847 415.44C280.327 414.96 280.901 414.587 281.567 414.32C282.261 414.027 282.981 413.88 283.727 413.88C285.194 413.88 286.341 414.293 287.167 415.12C288.021 415.92 288.447 417.04 288.447 418.48C288.447 419.467 288.247 420.267 287.847 420.88C287.474 421.493 286.981 421.987 286.367 422.36C285.754 422.707 285.047 422.947 284.247 423.08C283.447 423.213 282.634 423.28 281.807 423.28V426.48C282.714 426.48 283.594 426.533 284.447 426.64C285.301 426.747 286.061 426.973 286.727 427.32C287.394 427.667 287.927 428.173 288.327 428.84C288.754 429.507 288.967 430.4 288.967 431.52C288.967 432.293 288.807 433 288.487 433.64C288.194 434.253 287.781 434.787 287.247 435.24C286.741 435.667 286.141 436 285.447 436.24C284.781 436.48 284.074 436.6 283.327 436.6C282.581 436.6 281.847 436.453 281.127 436.16C280.407 435.84 279.767 435.427 279.207 434.92C278.647 434.413 278.167 433.813 277.767 433.12C277.394 432.427 277.167 431.707 277.087 430.96ZM330.555 417.6H325.435V407H321.315V433.52H325.435V421H330.555V417.6ZM315.515 427.68V409.56H311.435V415.2H302.595V409.56H298.475V427.68H315.515ZM311.435 418.4V424.36H302.595V418.4H311.435ZM306.715 439.04V430.96H302.555V442.4H326.875V439.04H306.715Z" fill="#3068D3"/>
<path d="M197.32 497.48V476.6H192V497.48H197.32ZM177.28 478.28C175.84 478.28 174.507 478.507 173.28 478.96C172.08 479.387 171.027 480 170.12 480.8C169.213 481.573 168.507 482.507 168 483.6C167.493 484.667 167.24 485.853 167.24 487.16C167.24 488.44 167.493 489.627 168 490.72C168.507 491.813 169.213 492.747 170.12 493.52C171.027 494.293 172.08 494.907 173.28 495.36C174.507 495.787 175.84 496 177.28 496C178.72 496 180.04 495.787 181.24 495.36C182.467 494.907 183.52 494.293 184.4 493.52C185.307 492.747 186.013 491.813 186.52 490.72C187.027 489.627 187.28 488.44 187.28 487.16C187.28 485.853 187.027 484.667 186.52 483.6C186.013 482.507 185.307 481.573 184.4 480.8C183.52 480 182.467 479.387 181.24 478.96C180.04 478.507 178.72 478.28 177.28 478.28ZM177.28 482.68C178.667 482.68 179.813 483.067 180.72 483.84C181.653 484.613 182.12 485.72 182.12 487.16C182.12 488.547 181.653 489.64 180.72 490.44C179.813 491.213 178.667 491.6 177.28 491.6C175.84 491.6 174.667 491.213 173.76 490.44C172.853 489.64 172.4 488.547 172.4 487.16C172.4 485.72 172.853 484.613 173.76 483.84C174.667 483.067 175.84 482.68 177.28 482.68ZM197.32 513V499.12H172.8V513H197.32ZM178 508.88V503.24H192.16V508.88H178ZM235.117 513.4V476.56H230.117V513.4H235.117ZM227.557 477.24H222.637V490.08H219.197V479.96H214.317V488.4H209.517V479.92H204.557V504.72H219.197V494.32H222.637V511.84H227.557V477.24ZM209.517 492.56H214.317V500.52H209.517V492.56ZM270.834 513.56V476.6H265.554V513.56H270.834ZM247.794 500.36V484.16H260.314V479.88H242.514V504.76H245.754C247.727 504.76 249.514 504.747 251.114 504.72C252.714 504.693 254.207 504.64 255.594 504.56C256.98 504.48 258.287 504.373 259.514 504.24C260.767 504.08 262.02 503.88 263.274 503.64L262.794 499.28C261.674 499.493 260.567 499.667 259.474 499.8C258.38 499.933 257.234 500.04 256.034 500.12C254.834 500.2 253.554 500.267 252.194 500.32C250.86 500.347 249.394 500.36 247.794 500.36ZM280.991 497.8H306.911V493.6H286.271V483.92H306.631V479.64H280.991V497.8ZM310.471 509.04V504.72H277.111V509.04H310.471ZM353.05 497.76L355.21 493.4C353.103 493.053 351.25 492.48 349.65 491.68C348.05 490.853 346.703 489.893 345.61 488.8C344.517 487.707 343.69 486.507 343.13 485.2C342.57 483.893 342.29 482.587 342.29 481.28V478.64H336.65V481.28C336.65 482.56 336.37 483.853 335.81 485.16C335.25 486.44 334.423 487.64 333.33 488.76C332.237 489.853 330.89 490.813 329.29 491.64C327.69 492.467 325.85 493.053 323.77 493.4L325.93 497.76C329.157 497.173 331.917 496.067 334.21 494.44C336.503 492.813 338.25 490.867 339.45 488.6C340.65 490.947 342.357 492.92 344.57 494.52C346.81 496.093 349.637 497.173 353.05 497.76ZM356.33 509.08V504.84H342.13V496.6H336.85V504.84H322.97V509.08H356.33ZM362.367 484H367.367V495.04H362.567V499.24H390.247V495.04H385.367V484H390.367V479.8H362.367V484ZM372.607 484H380.127V495.04H372.607V484ZM393.127 509.16V504.88H359.767V509.16H393.127ZM400.484 499.76H426.364V495.6H405.844V491.48H425.244V487.4H405.844V483.52H426.084V479.28H400.484V499.76ZM429.924 509.2V504.92H396.564V509.2H429.924ZM465.561 513.44V476.64H460.561V513.44H465.561ZM458.121 477.24H453.201V500.32H447.441V504.28H453.201V511.76H458.121V477.24ZM442.521 492.64C443.694 492.64 444.774 492.467 445.761 492.12C446.747 491.773 447.601 491.293 448.321 490.68C449.041 490.067 449.601 489.333 450.001 488.48C450.427 487.627 450.641 486.693 450.641 485.68C450.641 484.64 450.427 483.693 450.001 482.84C449.601 481.987 449.041 481.253 448.321 480.64C447.601 480.027 446.747 479.547 445.761 479.2C444.774 478.853 443.694 478.68 442.521 478.68C441.347 478.68 440.254 478.853 439.241 479.2C438.254 479.547 437.387 480.027 436.641 480.64C435.921 481.253 435.347 481.987 434.921 482.84C434.521 483.693 434.321 484.64 434.321 485.68C434.321 486.693 434.521 487.627 434.921 488.48C435.347 489.333 435.921 490.067 436.641 490.68C437.387 491.293 438.254 491.773 439.241 492.12C440.254 492.467 441.347 492.64 442.521 492.64ZM442.521 482.6C443.534 482.6 444.361 482.867 445.001 483.4C445.641 483.907 445.961 484.667 445.961 485.68C445.961 486.64 445.641 487.387 445.001 487.92C444.361 488.453 443.534 488.72 442.521 488.72C441.507 488.72 440.667 488.453 440.001 487.92C439.334 487.387 439.001 486.64 439.001 485.68C439.001 484.667 439.334 483.907 440.001 483.4C440.667 482.867 441.507 482.6 442.521 482.6ZM451.801 497.52L451.401 493.68C449.961 493.893 448.414 494.067 446.761 494.2C445.107 494.307 443.441 494.387 441.761 494.44C440.107 494.493 438.507 494.533 436.961 494.56C435.414 494.56 434.027 494.56 432.801 494.56L433.361 498.84C434.294 498.84 435.307 498.84 436.401 498.84C437.521 498.813 438.694 498.773 439.921 498.72V510.56H444.961V498.44C446.161 498.333 447.334 498.213 448.481 498.08C449.627 497.92 450.734 497.733 451.801 497.52ZM501.078 513.52V476.56H495.798V489.84H489.638C489.451 488.187 489.091 486.707 488.558 485.4C488.024 484.067 487.344 482.947 486.518 482.04C485.691 481.107 484.744 480.4 483.678 479.92C482.638 479.413 481.491 479.16 480.238 479.16C478.878 479.16 477.611 479.467 476.438 480.08C475.264 480.693 474.251 481.573 473.398 482.72C472.571 483.84 471.918 485.213 471.438 486.84C470.958 488.44 470.718 490.253 470.718 492.28C470.718 494.307 470.958 496.133 471.438 497.76C471.918 499.387 472.571 500.773 473.398 501.92C474.251 503.067 475.264 503.947 476.438 504.56C477.611 505.173 478.878 505.48 480.238 505.48C481.518 505.48 482.704 505.227 483.798 504.72C484.891 504.187 485.851 503.427 486.678 502.44C487.504 501.453 488.171 500.267 488.678 498.88C489.211 497.467 489.544 495.88 489.678 494.12H495.798V513.52H501.078ZM480.238 500.68C478.878 500.68 477.784 499.973 476.958 498.56C476.158 497.12 475.758 495.027 475.758 492.28C475.758 489.533 476.158 487.453 476.958 486.04C477.784 484.627 478.878 483.92 480.238 483.92C481.598 483.92 482.691 484.627 483.518 486.04C484.344 487.453 484.758 489.533 484.758 492.28C484.758 495.027 484.344 497.12 483.518 498.56C482.691 499.973 481.598 500.68 480.238 500.68ZM547.577 513.44V476.6H542.537V490.48H539.257V477.56H534.337V511.88H539.257V494.72H542.537V513.44H547.577ZM531.937 481.16H517.417V485.36H526.737C526.417 488.933 525.39 492.107 523.657 494.88C521.924 497.653 519.217 500.107 515.537 502.24L518.617 505.92C521.177 504.427 523.31 502.787 525.017 501C526.75 499.187 528.124 497.24 529.137 495.16C530.15 493.08 530.87 490.88 531.297 488.56C531.724 486.213 531.937 483.747 531.937 481.16ZM586.654 488V483.72H581.814V476.6H576.534V495.32H581.814V488H586.654ZM553.894 494.36H571.534V478.2H566.334V482.6H559.094V478.2H553.894V494.36ZM559.094 486.56H566.334V490.24H559.094V486.56ZM582.854 509.08H562.774V506.76H581.814V496.76H557.494V500.76H576.614V503H557.534V513.16H582.854V509.08ZM618.571 495.8H623.531V491.4H618.571V476.56H613.291V513.4H618.571V495.8ZM603.971 496.92L609.131 497.36C609.637 494.32 609.931 491.653 610.011 489.36C610.091 487.067 610.131 485.027 610.131 483.24V480.24H591.171V484.44H604.931C604.931 486.12 604.877 487.96 604.771 489.96C604.664 491.933 604.397 494.253 603.971 496.92ZM601.091 501.52V490.8H595.891V501.68C594.691 501.707 593.544 501.72 592.451 501.72H589.291L589.771 506.04C591.371 506.04 593.077 506.027 594.891 506C596.704 505.947 598.557 505.88 600.451 505.8C602.344 505.693 604.251 505.547 606.171 505.36C608.117 505.147 610.024 504.88 611.891 504.56L611.611 500.76C609.931 500.973 608.197 501.147 606.411 501.28C604.651 501.387 602.877 501.467 601.091 501.52Z" fill="#5387EC"/>
</g>
</g>
<defs>
<filter id="filter0_d_4524_173" x="0" y="0" width="1330" height="930" filterUnits="userSpaceOnUse" color-interpolation-filters="sRGB">
<feFlood flood-opacity="0" result="BackgroundImageFix"/>
<feColorMatrix in="SourceAlpha" type="matrix" values="0 0 0 0 0 0 0 0 0 0 0 0 0 0 0 0 0 0 127 0" result="hardAlpha"/>
<feOffset dy="4"/>
<feGaussianBlur stdDeviation="7.5"/>
<feComposite in2="hardAlpha" operator="out"/>
<feColorMatrix type="matrix" values="0 0 0 0 0 0 0 0 0 0 0 0 0 0 0 0 0 0 0.25 0"/>
<feBlend mode="normal" in2="BackgroundImageFix" result="effect1_dropShadow_4524_173"/>
<feBlend mode="normal" in="SourceGraphic" in2="effect1_dropShadow_4524_173" result="shape"/>
</filter>
<filter id="filter1_d_4524_173" x="664.9" y="-2.5" width="660.113" height="927" filterUnits="userSpaceOnUse" color-interpolation-filters="sRGB">
<feFlood flood-opacity="0" result="BackgroundImageFix"/>
<feColorMatrix in="SourceAlpha" type="matrix" values="0 0 0 0 0 0 0 0 0 0 0 0 0 0 0 0 0 0 127 0" result="hardAlpha"/>
<feOffset dx="-3.6"/>
<feGaussianBlur stdDeviation="6.75"/>
<feComposite in2="hardAlpha" operator="out"/>
<feColorMatrix type="matrix" values="0 0 0 0 0 0 0 0 0 0 0 0 0 0 0 0 0 0 0.25 0"/>
<feBlend mode="normal" in2="BackgroundImageFix" result="effect1_dropShadow_4524_173"/>
<feBlend mode="normal" in="SourceGraphic" in2="effect1_dropShadow_4524_173" result="shape"/>
</filter>
<clipPath id="clip0_4524_173">
<rect x="15" y="11" width="1300" height="900" rx="5" fill="white"/>
</clipPath>
</defs>
</svg>
