<svg width="22" height="22" viewBox="0 0 22 22" fill="none" xmlns="http://www.w3.org/2000/svg">
<path d="M21.1943 7.36095C21.1943 7.36095 21.1943 7.36095 21.1943 7.30678C20.431 5.22269 19.046 3.42334 17.2266 2.15213C15.4072 0.88093 13.2413 0.199219 11.0218 0.199219C8.80232 0.199219 6.63639 0.88093 4.81702 2.15213C2.99764 3.42334 1.61261 5.22269 0.849297 7.30678C0.849297 7.30678 0.849297 7.30678 0.849297 7.36095C-0.00315109 9.71275 -0.00315109 12.2891 0.849297 14.6409C0.849297 14.6409 0.849297 14.6409 0.849297 14.6951C1.61261 16.7792 2.99764 18.5786 4.81702 19.8498C6.63639 21.121 8.80232 21.8027 11.0218 21.8027C13.2413 21.8027 15.4072 21.121 17.2266 19.8498C19.046 18.5786 20.431 16.7792 21.1943 14.6951C21.1943 14.6951 21.1943 14.6951 21.1943 14.6409C22.0467 12.2891 22.0467 9.71275 21.1943 7.36095V7.36095ZM2.61513 13.1676C2.23946 11.7476 2.23946 10.2543 2.61513 8.83428H4.63013C4.45683 10.2735 4.45683 11.7284 4.63013 13.1676H2.61513ZM3.50346 15.3343H5.02013C5.27441 16.3004 5.63786 17.2345 6.10346 18.1184C5.04104 17.3947 4.15292 16.4437 3.50346 15.3343ZM5.02013 6.66762H3.50346C4.14357 5.56162 5.02034 4.61087 6.07096 3.88345C5.61656 4.7688 5.26403 5.70282 5.02013 6.66762V6.66762ZM9.9168 19.3426C8.58621 18.3662 7.65171 16.9433 7.2843 15.3343H9.9168V19.3426ZM9.9168 13.1676H6.81846C6.6163 11.7302 6.6163 10.2717 6.81846 8.83428H9.9168V13.1676ZM9.9168 6.66762H7.2843C7.65171 5.05861 8.58621 3.63571 9.9168 2.65928V6.66762ZM18.4968 6.66762H16.9801C16.7259 5.70145 16.3624 4.76738 15.8968 3.88345C16.9592 4.60719 17.8473 5.55822 18.4968 6.66762ZM12.0835 2.65928C13.4141 3.63571 14.3486 5.05861 14.716 6.66762H12.0835V2.65928ZM12.0835 19.3426V15.3343H14.716C14.3486 16.9433 13.4141 18.3662 12.0835 19.3426V19.3426ZM15.1818 13.1676H12.0835V8.83428H15.1818C15.384 10.2717 15.384 11.7302 15.1818 13.1676ZM15.9293 18.1184C16.3949 17.2345 16.7583 16.3004 17.0126 15.3343H18.5293C17.8798 16.4437 16.9917 17.3947 15.9293 18.1184ZM19.3851 13.1676H17.3701C17.4582 12.4488 17.5017 11.7252 17.5001 11.0009C17.5013 10.2767 17.4579 9.55315 17.3701 8.83428H19.3851C19.7608 10.2543 19.7608 11.7476 19.3851 13.1676Z" fill="#5387EC"/>
</svg>
