<svg width="18" height="18" viewBox="0 0 18 18" fill="none" xmlns="http://www.w3.org/2000/svg">
    <path d="M15.4224 9.82211C15.4584 9.55961 15.4764 9.28836 15.4764 8.99961C15.4764 8.71961 15.4584 8.43961 15.4134 8.17711L17.2395 6.79461C17.4014 6.67211 17.4464 6.43586 17.3474 6.26086L15.6203 3.35586C15.5124 3.16336 15.2875 3.10211 15.0896 3.16336L12.9396 4.00336C12.4899 3.67086 12.0131 3.39086 11.4824 3.18086L11.1585 0.958359C11.1225 0.748359 10.9426 0.599609 10.7267 0.599609H7.27247C7.05658 0.599609 6.88567 0.748359 6.84968 0.958359L6.52585 3.18086C5.99511 3.39086 5.50935 3.67961 5.06857 4.00336L2.91865 3.16336C2.72075 3.09336 2.49586 3.16336 2.38792 3.35586L0.669775 6.26086C0.561829 6.44461 0.59781 6.67211 0.777721 6.79461L2.60381 8.17711C2.55883 8.43961 2.52285 8.72836 2.52285 8.99961C2.52285 9.27086 2.54084 9.55961 2.58582 9.82211L0.75973 11.2046C0.59781 11.3271 0.552833 11.5634 0.651784 11.7384L2.37892 14.6434C2.48687 14.8359 2.71175 14.8971 2.90965 14.8359L5.05958 13.9959C5.50935 14.3284 5.98612 14.6084 6.51685 14.8184L6.84069 17.0409C6.88567 17.2509 7.05658 17.3996 7.27247 17.3996H10.7267C10.9426 17.3996 11.1225 17.2509 11.1495 17.0409L11.4734 14.8184C12.0041 14.6084 12.4899 14.3284 12.9306 13.9959L15.0806 14.8359C15.2785 14.9059 15.5034 14.8359 15.6113 14.6434L17.3384 11.7384C17.4464 11.5459 17.4014 11.3271 17.2305 11.2046L15.4224 9.82211ZM8.99961 12.1496C7.2185 12.1496 5.76123 10.7321 5.76123 8.99961C5.76123 7.26711 7.2185 5.84961 8.99961 5.84961C10.7807 5.84961 12.238 7.26711 12.238 8.99961C12.238 10.7321 10.7807 12.1496 8.99961 12.1496Z" fill="#3068D3"/>
</svg>
